<svg xmlns="http://www.w3.org/2000/svg" viewBox="0 0 428.5 338.96"><title>1</title><g id="Layer_2" data-name="Layer 2"><g id="teamwork"><path d="M312.53,59.19l.06-12.67s4.88-11.08,13.55-3.1c0,0,2.41,3,1.52,16.85C327.67,60.27,319.75,68.51,312.53,59.19Z" style="fill:#fff1b8"/><path d="M312.05,59.41v-11a7.54,7.54,0,0,1,7.54-7.54h0a7.54,7.54,0,0,1,7.54,7.54V59.28" style="fill:none;stroke:#000;stroke-miterlimit:10;stroke-width:1.01340150378032px"/><path d="M315.21,54a2.67,2.67,0,0,0,4.22,0" style="fill:none;stroke:#000;stroke-miterlimit:10;stroke-width:0.861163869298661px"/><path d="M27.9,193.43,28,178.34s5.81-13.2,16.14-3.7c0,0,2.87,3.55,1.81,20.06C45.92,194.71,36.5,204.52,27.9,193.43Z" style="fill:#fff1b8"/><path d="M10.77,252.27s16.9,9.35,47.67,1.21L52.71,288.1l-4.07,18.78-5.58,23.23s-5.43,14.48-6.34-1.81-1.51-56.72-1.51-56.72l2.41-5.73s-12.37,17.5-17.2,47.67-8.75,24.14-8.75,24.14S6.55,333.66,10.77,252.27Z" style="fill:#d1d1d1"/><path d="M51.43,194.79l18.33,16.52,22.1-9.81s-1.21-6,2.34-6.19c0,0,1.13.3.68,2.11s4.6-1.06,4.6-1.06,4.3-.83.6,5.73a10.3,10.3,0,0,1-7.69,3l-18,18.48-18,.3Z" style="fill:#b3cef4"/><path d="M27.75,194.86l-8.32.88-5.83,2.41-3.82,3L.31,224.31l5,8.65,5.28,4.22.15,15.09s8,5.83,24.14,5,23.53-3.82,23.53-3.82l.8-21.72-2.31-20.29-5.53-16.32-5-.6S40.42,203.71,27.75,194.86Z" style="fill:#b3cef4"/><path d="M27.47,194.34s9.86,9.86,18.71.2l5.23.4,17.7,15.89" style="fill:none;stroke:#000;stroke-miterlimit:10;stroke-width:1.206902027130127px"/><path d="M67.7,212l24.14-10.26s-1.61-5,1.61-6.24c1.94-.73,1.91.67,1.57,1.89a.53.53,0,0,0,.8.59c2.29-1.45,6.56-3.62,5.67,1.14-1.21,6.44-9.05,6-9.05,6L74.34,223.7l-15.69-.2" style="fill:none;stroke:#000;stroke-miterlimit:10;stroke-width:1.206902027130127px"/><path d="M54.22,202.38s9.86,24.34,2,66.78-13.88,62.76-13.88,62.76-5.63,14.08-6.24-7.84-.6-52.9-.6-52.9" style="fill:none;stroke:#000;stroke-miterlimit:10;stroke-width:1.206902027130127px"/><path d="M55.63,253.88S32.7,262.32,11,252.07l-.4-13.88" style="fill:none;stroke:#000;stroke-miterlimit:10;stroke-width:1.206902027130127px"/><path d="M10.17,253.88l-1,72.21s1.41,19.11,5.43,9.25,13.28-63.56,24.14-70.2" style="fill:none;stroke:#000;stroke-miterlimit:10;stroke-width:1.206902027130127px"/><path d="M14.19,268.56s6.44-2.41,6.44-5.43" style="fill:none;stroke:#000;stroke-miterlimit:10;stroke-width:1.206902027130127px"/><path d="M45.92,193.28v-13a9,9,0,0,0-9-9h0a9,9,0,0,0-9,9v12.9" style="fill:none;stroke:#000;stroke-miterlimit:10;stroke-width:1.206902027130127px"/><path d="M26.35,178.61s-3.95-8.44.37-9.75,5.84-4.88,7.46-9.06S46.73,156.3,49,162.85s.84,10-.21,12.95" style="fill:none;stroke:#000;stroke-miterlimit:10;stroke-width:1.206902027130127px"/><ellipse cx="37.63" cy="179.35" rx="3.02" ry="4.73" style="fill:#feffff;stroke:#472b0a;stroke-miterlimit:10;stroke-width:1.206902027130127px"/><ellipse cx="45.67" cy="179.16" rx="2.56" ry="4.02" style="fill:#feffff;stroke:#472b0a;stroke-miterlimit:10;stroke-width:1.025595892319771px"/><path d="M40.64,179.35s1.31-1.19,2.46-.2" style="fill:#feffff;stroke:#472b0a;stroke-miterlimit:10;stroke-width:1.025595892319771px"/><line x1="34.61" y1="179.35" x2="28.07" y2="179.05" style="fill:#feffff;stroke:#472b0a;stroke-miterlimit:10;stroke-width:1.025595892319771px"/><path d="M22.54,218.27c-1,.91-10.56,6.44-10.56,6.44l5.43,16.49s3.52-.3,2.92,1a2.48,2.48,0,0,1-1.1,1.13,1,1,0,0,0-.41,1.43c.94,1.54,2,4-2.32,2.05a1.75,1.75,0,0,1-.7-.58,4.18,4.18,0,0,1-.7-3.63c.7-2.21-15-12.87-14.48-18.2s9.25-23.33,9.25-23.33,4.83-6.24,15-5.83" style="fill:none;stroke:#000;stroke-miterlimit:10;stroke-width:1.206902027130127px"/><path d="M195.11,256" style="fill:#feffff;stroke:#000;stroke-miterlimit:10;stroke-width:0.849775598404221px"/><rect x="201.05" y="104.78" width="152.97" height="175.8" rx="2.75" ry="2.75" style="fill:#f4f4f4"/><path d="M153.77,102H72.86a2.73,2.73,0,0,0-2.73,2.73v48.1a3.13,3.13,0,0,0,.07.64l-.07,13s.62,4.16,4.78-.31c2-2.11,5.41-5.89,8.5-9.29a2.72,2.72,0,0,1,2-.89h68.34a2.73,2.73,0,0,0,2.73-2.73V104.73A2.73,2.73,0,0,0,153.77,102Z" style="fill:#eaeaea"/><rect x="81.34" y="146.11" width="53.94" height="2.66" rx="1.33" ry="1.33" style="fill:#b3cef4"/><rect x="81.34" y="136.93" width="63.96" height="2.66" rx="1.33" ry="1.33" style="fill:#b3cef4"/><rect x="81.34" y="109.39" width="23.71" height="21.04" rx="3.36" ry="3.36" style="fill:#b3cef4"/><rect x="109.29" y="118.57" width="28.27" height="2.66" rx="0.96" ry="0.96" style="fill:#b3cef4"/><rect x="109.29" y="109.39" width="33.52" height="2.66" rx="0.96" ry="0.96" style="fill:#b3cef4"/><rect x="109.29" y="127.75" width="36.62" height="2.66" rx="1.01" ry="1.01" style="fill:#b3cef4"/><rect x="210.11" y="194.05" width="75.54" height="2.21" rx="1.1" ry="1.1" style="fill:#b3cef4"/><rect x="210.11" y="222" width="89.57" height="2.21" rx="1.1" ry="1.1" style="fill:#b3cef4"/><rect x="213.11" y="160.28" width="86.64" height="17.43" rx="3" ry="3" style="fill:#b3cef4"/><rect x="213.11" y="133.56" width="91.27" height="2.21" rx="1.1" ry="1.1" style="fill:#b3cef4"/><rect x="213.11" y="119.62" width="108.23" height="2.21" rx="1.1" ry="1.1" style="fill:#b3cef4"/><rect x="213.11" y="147.5" width="118.25" height="2.21" rx="1.1" ry="1.1" style="fill:#b3cef4"/><rect x="210.11" y="208.02" width="75.54" height="2.21" rx="1.1" ry="1.1" style="fill:#b3cef4"/><rect x="210.11" y="235.97" width="115.04" height="2.21" rx="1.1" ry="1.1" style="fill:#b3cef4"/><rect x="210.11" y="263.92" width="136.42" height="2.21" rx="1.1" ry="1.1" style="fill:#b3cef4"/><rect x="210.11" y="249.94" width="115.04" height="2.21" rx="1.1" ry="1.1" style="fill:#b3cef4"/><path d="M361.19,195.23s-.2-5.52,2.66-9.6,4.09-4.49,4.49-11.44,6.54-15.52,16.55-15.52S400.41,165,401,171.13s.2,9.19,4.29,10.62,9.6,5.11,9.81,16.14" style="fill:#feffff;stroke:#000;stroke-miterlimit:10;stroke-width:1.0415297324008936px"/><path d="M375.11,191l.08-15.32s5.9-13.41,16.39-3.75c0,0,2.91,3.6,1.84,20.38C393.41,192.35,383.84,202.31,375.11,191Z" style="fill:#fff1b8"/><path d="M362.16,255.65a27,27,0,0,1,3.52.87c6,2.3,23.34,7.55,44.74-2l1.63,73.74s-2.26,12.87-4.09,10-15.12-59.24-20.22-67-2.25.2-2.25.2L384.89,328s-2,17.39-6.95,3.09l-6.05-24.28-5.36-23.9Z" style="fill:#ddd"/><path d="M402.61,217.65l7.35,6.89s-2,2.37-4.6,6c-1.74,2.47-4.07,5.15-4.75,9.5-1.69,10.72,4.75,8.43,5.67,8.43.46,0,1.15-2,1.72-4s1-4,1-4,2.3-4.44,11.18-8.89,7.66-6.74,7.66-6.74-.61-7.66-8-19.3-10.11-10-14.55-12.41-8.73,1.84-16.24,4.14a16.25,16.25,0,0,1-15.32-2.91c-2.6-2-4.6-.77-4.6-.77S360.32,200,356.34,202s-8.89-3.52-8.89-3.52a100.7,100.7,0,0,0-7.2-12.72c-3.68-5.21-3.68-1.84-4-.61s.77,15,.77,15,.61,11.34,9.35,13.33A65.89,65.89,0,0,0,362.93,215l-2,11.64,1.23,29s23.75,10,47.49-.46" style="fill:#b3cef4"/><path d="M410,254.68l1.84,71.5s-1.64,19.3-5.73,9.29-13.27-64.45-24.3-71.19" style="fill:none;stroke:#000;stroke-miterlimit:10;stroke-width:1.225652671548542px"/><path d="M374.53,191.3V178a9.12,9.12,0,0,1,9.12-9.12h0a9.12,9.12,0,0,1,9.12,9.12v13.1" style="fill:none;stroke:#000;stroke-miterlimit:10;stroke-width:1.225652671548542px"/><path d="M378.35,184.81s2.25,2.86,5.11,0" style="fill:#feffff;stroke:#000;stroke-miterlimit:10;stroke-width:1.0415297324008936px"/><path d="M385.1,270.41s0,31.46-.61,53.72-6.33,8-6.33,8-6.13-20.63-14.1-63.73,2-67.82,2-67.82" style="fill:none;stroke:#000;stroke-miterlimit:10;stroke-width:1.225652671548542px"/><path d="M364.67,256.51S388,265.09,410,254.68l-2.05-10" style="fill:none;stroke:#000;stroke-miterlimit:10;stroke-width:1.225652671548542px"/><path d="M406.75,267.75s-6.54-2.45-6.54-5.52" style="fill:none;stroke:#000;stroke-miterlimit:10;stroke-width:1.225652671548542px"/><path d="M359.56,214.43s-19,1.84-21.14-9.81-5.21-33.71,4.6-14.4,13.79,12,27,2.45" style="fill:none;stroke:#000;stroke-miterlimit:10;stroke-width:1.225652671548542px"/><path d="M372.42,193.41s9.43,9,25.43.41,35.28,29.94,28.71,34-17.64,7.79-18.46,15.59-7.38,7-7.38.41,7.79-19.28,9.43-19.28-7.38-7.38-7.38-7.38l2,14.36" style="fill:none;stroke:#000;stroke-miterlimit:10;stroke-width:1.225652671548542px"/><path d="M383.35,165.61s-1.5,8.6,9.35,9.5l4.14-.13" style="fill:#feffff;stroke:#000;stroke-miterlimit:10;stroke-width:1.2222547500252738px"/><path d="M192.13,304.33H105.36a3.31,3.31,0,0,1-3.31-3.31V232.64a3.31,3.31,0,0,1,3.31-3.31H131.1a3.31,3.31,0,0,1,3.31,3.31v1.1a3.31,3.31,0,0,0,3.31,3.31h54.41a3.31,3.31,0,0,1,3.31,3.31V301A3.31,3.31,0,0,1,192.13,304.33Z" style="fill:#dcdbdd"/><rect x="96.56" y="245.51" width="86.76" height="58.82" rx="3.31" ry="3.31" style="fill:#eaeaea"/><path d="M310.48,92.85l-13.54,5c-.14.05-7.72,2.63-3.14,13.17,5.05,11.62,11.62,26.79,11.62,26.79s6.57,11.12,1.52-12.64L304.41,110l16.17-3.54,8.09,2-5.56,25.27s-2,12.13,5.56,1,22.74-30.33,10.11-35.38S310.48,92.85,310.48,92.85Z" style="fill:#e8e8e8;stroke:#000;stroke-miterlimit:10"/><path d="M302.37,75.28l1.38,21.27s2,5.35,12.09,4.06,19.34-1.85,21.11-.86c1.55.86-.22-11.31-.3-13s-.2-9.93-.2-9.93" style="fill:#b3cef4;stroke:#000;stroke-miterlimit:10"/><path d="M333.79,77.79s4.67,8.66,6,11.94l-7.09,3.89s-3.71,2.42.6,1.81,11.4-1.64,11.4-1.64-.18-9.8-.43-12.17c-1.81-17.35-14.68-21.41-14.68-21.41s-8.55,4.49-17.27-.78c0,0-4-1.9-8.2,2.16L292.76,75.26l-10.71,2.41s-12.67,2,14.21,4.25c3.09.25,4.73-2.55,7.33-4.62,2.13-1.7-.88.87-.88.87" style="fill:#b3cef4;stroke:#000;stroke-miterlimit:10"/><path d="M327.28,51.91,328,39.49a2.27,2.27,0,0,0-2-2.4l-5.42-.56a2.28,2.28,0,0,1-1.85-1.35c-.79-1.78-2.85-4.75-7.43-3.28-6.36,2-4.86,8.15-2.62,10.8,1.73,2,9.39,1.3,12.78.85a2.27,2.27,0,0,1,2.35,1.28l3.29,7" style="fill:#fff;stroke:#000;stroke-miterlimit:10;stroke-width:0.758141187537127px"/><path d="M219.14,0h67a2.26,2.26,0,0,1,2.26,2.26V42.11a2.59,2.59,0,0,1-.05.53l.05,10.75s-.52,3.44-4-.26c-1.63-1.75-4.48-4.88-7-7.7a2.25,2.25,0,0,0-1.67-.74H219.14a2.26,2.26,0,0,1-2.26-2.26V2.26A2.26,2.26,0,0,1,219.14,0Z" style="fill:#eaeaea"/><rect x="248.45" y="32.94" width="30.7" height="2.21" rx="0.84" ry="0.84" transform="translate(527.6 68.09) rotate(-180)" style="fill:#b3cef4"/><rect x="259.51" y="10.12" width="19.64" height="17.43" rx="3" ry="3" transform="translate(538.66 37.67) rotate(-180)" style="fill:#b3cef4"/><rect x="230.04" y="17.73" width="25.95" height="2.21" rx="0.84" ry="0.84" transform="translate(486.03 37.66) rotate(180)" style="fill:#b3cef4"/><rect x="225.21" y="10.12" width="30.78" height="2.21" rx="0.84" ry="0.84" transform="translate(481.21 22.44) rotate(-180)" style="fill:#b3cef4"/><rect x="222.36" y="25.33" width="33.63" height="2.21" rx="0.88" ry="0.88" transform="translate(478.36 52.87) rotate(-180)" style="fill:#b3cef4"/><path d="M149.46,272.9l-8.52-11.36a1,1,0,0,0-1.59,0l-8.92,11.36a1,1,0,0,0,.79,1.62h3.44a1,1,0,0,1,1,1V288a1,1,0,0,0,1,1h6.5a1,1,0,0,0,1-1V275.5a1,1,0,0,1,1-1h3.5A1,1,0,0,0,149.46,272.9Z" style="fill:#b3cef4"/></g></g></svg>