<svg xmlns="http://www.w3.org/2000/svg" viewBox="0 0 459.68 339.66"><title>2</title><g id="Layer_2" data-name="Layer 2"><g id="time"><circle cx="105.68" cy="71.26" r="31.78" transform="translate(33.96 176.62) rotate(-89.75)" style="fill:none;stroke:#78a3d6;stroke-miterlimit:10;stroke-width:6.201301900399547px"/><rect x="81.88" y="90.5" width="46.98" height="22.11" transform="translate(3.36 206.48) rotate(-89.75)" style="fill:#94b1d3"/><rect x="159.61" y="132.67" width="37.31" height="16.58" transform="translate(-47.58 166.35) rotate(-44.75)" style="fill:#94b1d3"/><path d="M195.86,140.51l-17.2-17.25,3.15-3a5.91,5.91,0,0,1,8,0l9.5,9.39a5.91,5.91,0,0,1,0,8Z" style="fill:#78a3d6"/><rect x="23.91" y="121.37" width="16.58" height="37.31" transform="translate(-89.24 63.25) rotate(-44.75)" style="fill:#94b1d3"/><path d="M14.71,139.66,32,122.46l-3-3.15a5.65,5.65,0,0,0-8,0l-9.39,9.5a5.65,5.65,0,0,0,0,8Z" style="fill:#78a3d6"/><circle cx="105.02" cy="213.32" r="105.02" transform="translate(-108.77 317.4) rotate(-89.75)" style="fill:#94b1d3"/><circle cx="105.02" cy="213.32" r="82.91" transform="translate(-108.77 317.4) rotate(-89.75)" style="fill:#fff"/><circle cx="105.02" cy="213.32" r="22.11" transform="translate(-108.77 317.4) rotate(-89.75)" style="fill:#382673;opacity:0.200000002980232;isolation:isolate"/><path d="M105.33,141.57l-.09,25A46.93,46.93,0,0,1,152,213.88l25,.09C177,174.18,145,141.78,105.33,141.57Z" style="fill:#ffde39"/><path d="M105.33,141.57l-.09,25a46.14,46.14,0,0,1,33.13,14l17.7-17.63A72.7,72.7,0,0,0,105.33,141.57Z" style="fill:#fec632"/><line x1="82.94" y1="213.44" x2="176.74" y2="213.87" style="fill:none;stroke:#f15a9e;stroke-linecap:round;stroke-miterlimit:10;stroke-width:8.290879806732121px"/><circle cx="105.02" cy="213.32" r="11.05" transform="translate(-108.77 317.4) rotate(-89.75)" style="fill:#d44a90"/><path d="M122.2,91.83l-33.32.08L89,72.5a7.9,7.9,0,0,1,8.3-8.13l16.53-.09a7.9,7.9,0,0,1,8.13,8.3Z" style="fill:#78a3d6"/><line x1="104.7" y1="279.79" x2="104.79" y2="265.98" style="fill:none;stroke:#382673;stroke-linecap:round;stroke-linejoin:round;stroke-width:5.527253204488078px;opacity:0.200000002980232;isolation:isolate"/><line x1="57.76" y1="260.12" x2="67.51" y2="250.46" style="fill:none;stroke:#382673;stroke-linecap:round;stroke-linejoin:round;stroke-width:5.527253204488078px;opacity:0.200000002980232;isolation:isolate"/><line x1="38.52" y1="213.25" x2="52.43" y2="213.08" style="fill:none;stroke:#382673;stroke-linecap:round;stroke-linejoin:round;stroke-width:5.527253204488078px;opacity:0.200000002980232;isolation:isolate"/><line x1="141.91" y1="250.81" x2="151.57" y2="260.56" style="fill:none;stroke:#382673;stroke-linecap:round;stroke-linejoin:round;stroke-width:5.527253204488078px;opacity:0.200000002980232;isolation:isolate"/><line x1="58.2" y1="166.31" x2="68.12" y2="176.16" style="fill:none;stroke:#382673;stroke-linecap:round;stroke-linejoin:round;stroke-width:5.527253204488078px;opacity:0.200000002980232;isolation:isolate"/><path d="M233.91,126.38s12.57,11,32.21,6.29S255.91,119.31,233.91,126.38Z" style="fill:#27930d"/><path d="M233.13,126.38s11.78,7.86,17.28-2.36c0,0,11,14.93,23.57,4.71s17.28-18.07,14.14-35.35c0,0-17.28,2.36-25.93-5.5C262.2,87.88,270.05,117.74,233.13,126.38Z" style="fill:#72c183"/><path d="M374.85,49.95S372.34,63.7,357,70.84,356.76,56.78,374.85,49.95Z" style="fill:#27930d"/><path d="M375.36,49.54S371.74,60.82,362.82,57c0,0,.57,15.5-13,15.36s-20.73-2.83-27.67-15.78c0,0,12.54-7.46,14.11-17.1C336.28,39.48,346.68,63.11,375.36,49.54Z" style="fill:#72c183"/><path d="M200.69,20.5s6,13.66,23.72,17.26S221.18,23.08,200.69,20.5Z" style="fill:#27930d"/><path d="M200.05,20.2s6.58,10.82,14.89,4.62c0,0,3.27,16.25,17.31,12.72s20.83-8.11,24.81-23.3c0,0-14.89-4.62-18.92-14.25C238.14,0,233.23,27.15,200.05,20.2Z" style="fill:#72c183"/><rect x="322.93" y="298.81" width="65.77" height="21.1" transform="translate(711.62 618.71) rotate(-180)" style="fill:#b78d37"/><rect x="268.58" y="305.52" width="65.77" height="21.1" transform="translate(602.92 632.14) rotate(-180)" style="fill:#b78d37"/><rect x="264.11" y="280.69" width="65.77" height="21.1" transform="translate(593.99 582.48) rotate(-180)" style="fill:#b78d37"/><rect x="171.29" y="263.09" width="65.77" height="21.1" style="fill:#eab328"/><rect x="171.29" y="311.85" width="65.77" height="21.1" style="fill:#eab328"/><rect x="164.59" y="287.02" width="65.77" height="21.1" style="fill:#eab328"/><rect x="216.71" y="318.56" width="65.77" height="21.1" style="fill:#eab328"/><rect x="221.18" y="293.73" width="65.77" height="21.1" style="fill:#eab328"/><path d="M422.73,124l-.1-20s-7.69-17.48-21.38-4.89c0,0-3.8,4.69-2.4,26.57C398.86,125.72,411.35,138.7,422.73,124Z" style="fill:#fff1b8"/><path d="M445.41,201.93s-22.38,12.39-63.13,1.6L344.22,231l-2.8,8.39,23.17,53.54s11.34,12.44,5.59-8.39c-6.39-23.17-10-44-10-44l51.14-16A376.15,376.15,0,0,1,431,297.43c6.39,40,11.59,32,11.59,32S451,309.71,445.41,201.93Z" style="fill:#d1d1d1"/><path d="M391.57,125.82,367.3,147.69l-29.27-13-9-5s-6.77-2.85-1.88,5.84c0,0,4,5.08,13.6,12.27L361.2,164l23.77.4Z" style="fill:#b3cef4"/><path d="M422.93,125.92l11,1.17,7.72,3.2,5.06,4,12.52,30.63-5.58,11.64L446,185.6l-.55,16.33s-10.65,7.72-32,6.66-31.17-5.06-31.17-5.06l-1.07-28.77,3.06-26.87,7.33-21.61,6.66-.8S406.15,137.64,422.93,125.92Z" style="fill:#b3cef4"/><path d="M423.3,125.22s-13.05,13.05-24.77.27l-6.93.53-23.44,21" style="fill:none;stroke:#000;stroke-miterlimit:10;stroke-width:1.5982147797587771px"/><path d="M370,148.66l-32-13.58s-14-9.76-12.79-3.46c1.6,8.52,36,32.5,36,32.5l20.78-.27" style="fill:none;stroke:#000;stroke-miterlimit:10;stroke-width:1.5982147797587771px"/><path d="M387.87,135.87s-9.87,24.36-5.62,67.66l-35.69,25.63a11.84,11.84,0,0,0-4.07,14.08c7.39,18.18,24.28,58.23,27.69,53.27,4.4-6.39-10-55.94-10-55.94l52.34-16.78" style="fill:none;stroke:#000;stroke-miterlimit:10;stroke-width:1.5982147797587771px"/><path d="M386,204.07s30.37,11.19,59.13-2.4l.53-13.58" style="fill:none;stroke:#000;stroke-miterlimit:10;stroke-width:1.5982147797587771px"/><path d="M446.21,204.07l-.27,110s-1.86,25.31-7.19,12.25-16-98.56-30.37-107.35" style="fill:none;stroke:#000;stroke-miterlimit:10;stroke-width:1.5982147797587771px"/><path d="M440.88,223.51s-8.52-3.2-8.52-7.19" style="fill:none;stroke:#000;stroke-miterlimit:10;stroke-width:1.5982147797587771px"/><path d="M398.86,123.82V106.54a11.89,11.89,0,0,1,11.89-11.89h0a11.89,11.89,0,0,1,11.89,11.89v17.08" style="fill:none;stroke:#000;stroke-miterlimit:10;stroke-width:1.5982147797587771px"/><path d="M429.83,156.92c1.33,1.2,14,8.52,14,8.52s-3.45,11.1-7.18,22.29c-.25.76-4.54,9.6,1.19,7a2.32,2.32,0,0,0,.93-.76c.6-.86,20.77-21.86,20.1-28.92s-12.25-30.9-12.25-30.9-6.39-8.26-19.84-7.72" style="fill:none;stroke:#000;stroke-miterlimit:10;stroke-width:1.5982147797587771px"/><path d="M412.54,117.91s-4,3.6-7.59,0" style="fill:none;stroke:#000;stroke-miterlimit:10;stroke-width:1.5982147797587771px"/><path d="M423.74,107s27.42-3,.36-2.9l-27.06.09S392.41,106.78,423.74,107Z" style="fill:#72c183"/><path d="M424.47,105c0-7.19-6.23-13-13.91-13s-13.91,5.83-13.91,13" style="fill:#72c183"/><rect x="401.21" y="100.36" width="8.26" height="2.13" style="fill:#fff1b8"/></g></g></svg>