<svg xmlns="http://www.w3.org/2000/svg" viewBox="0 0 500 343.79"><title>3</title><g id="Layer_2" data-name="Layer 2"><g id="dynamic_team_collaboration" data-name="dynamic team collaboration"><path d="M298.29,175.51" style="fill:#fff;stroke:#000;stroke-miterlimit:10;stroke-width:1.0780871060196813px"/><line x1="115.39" y1="155.18" x2="127.25" y2="168.12" style="fill:#fff;stroke:#000;stroke-miterlimit:10;stroke-width:1.0780871060196813px"/><line x1="136.42" y1="153.57" x2="146.66" y2="180.52" style="fill:#fff;stroke:#000;stroke-miterlimit:10;stroke-width:1.0780871060196813px"/><line x1="163.91" y1="145.48" x2="160.67" y2="158.96" style="fill:#fff;stroke:#000;stroke-miterlimit:10;stroke-width:1.0780871060196813px"/><line x1="331.03" y1="161.02" x2="323.6" y2="173.48" style="fill:#fff;stroke:#000;stroke-miterlimit:10;stroke-width:1.0780871060196813px"/><line x1="310.6" y1="161.98" x2="310.66" y2="177.68" style="fill:#fff;stroke:#000;stroke-miterlimit:10;stroke-width:1.0780871060196813px"/><line x1="293.51" y1="165.01" x2="300.8" y2="174.91" style="fill:#fff;stroke:#000;stroke-miterlimit:10;stroke-width:1.0780871060196813px"/><line x1="399.19" y1="172.01" x2="404.58" y2="183.33" style="fill:#fff;stroke:#000;stroke-miterlimit:10;stroke-width:1.0780871060196813px"/><path d="M416.44,168.23v15.09" style="fill:#fff;stroke:#000;stroke-miterlimit:10;stroke-width:1.0780871060196813px"/><line x1="432.61" y1="164.46" x2="428.84" y2="177.67" style="fill:#fff;stroke:#000;stroke-miterlimit:10;stroke-width:1.0780871060196813px"/><path d="M77.36,212.54S-3,149.9,44.47,98.6s73.31-20.72,73.31-20.72,14,15.78-6.47,18.25-39.89-34.53,3.23-54.75c37.79-17.72,56.13,9.26,60.08,16.2a12.41,12.41,0,0,1,1.18,2.84c2.7,9.74,20.86,72,48.17,87,29.65,16.28,79.24,8.88,98.64-11.84s36.65-63.14,4.31-91.25C301.27,22,325.5,7.18,336.6,2a15.65,15.65,0,0,1,10.83-.9c7.92,2.25,20.37,8.81,15.08,27.47-7.55,26.64,17.25,29.1,17.25,29.1s49.05,3.95,67.38-16.77c10.56-11.94,6.62-20.77,1.39-26.1a15.56,15.56,0,0,0-19.35-2.19c-7.6,5.05-12.82,16.75,9.34,43.58,0,0,2.7,3.95,18.33,9.37s46.36,12.82,34.5,46.86c-8.11,23.28-32.12,36.18-46.47,42-8.35,3.39-18.29-.83-20.23-9-.8-3.36-.14-6.87,3.63-9.83,11.32-8.88,32.88-3.45,37.19,23.68s2.16,32.8-27,52.41" style="fill:none;stroke:#333;stroke-miterlimit:10;stroke-width:1.03127686709653px;stroke-dasharray:6.187661170959473"/><polygon points="455.8 118.53 472.51 134.16 500 122.84 481.67 123.92 493.53 106.13 477.9 115.83 482.21 99.66 466.58 111.52 471.43 91.58 455.8 118.53" style="fill:#f8d46d"/><path d="M397.68,225a14.64,14.64,0,0,1,2.19-7.92c2.36-3.37,3.37-3.71,3.71-9.43s5.39-12.8,13.65-12.8S430,200,430.53,205.1s.17,7.58,3.54,8.76,7.92,4.21,8.09,13.31" style="fill:#feffff;stroke:#000;stroke-miterlimit:10;stroke-width:0.8589698406515468px"/><path d="M409.16,221.53l.06-12.64s4.86-11.06,13.52-3.1c0,0,2.4,3,1.52,16.8C424.26,222.6,416.36,230.81,409.16,221.53Z" style="fill:#fff1b8"/><path d="M398.48,274.8a22.23,22.23,0,0,1,2.91.72c5,1.9,19.25,6.22,36.9-1.68l1.34,60.82s-1.86,10.61-3.37,8.26-12.47-48.86-16.68-55.26-1.85.17-1.85.17l-.51,46.67s-1.68,14.34-5.73,2.55l-5-20-4.42-19.71Z" style="fill:#ddd"/><path d="M431.84,243.47l6.06,5.69s-1.69,2-3.79,4.93c-1.44,2-3.35,4.24-3.92,7.83-1.39,8.84,3.92,6.95,4.68,6.95.38,0,.95-1.64,1.42-3.29s.85-3.29.85-3.29,1.9-3.66,9.22-7.33,6.32-5.56,6.32-5.56-.51-6.32-6.57-15.92-8.34-8.21-12-10.23-7.2,1.52-13.39,3.41a13.4,13.4,0,0,1-12.64-2.4c-2.15-1.64-3.79-.63-3.79-.63s-7.33,5.31-10.61,6.95-7.33-2.91-7.33-2.91a83.05,83.05,0,0,0-5.94-10.49c-3-4.3-3-1.52-3.29-.51s.63,12.38.63,12.38.51,9.35,7.71,11a54.34,54.34,0,0,0,13.65,1.26l-1.64,9.6,1,23.88s19.58,8.21,39.17-.38" style="fill:#b3cef4"/><path d="M438,274l1.52,59s-1.35,15.92-4.72,7.67-10.94-53.15-20-58.71" style="fill:none;stroke:#000;stroke-miterlimit:10;stroke-width:1.010819611982966px"/><path d="M408.68,221.74V210.81a7.52,7.52,0,0,1,7.52-7.52h0a7.52,7.52,0,0,1,7.52,7.52v10.8" style="fill:none;stroke:#000;stroke-miterlimit:10;stroke-width:1.010819611982966px"/><path d="M411.83,216.39a2.66,2.66,0,0,0,4.21,0" style="fill:#feffff;stroke:#000;stroke-miterlimit:10;stroke-width:0.8589698406515468px"/><path d="M417.4,287s0,25.94-.51,44.31-5.22,6.57-5.22,6.57-5.05-17-11.62-52.56,1.68-55.93,1.68-55.93" style="fill:none;stroke:#000;stroke-miterlimit:10;stroke-width:1.010819611982966px"/><path d="M400.55,275.52S419.76,282.6,438,274l-1.69-8.23" style="fill:none;stroke:#000;stroke-miterlimit:10;stroke-width:1.010819611982966px"/><path d="M435.26,284.79s-5.39-2-5.39-4.55" style="fill:none;stroke:#000;stroke-miterlimit:10;stroke-width:1.010819611982966px"/><path d="M396.33,240.82s-15.67,1.52-17.44-8.09-4.3-27.8,3.79-11.88,11.37,9.86,22.24,2" style="fill:none;stroke:#000;stroke-miterlimit:10;stroke-width:1.010819611982966px"/><path d="M406.95,223.48s7.78,7.44,21,.34S457,248.51,451.6,251.89s-14.55,6.43-15.22,12.85-6.09,5.75-6.09.34,6.43-15.9,7.78-15.9S432,243.1,432,243.1l1.69,11.84" style="fill:none;stroke:#000;stroke-miterlimit:10;stroke-width:1.010819611982966px"/><path d="M416,200.55s-1.23,7.09,7.71,7.83l3.41-.11" style="fill:#feffff;stroke:#000;stroke-miterlimit:10;stroke-width:1.0080172799720881px"/><path d="M303.07,204.26l.07-13.48s5.19-11.79,14.42-3.3c0,0,2.56,3.17,1.62,17.92C319.17,205.4,310.75,214.16,303.07,204.26Z" style="fill:#fff1b8"/><path d="M287.77,256.82s15.09,8.36,42.58,1.08l-3.19,29.87L323.42,319l-4,21.05s-1.91-2.35-3.24-18.33-3-21-3-21l-3.65-29.38a280,280,0,0,0-13.1,49.86c-4.31,27-6.74,21.56-6.74,21.56S284,329.52,287.77,256.82Z" style="fill:#d1d1d1"/><path d="M324.09,205.47l16.37,14.76,19.74-8.76,6.08-3.4s4.57-1.92,1.27,3.94a53.2,53.2,0,0,1-9.17,8.28l-13.8,10.93-16,.27Z" style="fill:#b3cef4"/><path d="M302.93,205.54l-7.43.79-5.21,2.16-3.41,2.7-8.45,20.66,3.76,7.85,5.21,6.11.37,11s7.19,5.21,21.56,4.49,21-3.41,21-3.41l.72-19.41L329,220.36l-4.94-14.58-4.49-.54S314.25,213.45,302.93,205.54Z" style="fill:#b3cef4"/><path d="M302.68,205.07s8.8,8.8,16.71.18l4.67.36,15.81,14.19" style="fill:none;stroke:#000;stroke-miterlimit:10;stroke-width:1.0780871060196813px"/><path d="M338.62,220.88l21.56-9.16s9.42-6.59,8.62-2.34c-1.08,5.75-24.26,21.92-24.26,21.92l-14-.18" style="fill:none;stroke:#000;stroke-miterlimit:10;stroke-width:1.0780871060196813px"/><path d="M326.58,212.26s6.65,16.43,3.79,45.64c0,0-8.69,85.49-11,82.14-3-4.31-9.44-68.48-9.44-68.48" style="fill:none;stroke:#000;stroke-miterlimit:10;stroke-width:1.0780871060196813px"/><path d="M327.84,258.25s-20.48,7.55-39.89-1.62l-.36-9.16" style="fill:none;stroke:#000;stroke-miterlimit:10;stroke-width:1.0780871060196813px"/><path d="M287.23,258.25l.18,74.21s1.26,17.07,4.85,8.27,10.78-66.48,20.48-72.41" style="fill:none;stroke:#000;stroke-miterlimit:10;stroke-width:1.0780871060196813px"/><path d="M290.82,271.37s5.75-2.16,5.75-4.85" style="fill:none;stroke:#000;stroke-miterlimit:10;stroke-width:1.0780871060196813px"/><path d="M319.17,204.12V192.47a8,8,0,0,0-8-8h0a8,8,0,0,0-8,8V204" style="fill:none;stroke:#000;stroke-miterlimit:10;stroke-width:1.0780871060196813px"/><path d="M298.28,226.45c-.9.81-9.43,5.75-9.43,5.75s2.33,7.49,4.84,15c.17.51,3.06,6.48-.81,4.71a1.56,1.56,0,0,1-.63-.51c-.41-.58-14-14.74-13.56-19.51S287,211.09,287,211.09s4.31-5.57,13.39-5.21" style="fill:none;stroke:#000;stroke-miterlimit:10;stroke-width:1.0780871060196813px"/><path d="M309.94,200.13s2.7,2.43,5.12,0" style="fill:none;stroke:#000;stroke-miterlimit:10;stroke-width:1.0780871060196813px"/><path d="M125.95,214l.07-13.48s5.19-11.79,14.42-3.3c0,0,2.56,3.17,1.62,17.92C142.05,215.11,133.63,223.87,125.95,214Z" style="fill:#fff1b8"/><path d="M110.65,266.52s15.09,8.36,42.58,1.08l-5.12,30.93-3.64,16.78-5,20.75s-4.85,12.94-5.66-1.62-1.35-50.67-1.35-50.67l2.16-5.12s-11.05,15.63-15.36,42.58-7.82,21.56-7.82,21.56S106.88,339.22,110.65,266.52Z" style="fill:#d1d1d1"/><polyline points="159.69 226.72 160.89 235.99 158.38 245.82 153.95 255.06 151.42 241.18 146.97 215.18 154.97 219.79" style="fill:#b3cef4"/><path d="M125.81,215.24l-7.43.79-5.21,2.16-3.41,2.7-8.45,20.66,4.49,7.73,4.72,3.77.13,13.48s7.19,5.21,21.56,4.49,21-3.41,21-3.41l.54-2.66.18-9.87v-6.87l-2.07-18.13-4.94-14.58-4.49-.54S137.13,223.15,125.81,215.24Z" style="fill:#b3cef4"/><path d="M125.56,214.77s8.8,8.8,16.71.18l4.67.36s26,6.45,7,39.75" style="fill:none;stroke:#000;stroke-miterlimit:10;stroke-width:1.0780871060196813px"/><path d="M153.42,240.82" style="fill:none;stroke:#000;stroke-miterlimit:10;stroke-width:1.0780871060196813px"/><path d="M161.5,230.58" style="fill:none;stroke:#000;stroke-miterlimit:10;stroke-width:1.0780871060196813px"/><path d="M149.46,222s8.8,21.74,1.8,59.65-12.4,56.06-12.4,56.06-5,12.58-5.57-7-.54-47.26-.54-47.26" style="fill:none;stroke:#000;stroke-miterlimit:10;stroke-width:1.0780871060196813px"/><path d="M150.72,268s-20.48,7.55-39.89-1.62l-.36-12.4" style="fill:none;stroke:#000;stroke-miterlimit:10;stroke-width:1.0780871060196813px"/><path d="M110.11,268l-.9,64.51s1.26,17.07,4.85,8.27,11.86-56.78,21.56-62.71" style="fill:none;stroke:#000;stroke-miterlimit:10;stroke-width:1.0780871060196813px"/><path d="M113.71,281.07s5.75-2.16,5.75-4.85" style="fill:none;stroke:#000;stroke-miterlimit:10;stroke-width:1.0780871060196813px"/><path d="M142.05,213.83V202.17a8,8,0,0,0-8-8h0a8,8,0,0,0-8,8v11.52" style="fill:none;stroke:#000;stroke-miterlimit:10;stroke-width:1.0780871060196813px"/><path d="M124.56,200.72s-3.53-7.54.33-8.71,5.21-4.36,6.66-8.1,11.22-3.12,13.24,2.73.75,8.91-.18,11.57" style="fill:none;stroke:#000;stroke-miterlimit:10;stroke-width:1.0780871060196813px"/><ellipse cx="134.64" cy="201.38" rx="2.7" ry="4.22" style="fill:#feffff;stroke:#472b0a;stroke-miterlimit:10;stroke-width:1.0780871060196813px"/><ellipse cx="141.83" cy="201.21" rx="2.29" ry="3.59" style="fill:#feffff;stroke:#472b0a;stroke-miterlimit:10;stroke-width:0.9161321156497495px"/><path d="M137.33,201.38s1.17-1.07,2.2-.17" style="fill:#feffff;stroke:#472b0a;stroke-miterlimit:10;stroke-width:0.9161321156497495px"/><line x1="131.94" y1="201.38" x2="126.1" y2="201.12" style="fill:#feffff;stroke:#472b0a;stroke-miterlimit:10;stroke-width:0.9161321156497495px"/><path d="M121.16,236.15c-.9.81-9.43,5.75-9.43,5.75l4.85,14.73s3.14-.27,2.61.9a2.22,2.22,0,0,1-1,1,.91.91,0,0,0-.37,1.28c.84,1.37,1.8,3.6-2.07,1.83a1.56,1.56,0,0,1-.63-.51,3.73,3.73,0,0,1-.62-3.24c.63-2-13.39-11.5-12.94-16.26s8.27-20.84,8.27-20.84,4.31-5.57,13.39-5.21" style="fill:none;stroke:#000;stroke-miterlimit:10;stroke-width:1.0780871060196813px"/><path d="M154.29,254.64s-5.64,1.88-4.42,2.47,1.28.85,1.28.85l-3,1.74a.76.76,0,0,0-.27,1.06c.9,1.47,2.08,3,3.81,1.68l2.26-1.64" style="fill:none;stroke:#000;stroke-miterlimit:10;stroke-width:1.0780871060196813px"/><path d="M204.93,268s-20.68-13.48-20.88-35.76a14.51,14.51,0,0,1,8.84-13.7l.87-.32c7.16-2.4,6.45-8.06,9.13-19.23,6.53-27.18,30-12.87,31.39-4.88,1.75,10,2.51,17.1,3.71,20.95s.28,10.77-5.85,15.65S204.93,268,204.93,268Z" style="fill:none;stroke:#000;stroke-miterlimit:10;stroke-width:1.0780871060196813px"/><path d="M211.82,211.08l.07-13.72s5.28-12,14.68-3.36c0,0,2.61,3.22,1.65,18.25C228.21,212.25,219.64,221.16,211.82,211.08Z" style="fill:#fff1b8"/><path d="M200.23,268.93a24.14,24.14,0,0,1,3.16.78c5.41,2.06,20.9,6.76,40.07-1.83l1.46,66s-2,11.52-3.66,9-13.54-53-18.11-60-2,.18-2,.18l-.55,50.67s-1.83,15.57-6.22,2.77l-5.42-21.75-4.8-21.4Z" style="fill:#ddd"/><path d="M200.91,232.57,199.13,243l1.1,25.93s21.27,8.92,42.53-.41" style="fill:#b3cef4"/><path d="M236.45,234.91l6.59,6.17s-1.83,2.12-4.12,5.35c-1.56,2.21-3.64,4.61-4.25,8.51-1.51,9.6,4.25,7.55,5.08,7.55.41,0,1-1.78,1.54-3.57s.93-3.57.93-3.57,2.06-4,10-8,6.86-6,6.86-6-.55-6.86-7.13-17.29-9.05-8.92-13-11.11-7.82,1.65-14.54,3.7a14.55,14.55,0,0,1-13.72-2.61c-2.33-1.78-4.12-.69-4.12-.69a57.23,57.23,0,0,1-6.66,4l-5.2,5.51-3.4,6.68s-.47,6.39-.94,6.69,1.17,6.77,1.17,6.77,2.25,5.38,2.39,5.65,3.33,5.32,3.33,5.32l1.93,3.2,5.92,13.36,38-2.46-7.17-36" style="fill:#b3cef4"/><path d="M243.08,268.06l1.65,64s-1.47,17.29-5.13,8.32-11.88-57.71-21.76-63.75" style="fill:none;stroke:#000;stroke-miterlimit:10;stroke-width:1.0975648568118044px"/><path d="M211.3,211.31V199.44a8.16,8.16,0,0,1,8.16-8.16h0a8.16,8.16,0,0,1,8.16,8.16v11.73" style="fill:none;stroke:#000;stroke-miterlimit:10;stroke-width:1.0975648568118044px"/><path d="M214.72,205.5s2,2.56,4.57,0" style="fill:#feffff;stroke:#000;stroke-miterlimit:10;stroke-width:0.9326838329846913px"/><path d="M220.77,282.15s0,28.17-.55,48.11-5.67,7.13-5.67,7.13-5.49-18.48-12.62-57.07,1.83-60.73,1.83-60.73" style="fill:none;stroke:#000;stroke-miterlimit:10;stroke-width:1.0975648568118044px"/><path d="M202.47,269.71s20.85,7.68,40.61-1.65l-1.84-8.94" style="fill:none;stroke:#000;stroke-miterlimit:10;stroke-width:1.0975648568118044px"/><path d="M240.16,279.77s-5.85-2.2-5.85-4.94" style="fill:none;stroke:#000;stroke-miterlimit:10;stroke-width:1.0975648568118044px"/><path d="M207.22,212.54" style="fill:none;stroke:#000;stroke-miterlimit:10;stroke-width:1.0975648568118044px"/><path d="M209.42,213.2s8.45,8.08,22.77.37,31.59,26.81,25.71,30.49-15.79,7-16.53,14-6.61,6.24-6.61.37,7-17.26,8.45-17.26-6.61-6.61-6.61-6.61l1.83,12.86" style="fill:none;stroke:#000;stroke-miterlimit:10;stroke-width:1.0975648568118044px"/><path d="M228.73,201.51c-3,.62-11.83,1.25-14-4.57,0,0-1.08,2.05-5.38,2.48" style="fill:none;stroke:#000;stroke-miterlimit:10;stroke-width:1.0498570271693077px"/><path d="M199.26,256.62c-24-29.65,8-44.08,8-44.08" style="fill:none;stroke:#000;stroke-miterlimit:10;stroke-width:1.1706050279612965px"/><path d="M202.47,215.35" style="fill:#b3cef4"/><line x1="240.93" y1="161.07" x2="233.5" y2="173.54" style="fill:#fff;stroke:#000;stroke-miterlimit:10;stroke-width:1.0780871060196813px"/><line x1="220.49" y1="162.04" x2="220.55" y2="177.74" style="fill:#fff;stroke:#000;stroke-miterlimit:10;stroke-width:1.0780871060196813px"/><line x1="203.4" y1="165.07" x2="210.7" y2="174.96" style="fill:#fff;stroke:#000;stroke-miterlimit:10;stroke-width:1.0780871060196813px"/><polygon points="116.58 48.18 99.87 63.82 72.38 52.5 90.71 53.58 78.85 35.79 94.48 45.49 90.17 29.32 105.8 41.18 100.95 21.23 116.58 48.18" style="fill:#f8d46d"/><rect x="270.42" y="73.99" width="32.1" height="50.52" rx="1.38" ry="1.38" transform="translate(154.09 -173.5) rotate(45)" style="fill:none;stroke:#333;stroke-miterlimit:10;stroke-width:0.7893766927899937px"/><rect x="275.22" y="79.24" width="25.13" height="37.4" rx="1.38" ry="1.38" transform="translate(153.54 -174.81) rotate(45)" style="fill:#eaeefe"/><rect x="263.04" y="112.99" width="16.63" height="2.76" rx="1.38" ry="1.38" transform="translate(160.35 -158.38) rotate(45)" style="fill:none;stroke:#333;stroke-miterlimit:10;stroke-width:0.7893766927899937px"/><circle cx="141.54" cy="114.37" r="15.72" style="fill:#f8d46d"/><path d="M143.24,123.14l-.66-1.21,2.49-1.36-6.51-11.88-2.07,2.45-.71-1.29,3.3-3.66,7.44,13.58,2.47-1.35.66,1.21Z"/><circle cx="40.64" cy="91.58" r="4.4" style="fill:none;stroke:#c9dc4e;stroke-miterlimit:10;stroke-width:2.1561742120393625px"/><circle cx="385.46" cy="123.14" r="9.7" style="fill:none;stroke:#c9dc4e;stroke-miterlimit:10;stroke-width:2.1561742120393625px"/><circle cx="227.63" cy="95.98" r="2.19" style="fill:none;stroke:#cb3727;stroke-miterlimit:10;stroke-width:2.1561742120393625px"/><circle cx="61.22" cy="262.3" r="3.23" style="fill:none;stroke:#cb3727;stroke-miterlimit:10;stroke-width:2.1561742120393625px"/><circle cx="477.9" cy="269.36" r="3.23" style="fill:none;stroke:#cb3727;stroke-miterlimit:10;stroke-width:2.1561742120393625px"/><rect x="10.87" y="154.83" width="68.35" height="78.56" rx="1.23" ry="1.23" transform="matrix(0.94, -0.34, 0.34, 0.94, -62.6, 26.42)" style="fill:#f4f4f4"/><rect x="16.06" y="199.11" width="33.75" height="0.99" rx="0.49" ry="0.49" transform="translate(-65.15 22.67) rotate(-19.63)" style="fill:#b3cef4"/><rect x="20.08" y="209.82" width="40.03" height="0.99" rx="0.49" ry="0.49" transform="translate(-68.33 25.7) rotate(-19.63)" style="fill:#b3cef4"/><rect x="13.25" y="183.42" width="38.71" height="7.79" rx="1.34" ry="1.34" transform="translate(-61.04 21.85) rotate(-19.63)" style="fill:#b3cef4"/><rect x="8.04" y="172.02" width="40.79" height="0.99" rx="0.49" ry="0.49" transform="matrix(0.94, -0.34, 0.34, 0.94, -56.31, 19.58)" style="fill:#b3cef4"/><rect x="5.73" y="164.88" width="48.36" height="0.99" rx="0.49" ry="0.49" transform="translate(-53.83 19.66) rotate(-19.63)" style="fill:#b3cef4"/><rect x="9.78" y="175.86" width="52.84" height="0.99" rx="0.49" ry="0.49" transform="translate(-57.15 22.42) rotate(-19.63)" style="fill:#b3cef4"/><rect x="18.16" y="204.99" width="33.75" height="0.99" rx="0.49" ry="0.49" transform="translate(-67 23.72) rotate(-19.63)" style="fill:#b3cef4"/><rect x="21.84" y="213.79" width="51.41" height="0.99" rx="0.49" ry="0.49" transform="translate(-69.23 28.43) rotate(-19.63)" style="fill:#b3cef4"/><rect x="25.76" y="223.95" width="60.96" height="0.99" rx="0.49" ry="0.49" transform="translate(-72.14 31.95) rotate(-19.63)" style="fill:#b3cef4"/><rect x="23.94" y="219.67" width="51.41" height="0.99" rx="0.49" ry="0.49" transform="matrix(0.94, -0.34, 0.34, 0.94, -71.09, 29.48)" style="fill:#b3cef4"/><path d="M329.75,265.45l-.66-1.21,2.49-1.36L325.07,251,323,253.45l-.71-1.29,3.3-3.66L333,262.07l2.47-1.35.66,1.21Z"/><path d="M373.05,61.89l9.75,2.52a1.82,1.82,0,0,0,2-2.63l-4.39-9.68,4.89-8.94a1.83,1.83,0,0,0-1.81-2.75l-9.84,1.13L367,33.41a1.63,1.63,0,0,0-3,.8L362.29,44.4l-9,4.15a1.89,1.89,0,0,0-.18,3.29l8.72,5.27,1.07,10.57a1.83,1.83,0,0,0,3,1.28Z" style="fill:#f8d46d"/><path d="M368.67,166.14l.65-1.62c.22-.43.86-.43,1,0l.65,1.62a5.11,5.11,0,0,0,2.8,2.8l1.62.65c.43.22.43.86,0,1l-1.72.54a5.11,5.11,0,0,0-2.8,2.8l-.65,1.62c-.22.43-.86.43-1,0l-.65-1.62a5.11,5.11,0,0,0-2.8-2.8l-1.62-.65c-.43-.22-.43-.86,0-1l1.62-.65A4.81,4.81,0,0,0,368.67,166.14Z" style="fill:#f8d46d"/><path d="M70,159.69l5,4.51a1.22,1.22,0,0,0,2-1l.39-7.1,5.67-3.8a1.23,1.23,0,0,0-.22-2.19l-6.19-2.38-1.43-6.87a1.09,1.09,0,0,0-2-.45L69,146l-6.64-.33a1.26,1.26,0,0,0-1.13,1.9l3.54,5.83L62.19,160a1.23,1.23,0,0,0,1.39,1.7Z" style="fill:#f8d46d"/><path d="M178.7,80.66l7.77,5.16a1.68,1.68,0,0,0,2.51-1.7l-.9-9.8,7-6.34a1.7,1.7,0,0,0-.75-3l-8.95-2L182,53.92a1.51,1.51,0,0,0-2.86-.2l-4.58,8.38-9.15.89a1.75,1.75,0,0,0-1.16,2.82l6,7.26L168,82.63a1.7,1.7,0,0,0,2.25,2Z" style="fill:#f8d46d"/><path d="M258,34.64l.65-1.62c.22-.43.86-.43,1,0l.65,1.62a5.11,5.11,0,0,0,2.8,2.8l1.62.65c.43.22.43.86,0,1L263,39.6a5.11,5.11,0,0,0-2.8,2.8L259.51,44c-.22.43-.86.43-1,0l-.65-1.62a5.11,5.11,0,0,0-2.8-2.8L253.48,39c-.43-.22-.43-.86,0-1l1.62-.65A4.81,4.81,0,0,0,258,34.64Z" style="fill:#f8d46d"/></g></g></svg>