<svg xmlns="http://www.w3.org/2000/svg" xmlns:xlink="http://www.w3.org/1999/xlink" viewBox="0 0 497.2 469.6"><defs><clipPath id="clip-path"><rect x="13.23" y="225.52" width="174.02" height="114.05" transform="translate(199.16 565.56) rotate(-179.73)" style="fill:none"/></clipPath><clipPath id="clip-path-2"><rect x="310.33" y="76.38" width="174.02" height="114.05" transform="translate(794.68 266.81) rotate(-180)" style="fill:none"/></clipPath><clipPath id="clip-path-3"><rect x="123.44" y="298.13" width="56.95" height="37.33" transform="translate(302.36 634.3) rotate(-179.73)" style="fill:none"/></clipPath><clipPath id="clip-path-4"><rect x="419.41" y="147.4" width="56.82" height="37.24" transform="translate(895.63 332.04) rotate(-180)" style="fill:none"/></clipPath></defs><title>4</title><g id="Layer_2" data-name="Layer 2"><g id="video_call" data-name="video call"><rect x="0.05" y="344.62" width="199.71" height="20.41" transform="translate(198.15 710.11) rotate(-179.73)" style="fill:#d8d8d8"/><path d="M.38,213.81H200.1a0,0,0,0,1,0,0V346.76a4.53,4.53,0,0,1-4.53,4.53H4.91a4.53,4.53,0,0,1-4.53-4.53V213.81a0,0,0,0,1,0,0Z" transform="translate(199.16 565.56) rotate(-179.73)"/><rect x="13.23" y="225.52" width="174.02" height="114.05" transform="translate(199.16 565.56) rotate(-179.73)" style="fill:#fff"/><g style="clip-path:url(#clip-path)"><path d="M108,282.58c21.26,3.15,26.7,20.27,25.62,35-1,14.35-2.3,19.44-2.3,19.44l-4.51,8.89-3.58,1.8-1.85-.4s-61.24,16.34-62.63,13.59S68,313.59,68,313.59l15.52-19.28Z" style="fill:#b3cef4"/><path d="M121.43,285s.3-7.09-3.36-12.37-5.23-5.81-5.71-14.74-8.32-20-21.19-20.07-20,8.05-20.83,15.93-.32,11.82-5.58,13.64S52.37,273.9,52,288.09" style="fill:#feffff;stroke:#000;stroke-miterlimit:10;stroke-width:1.3398613012105318px"/><path d="M103.56,279.52V259.81S96,242.53,82.48,254.89c0,0-3.77,4.61-2.49,26.2C80,281.09,92.25,294,103.56,279.52Z" style="fill:#fff1b8"/><path d="M119.82,362.71a34.68,34.68,0,0,0-4.54,1.1c-7.78,2.93-30.08,9.57-57.55-2.9L55.2,455.76s2.82,16.57,5.2,12.9,19.8-76.12,26.42-86.07,2.89.28,2.89.28l.45,72.79s2.52,22.38,8.92,4l7.93-31.2,7-30.71Z" style="fill:#ddd"/><path d="M119.08,310.47l2.49,15-1.75,37.24s-30.61,12.67-61.09-.88" style="fill:#b3cef4"/><path d="M68,313.59l-9.5,8.82s2.62,3.05,5.88,7.71c2.22,3.18,5.2,6.64,6.05,12.25,2.1,13.81-6.16,10.81-7.34,10.81-.59,0-1.47-2.57-2.19-5.13s-1.31-5.13-1.31-5.13-2.93-5.73-14.33-11.5-9.81-8.72-9.81-8.72.83-9.85,10.36-24.79S58.89,285.16,64.62,282s11.22,2.42,20.87,5.42a20.9,20.9,0,0,0,19.73-3.65c3.36-2.55,17.23,3.58,17.23,3.58" style="fill:#b3cef4"/><path d="M58.26,361.17l-2.79,92s2,24.84,7.31,12,17.46-82.83,31.69-91.43" style="fill:none;stroke:#000;stroke-miterlimit:10;stroke-width:1.576723671198181px"/><path d="M104.3,279.85l.08-17A11.73,11.73,0,0,0,92.71,251h0A11.73,11.73,0,0,0,80.93,262.7l-.08,16.85" style="fill:none;stroke:#000;stroke-miterlimit:10;stroke-width:1.576723671198181px"/><path d="M99.42,271.49s-2.91,3.67-6.57,0" style="fill:none;stroke:#000;stroke-miterlimit:10;stroke-width:1.3398613012105318px"/><path d="M90.23,381.55S90,422,90.69,450.67,98.79,461,98.79,461s8-26.5,18.51-81.9-2.22-87.26-2.22-87.26" style="fill:none;stroke:#000;stroke-miterlimit:10;stroke-width:1.576723671198181px"/><path d="M116.59,363.81s-30,10.9-58.33-2.64L61,348.34" style="fill:none;stroke:#000;stroke-miterlimit:10;stroke-width:1.576723671198181px"/><path d="M62.39,378s8.42-3.11,8.44-7.06" style="fill:none;stroke:#000;stroke-miterlimit:10;stroke-width:1.576723671198181px"/><path d="M110.15,281.66" style="fill:none;stroke:#000;stroke-miterlimit:10;stroke-width:1.576723671198181px"/><path d="M123.42,309.7" style="fill:none;stroke:#000;stroke-miterlimit:10;stroke-width:1.576723671198181px"/><path d="M93.1,246.76S95,257.83,81,258.92l-5.32-.19" style="fill:#feffff;stroke:#000;stroke-miterlimit:10;stroke-width:1.572352462761252px"/><path d="M65.08,331.46,67.8,313s-11.65,9.44-9.54,9.45,12.06,16.41,12,24.86-8.49,9.46-9.5-.57S45.55,331.9,37.13,326.58,53.75,271.78,74.27,283s32.72-.38,32.72-.38S145.29,281,130.31,337c0,0-10.77,27.9-8.87-3.63" style="fill:none;stroke:#000;stroke-miterlimit:10;stroke-width:1.576723671198181px"/></g><rect x="297.48" y="195.48" width="199.71" height="20.41" transform="translate(794.68 411.36) rotate(-180)" style="fill:#d8d8d8"/><path d="M297.48,64.66H497.2a0,0,0,0,1,0,0V197.61a4.53,4.53,0,0,1-4.53,4.53H302a4.53,4.53,0,0,1-4.53-4.53V64.66A0,0,0,0,1,297.48,64.66Z" transform="translate(794.68 266.81) rotate(-180)"/><rect x="310.33" y="76.38" width="174.02" height="114.05" transform="translate(794.68 266.81) rotate(-180)" style="fill:#fff"/><g style="clip-path:url(#clip-path-2)"><path d="M420.54,136.1l-.1-19s-7.32-16.64-20.35-4.66c0,0-3.61,4.47-2.28,25.29C397.82,137.72,409.7,150.08,420.54,136.1Z" style="fill:#fff1b8"/><path d="M442.13,210.27s-21.3,11.79-60.09,1.52l7.23,43.64,5.13,23.67,7,29.28s6.85,18.26,8-2.28,1.9-71.5,1.9-71.5l-3-7.23s15.59,22.06,21.68,60.09,11,30.43,11,30.43S447.45,312.86,442.13,210.27Z" style="fill:#d1d1d1"/><path d="M390.88,137.82l-23.1,20.82-27.86-12.36s1.52-7.51-2.95-7.8c0,0-1.43.38-.86,2.66s-5.8-1.33-5.8-1.33-5.42-1-.76,7.23c0,0,4,4.28,9.7,3.8L362,174.14l22.63.38Z" style="fill:#b3cef4"/><path d="M420.73,137.91,431.22,139l7.35,3,4.82,3.8L455.31,175,449,185.93l-6.66,5.32-.19,19S432,217.62,411.7,216.6,382,211.79,382,211.79l-1-27.38,2.92-25.58,7-20.57,6.34-.76S404.76,149.07,420.73,137.91Z" style="fill:#b3cef4"/><path d="M421.08,137.24s-12.42,12.42-23.58.25l-6.59.51L368.6,158" style="fill:none;stroke:#000;stroke-miterlimit:10;stroke-width:1.5212662091482585px"/><path d="M370.37,159.56l-30.43-12.93s2-6.34-2-7.86c-2.45-.92-2.4.85-2,2.39a.67.67,0,0,1-1,.74c-2.89-1.83-8.27-4.56-7.15,1.43,1.52,8.11,11.41,7.61,11.41,7.61L362,174.26l19.78-.25" style="fill:none;stroke:#000;stroke-miterlimit:10;stroke-width:1.5212662091482585px"/><path d="M387.36,147.39s-12.42,30.68-2.54,84.18,17.49,79.11,17.49,79.11,7.1,17.75,7.86-9.89.76-66.68.76-66.68" style="fill:none;stroke:#000;stroke-miterlimit:10;stroke-width:1.5212662091482585px"/><path d="M385.59,212.29s28.9,10.65,56.29-2.28l.51-17.49" style="fill:none;stroke:#000;stroke-miterlimit:10;stroke-width:1.5212662091482585px"/><path d="M442.89,212.29l1.27,91s-1.77,24.09-6.85,11.66-16.73-80.12-30.43-88.49" style="fill:none;stroke:#000;stroke-miterlimit:10;stroke-width:1.5212662091482585px"/><path d="M437.82,230.8s-8.11-3-8.11-6.85" style="fill:none;stroke:#000;stroke-miterlimit:10;stroke-width:1.5212662091482585px"/><path d="M397.82,135.91V119.46a11.31,11.31,0,0,1,11.31-11.31h0a11.31,11.31,0,0,1,11.31,11.31v16.26" style="fill:none;stroke:#000;stroke-miterlimit:10;stroke-width:1.5212662091482585px"/><path d="M422.49,117.42s5-10.64-.46-12.29-7.36-6.15-9.4-11.43S396.8,89.3,394,97.56s-1.05,12.57.26,16.32" style="fill:none;stroke:#000;stroke-miterlimit:10;stroke-width:1.5212662091482585px"/><ellipse cx="408.28" cy="118.36" rx="3.8" ry="5.96" style="fill:#feffff;stroke:#472b0a;stroke-miterlimit:10;stroke-width:1.5212662091482585px"/><ellipse cx="398.14" cy="118.11" rx="3.23" ry="5.06" style="fill:#feffff;stroke:#472b0a;stroke-miterlimit:10;stroke-width:1.2927349032110844px"/><path d="M404.47,118.36s-1.65-1.51-3.11-.25" style="fill:#feffff;stroke:#472b0a;stroke-miterlimit:10;stroke-width:1.2927349032110844px"/><line x1="412.08" y1="118.36" x2="420.32" y2="117.98" style="fill:#feffff;stroke:#472b0a;stroke-miterlimit:10;stroke-width:1.2927349032110844px"/><path d="M427.29,167.42c1.27,1.14,13.31,8.11,13.31,8.11l-6.85,20.79s-4.44-.38-3.68,1.27a3.13,3.13,0,0,0,1.38,1.42,1.29,1.29,0,0,1,.52,1.8c-1.18,1.94-2.54,5.07,2.92,2.59a2.21,2.21,0,0,0,.89-.73,5.27,5.27,0,0,0,.88-4.58c-.89-2.79,18.89-16.23,18.26-22.95s-11.66-29.41-11.66-29.41-6.09-7.86-18.89-7.35" style="fill:none;stroke:#000;stroke-miterlimit:10;stroke-width:1.5212662091482585px"/></g><polygon points="238.61 3.04 246.32 52.99 265.95 50.01 283.48 64.66 283.48 50.01 292.59 49.31 304.51 0 238.61 3.04" style="fill:#b3cef4"/><polygon points="212.28 252.94 223.33 242.13 217.49 226.92 271.46 226.11 266.47 266.85 230.72 267.39 229.08 251.29 212.28 252.94" style="fill:#b3cef4"/><polygon points="248.25 11.3 253.51 13.14 254.56 25.76 261.13 25.76 259.56 15.51 264.81 15.51 266.92 37.85 261.92 37.85 260.61 28.65 254.3 28.91 255.88 41.01 251.41 41.01 248.25 11.3" style="fill:#fff"/><path d="M273,15.38v3.15h3.15V14.06Z" style="fill:#fff"/><path d="M273,22.61c.53.13,4.21,0,4.21,0V37.46L273,35.88Z" style="fill:#fff"/><polygon points="283.48 7.75 283.48 25.63 286.37 25.63 289.26 7.75 283.48 7.75" style="fill:#fff"/><polygon points="283.48 31.68 283.48 36.14 286.37 36.14 287.42 31.68 283.48 31.68" style="fill:#fff"/><polygon points="233.94 236.9 237.56 238.1 238.42 246.74 242.92 246.68 241.74 239.66 245.34 239.61 247.01 254.91 243.59 254.96 242.59 248.66 238.27 248.91 239.47 257.18 236.41 257.23 233.94 236.9" style="fill:#fff"/><path d="M250.92,239.44l0,2.16,2.16,0,0-3.06Z" style="fill:#fff"/><path d="M251,244.39c.36.08,2.88,0,2.88,0l.15,10.18-2.9-1Z" style="fill:#fff"/><polygon points="258.05 234.1 258.24 246.35 260.22 246.32 262.02 234.04 258.05 234.1" style="fill:#fff"/><polygon points="258.3 250.5 258.35 253.56 260.33 253.53 261 250.46 258.3 250.5" style="fill:#fff"/><circle cx="94.63" cy="220.36" r="2.45" transform="translate(-4.24 1.87) rotate(-1.11)" style="fill:#fff"/><circle cx="104.48" cy="220.17" r="1.09" transform="translate(-4.23 2.06) rotate(-1.11)" style="fill:#7fff4a"/><circle cx="393.1" cy="70.23" r="2.45" style="fill:#fff"/><circle cx="402.95" cy="70.23" r="1.09" style="fill:#7fff4a"/><rect x="123.44" y="298.13" width="56.95" height="37.33" transform="translate(302.36 634.3) rotate(-179.73)" style="fill:#fff;stroke:#000;stroke-miterlimit:10;stroke-width:1.0514676064685982px"/><g style="clip-path:url(#clip-path-3)"><path d="M164.67,317.74v-6.22S162.3,306.06,158,310c0,0-1.19,1.46-.79,8.27C157.23,318.23,161.1,322.3,164.67,317.74Z" style="fill:#fff1b8"/><path d="M171.62,342s-7,3.83-19.67.41l2.3,14.29,1.64,7.76,2.26,9.59s2.21,6,2.62-.73.73-23.4.73-23.4l-1-2.37s5.07,7.24,7,19.7,3.56,10,3.56,10S173.21,375.62,171.62,342Z" style="fill:#d1d1d1"/><path d="M155,318.25,147.36,325l-9.1-4.09s.51-2.46-1-2.56c0,0-.47.12-.28.87s-1.9-.44-1.9-.44-1.77-.35-.26,2.36a4.25,4.25,0,0,0,3.17,1.26l7.4,7.66,7.41.16Z" style="fill:#b3cef4"/><path d="M164.73,318.33l3.43.38,2.4,1,1.57,1.25,3.86,9.56-2.09,3.56-2.19,1.73-.09,6.22s-3.33,2.39-10,2-9.7-1.62-9.7-1.62l-.29-9,1-8.37L155,318.4l2.08-.24S159.48,322,164.73,318.33Z" style="fill:#b3cef4"/><path d="M164.84,318.11s-4.08,4-7.72,0l-2.16.16-7.33,6.52" style="fill:none;stroke:#000;stroke-miterlimit:10;stroke-width:0.49786760496291865px"/><path d="M148.21,325.34l-9.94-4.28s.67-2.07-.65-2.58c-.8-.3-.79.27-.65.78a.22.22,0,0,1-.33.24c-.94-.6-2.7-1.51-2.34.46.49,2.66,3.72,2.51,3.72,2.51l7.43,7.67,6.47-.05" style="fill:none;stroke:#000;stroke-miterlimit:10;stroke-width:0.49786760496291865px"/><path d="M153.79,321.38s-4.11,10-1,27.54,5.6,25.92,5.6,25.92,2.3,5.82,2.59-3.22.35-21.82.35-21.82" style="fill:none;stroke:#000;stroke-miterlimit:10;stroke-width:0.49786760496291865px"/><path d="M153.11,342.62s9.44,3.53,18.42-.66l.19-5.72" style="fill:none;stroke:#000;stroke-miterlimit:10;stroke-width:0.49786760496291865px"/><path d="M171.86,342.71l.28,29.79s-.62,7.88-2.26,3.81-5.35-26.25-9.82-29" style="fill:none;stroke:#000;stroke-miterlimit:10;stroke-width:0.49786760496291865px"/><path d="M170.18,348.76s-2.65-1-2.64-2.25" style="fill:none;stroke:#000;stroke-miterlimit:10;stroke-width:0.49786760496291865px"/><path d="M157.23,317.64l0-5.38a3.7,3.7,0,0,1,3.72-3.69h0a3.7,3.7,0,0,1,3.69,3.72l0,5.32" style="fill:none;stroke:#000;stroke-miterlimit:10;stroke-width:0.49786760496291865px"/><path d="M165.34,311.63s1.64-3.47-.13-4-2.4-2-3.06-3.75-5.17-1.47-6.12,1.23a6.86,6.86,0,0,0,.06,5.34" style="fill:none;stroke:#000;stroke-miterlimit:10;stroke-width:0.49786760496291865px"/><ellipse cx="160.68" cy="311.91" rx="1.95" ry="1.24" transform="translate(-151.98 471.14) rotate(-89.73)" style="fill:#feffff;stroke:#472b0a;stroke-miterlimit:10;stroke-width:0.49786760496291865px"/><ellipse cx="157.36" cy="311.82" rx="1.66" ry="1.06" transform="translate(-155.18 467.72) rotate(-89.73)" style="fill:#feffff;stroke:#472b0a;stroke-miterlimit:10;stroke-width:0.4230757419334403px"/><path d="M159.44,311.91s-.54-.5-1-.09" style="fill:#feffff;stroke:#472b0a;stroke-miterlimit:10;stroke-width:0.4230757419334403px"/><line x1="161.93" y1="311.92" x2="164.62" y2="311.81" style="fill:#feffff;stroke:#472b0a;stroke-miterlimit:10;stroke-width:0.4230757419334403px"/><path d="M166.83,328c.41.38,4.34,2.68,4.34,2.68l-2.27,6.79s-1.45-.13-1.21.41a1,1,0,0,0,.45.47.42.42,0,0,1,.17.59c-.39.63-.84,1.66,1,.85a.72.72,0,0,0,.29-.24,1.72,1.72,0,0,0,.29-1.5c-.29-.91,6.21-5.28,6-7.48s-3.77-9.64-3.77-9.64a7.56,7.56,0,0,0-6.17-2.44" style="fill:none;stroke:#000;stroke-miterlimit:10;stroke-width:0.49786760496291865px"/></g><rect x="419.41" y="147.4" width="56.82" height="37.24" transform="translate(895.63 332.04) rotate(-180)" style="fill:#fff;stroke:#000;stroke-miterlimit:10;stroke-width:1.0514676064685982px"/><g style="clip-path:url(#clip-path-4)"><path d="M453.8,166c6.95,1,8.75,6.58,8.42,11.39a45.1,45.1,0,0,1-.72,6.35L460,186.67l-1.17.59-.6-.13s-20,5.43-20.43,4.53,2.94-15.47,2.94-15.47l5-6.32Z" style="fill:#b3cef4"/><path d="M458.17,166.78a7.46,7.46,0,0,0-1.12-4c-1.2-1.72-1.72-1.89-1.89-4.8a7.09,7.09,0,0,0-6.95-6.52c-4.2,0-6.52,2.66-6.78,5.23s-.09,3.86-1.8,4.46-4,2.14-4.12,6.78" style="fill:#feffff;stroke:#000;stroke-miterlimit:10;stroke-width:0.43745386582541207px"/><path d="M452.33,165l0-6.43s-2.48-5.63-6.89-1.58c0,0-1.22,1.51-.77,8.56C444.64,165.57,448.66,169.75,452.33,165Z" style="fill:#fff1b8"/><path d="M457.77,192.16a11.32,11.32,0,0,0-1.48.36,24.36,24.36,0,0,1-18.79-.86l-.68,31s.95,5.41,1.72,4.2S444.87,202,447,198.7s.94.09.94.09l.26,23.77s.86,7.3,2.92,1.3l2.54-10.2,2.25-10Z" style="fill:#ddd"/><path d="M457.44,175.11l.84,4.89-.51,12.16s-10,4.18-19.95-.19" style="fill:#b3cef4"/><path d="M440.78,176.2l-3.09,2.9s.86,1,1.93,2.51a8.9,8.9,0,0,1,2,4c.71,4.5-2,3.54-2.38,3.54-.19,0-.48-.84-.72-1.67s-.43-1.67-.43-1.67-1-1.87-4.7-3.73-3.22-2.83-3.22-2.83.26-3.22,3.35-8.11,4.25-4.18,6.11-5.21,3.67.77,6.82,1.74a6.82,6.82,0,0,0,6.43-1.22c1.09-.84,5.63,1.14,5.63,1.14" style="fill:#b3cef4"/><path d="M437.66,191.75l-.77,30s.69,8.11,2.41,3.9,5.57-27.07,10.21-29.9" style="fill:none;stroke:#000;stroke-miterlimit:10;stroke-width:0.5147875117229783px"/><path d="M452.57,165.13v-5.57a3.83,3.83,0,0,0-3.83-3.83h0a3.83,3.83,0,0,0-3.83,3.83v5.5" style="fill:none;stroke:#000;stroke-miterlimit:10;stroke-width:0.5147875117229783px"/><path d="M451,162.41a1.35,1.35,0,0,1-2.14,0" style="fill:none;stroke:#000;stroke-miterlimit:10;stroke-width:0.43745386582541207px"/><path d="M448.13,198.36s0,13.21.26,22.56,2.66,3.35,2.66,3.35,2.57-8.67,5.92-26.77-.86-28.48-.86-28.48" style="fill:none;stroke:#000;stroke-miterlimit:10;stroke-width:0.5147875117229783px"/><path d="M456.71,192.52s-9.78,3.6-19-.77l.86-4.19" style="fill:none;stroke:#000;stroke-miterlimit:10;stroke-width:0.5147875117229783px"/><path d="M439,197.24s2.75-1,2.75-2.32" style="fill:none;stroke:#000;stroke-miterlimit:10;stroke-width:0.5147875117229783px"/><path d="M454.48,165.71" style="fill:none;stroke:#000;stroke-miterlimit:10;stroke-width:0.5147875117229783px"/><path d="M458.86,174.85" style="fill:none;stroke:#000;stroke-miterlimit:10;stroke-width:0.5147875117229783px"/><path d="M448.86,154.34s.63,3.61-3.93,4l-1.74-.05" style="fill:#feffff;stroke:#000;stroke-miterlimit:10;stroke-width:0.513360347562527px"/><path d="M439.85,182l.86-6s-3.79,3.1-3.1,3.1,4,5.34,4,8.1-2.76,3.1-3.1-.17-5-4.82-7.75-6.55,5.34-17.92,12.06-14.3,10.68-.17,10.68-.17,12.5-.57,7.7,17.74c0,0-3.47,9.13-2.9-1.17" style="fill:none;stroke:#000;stroke-miterlimit:10;stroke-width:0.5147875117229783px"/></g></g></g></svg>