<svg xmlns="http://www.w3.org/2000/svg" viewBox="0 0 369.34 342.49"><title>5</title><g id="Layer_2" data-name="Layer 2"><g id="gamification"><rect x="57.08" width="270.76" height="210.63" style="fill:#f4f4f4"/><rect x="72.6" y="51.28" width="160.07" height="16.22" rx="3.93" ry="3.93" style="fill:#b3cef4"/><rect x="72.6" y="26.42" width="168.64" height="2.05" rx="1.03" ry="1.03" style="fill:#b3cef4"/><rect x="72.6" y="13.45" width="199.97" height="2.05" rx="1.03" ry="1.03" style="fill:#b3cef4"/><rect x="72.6" y="39.39" width="218.48" height="2.05" rx="1.03" ry="1.03" style="fill:#b3cef4"/><rect x="73.35" y="82.81" width="43.73" height="74.9" style="fill:#b3cef4"/><rect x="199.67" y="82.81" width="43.73" height="74.9" style="fill:#b3cef4"/><rect x="135.8" y="82.81" width="43.73" height="74.9" style="fill:#b3cef4"/><rect x="263.87" y="82.81" width="43.73" height="74.9" style="fill:#b3cef4"/><path d="M104.95,168.6l-19.88-.11.05-8.95a1,1,0,0,1,1-1l17.89.1a1,1,0,0,1,1,1Z" style="fill:#0cafe8"/><polygon points="106.43 170.09 83.57 169.96 84.07 168.47 105.94 168.6 106.43 170.09" style="fill:#0b90d3"/><path d="M99,166.57l-8,0a2,2,0,0,1-2-2V163a2,2,0,0,1,2-2l8,0a2,2,0,0,1,2,2v1.49A2,2,0,0,1,99,166.57Z" style="fill:#fff"/><rect x="91.03" y="149.4" width="8.2" height="5.22" transform="translate(-57.44 246.26) rotate(-89.67)" style="fill:#f9a74e"/><path d="M99.55,155.64l-8.95-.05a3,3,0,0,0-3,3h0l14.91.09h0A3,3,0,0,0,99.55,155.64Z" style="fill:#ffde39"/><path d="M97.64,152.15l-5.07,0a2.44,2.44,0,0,1-2.42-2.45v-.55l9.94.06v.55A2.44,2.44,0,0,1,97.64,152.15Z" style="fill:#ffde39"/><path d="M103.51,158.65l-16.9-.1h0a1,1,0,0,1,1-1l14.91.09a1,1,0,0,1,1,1Z" style="fill:#f9a74e"/><path d="M101.09,148.2l-11.93-.07v1.49a1,1,0,0,0,1,1l9.94.06a1,1,0,0,0,1-1Z" style="fill:#f9a74e"/><path d="M101.09,148.2l-11.93-.07v1.49a1,1,0,0,0,1,1l9.94.06a1,1,0,0,0,1-1Z" style="fill:#f9a74e"/><path d="M102.17,132.3l9.44.05v.5a9.44,9.44,0,0,1-9.5,9.39h0" style="fill:none;stroke:#f9a74e;stroke-linecap:round;stroke-linejoin:round;stroke-width:1.9879728367113365px"/><path d="M88.26,132.22l-9.44-.05v.5a9.44,9.44,0,0,0,9.39,9.5h0" style="fill:none;stroke:#fec632;stroke-linecap:round;stroke-linejoin:round;stroke-width:1.9879728367113365px"/><path d="M99.34,149.68l-8.45,0a5.68,5.68,0,0,1-5.68-5.75l.09-15.66,19.88.11L105.09,144A5.68,5.68,0,0,1,99.34,149.68Z" style="fill:#ffde39"/><path d="M88.27,129.73l-.06,9.94" style="fill:none;stroke:#fff;stroke-linecap:round;stroke-linejoin:round;stroke-width:0.9939864183556696px;opacity:0.300000011920929;isolation:isolate"/><polygon points="106.67 128.35 83.81 128.22 85.29 129.72 105.17 129.83 106.67 128.35" style="fill:#f9a74e"/><path d="M107.18,126.36l-23.86-.14a1,1,0,0,0-1,1h0a1,1,0,0,0,1,1l23.86.14a1,1,0,0,0,1-1h0A1,1,0,0,0,107.18,126.36Z" style="fill:#ffde39"/><line x1="88.2" y1="141.86" x2="88.2" y2="143" style="fill:none;stroke:#fff;stroke-linecap:round;stroke-linejoin:round;stroke-width:0.9939864183556696px;opacity:0.300000011920929;isolation:isolate"/><path d="M95.17,141l2.13,1.16a.45.45,0,0,0,.65-.44l-.43-2.44,1.75-1.68a.45.45,0,0,0-.24-.75l-2.38-.36-1.08-2.19a.42.42,0,0,0-.75,0l-1.11,2.18-2.39.33a.45.45,0,0,0-.25.74l1.73,1.7-.41,2.38A.44.44,0,0,0,93,142Z" style="fill:#fec632"/><path d="M296.47,142.65a188.54,188.54,0,0,1-22.09-5.27,100,100,0,0,0-.24,35.23c3.42-2.47,6.92-4.82,10.49-7a89.62,89.62,0,0,0,12.16,4.75A78.28,78.28,0,0,1,296.47,142.65Z" style="fill:#d44a90"/><path d="M294.64,142.31a188,188,0,0,1-18.4-4.4,98.08,98.08,0,0,0-.36,33.48c2.89-2,5.79-3.95,8.76-5.77a92.18,92.18,0,0,0,10.14,4.11A78.67,78.67,0,0,1,294.64,142.31Z" style="fill:#f15a9e"/><path d="M287.56,126.44h0a3.23,3.23,0,0,1,5.11,1.86h0a3.21,3.21,0,0,0,3.21,2.48h0a3.26,3.26,0,0,1,3.05,4.51h0a3.21,3.21,0,0,0,1.13,3.9h0a3.23,3.23,0,0,1-.18,5.43h0a3.26,3.26,0,0,0-1.37,3.82h0a3.28,3.28,0,0,1-3.33,4.32h0a3.18,3.18,0,0,0-3.36,2.32h0a3.23,3.23,0,0,1-5.22,1.51h0a3.26,3.26,0,0,0-4.08-.13h0a3.23,3.23,0,0,1-5.11-1.86h0a3.21,3.21,0,0,0-3.21-2.48h0a3.26,3.26,0,0,1-3.05-4.51h0a3.21,3.21,0,0,0-1.13-3.9h0a3.23,3.23,0,0,1,.18-5.43h0a3.26,3.26,0,0,0,1.37-3.82h0a3.28,3.28,0,0,1,3.33-4.32h0a3.18,3.18,0,0,0,3.36-2.32h0a3.23,3.23,0,0,1,5.22-1.51h0A3.31,3.31,0,0,0,287.56,126.44Z" style="fill:#00c2a9"/><circle cx="285.06" cy="141.43" r="11.28" transform="translate(135.05 422.07) rotate(-88.26)" style="fill:#00a58c"/><path d="M284.12,141.94l-2.9-3.11a.46.46,0,0,0-.67,0l-1.84,1.71a.46.46,0,0,0,0,.67l5.3,5.59a.46.46,0,0,0,.67,0l7.27-6.84a.46.46,0,0,0,0-.67l-1.71-1.84a.46.46,0,0,0-.67,0l-4.78,4.48A.45.45,0,0,1,284.12,141.94Z" style="fill:#fff"/><line x1="172.68" y1="138.74" x2="174.24" y2="137.34" style="fill:none;stroke:#f15a9e;stroke-linecap:round;stroke-miterlimit:10;stroke-width:0.8450045753404786px"/><line x1="171.18" y1="137.1" x2="172.07" y2="136.28" style="fill:none;stroke:#f15a9e;stroke-linecap:round;stroke-miterlimit:10;stroke-width:0.8450045753404786px"/><line x1="174.17" y1="140.43" x2="175.06" y2="139.62" style="fill:none;stroke:#f15a9e;stroke-linecap:round;stroke-miterlimit:10;stroke-width:0.8450045753404786px"/><circle cx="157.37" cy="131.16" r="5.02" transform="translate(22.65 285.49) rotate(-88.69)" style="fill:none;stroke:#78a3d6;stroke-miterlimit:10;stroke-width:0.9796986579687096px"/><rect x="153.52" y="134.19" width="7.42" height="3.49" transform="translate(17.74 290.03) rotate(-88.69)" style="fill:#94b1d3"/><rect x="165.68" y="141.07" width="5.89" height="2.62" transform="translate(-51.65 155.92) rotate(-43.69)" style="fill:#94b1d3"/><path d="M171.41,142.36l-2.67-2.77.51-.46a.93.93,0,0,1,1.26,0l1.47,1.51a.93.93,0,0,1,0,1.26Z" style="fill:#78a3d6"/><rect x="144.25" y="138.86" width="2.62" height="5.89" transform="translate(-57.64 139.83) rotate(-43.69)" style="fill:#94b1d3"/><path d="M142.8,141.7l2.77-2.67-.46-.51a.89.89,0,0,0-1.26,0L142.35,140a.89.89,0,0,0,0,1.26Z" style="fill:#78a3d6"/><circle cx="156.85" cy="153.59" r="16.59" transform="translate(-0.29 306.9) rotate(-88.69)" style="fill:#94b1d3"/><circle cx="156.85" cy="153.59" r="13.1" transform="translate(-0.29 306.9) rotate(-88.69)" style="fill:#fff"/><circle cx="156.85" cy="153.59" r="3.49" transform="translate(-0.29 306.9) rotate(-88.69)" style="fill:#382673;opacity:0.200000002980232;isolation:isolate"/><path d="M157.11,142.26l-.09,3.95a7.41,7.41,0,0,1,7.25,7.61l3.95.09A11.42,11.42,0,0,0,157.11,142.26Z" style="fill:#ffde39"/><path d="M157.11,142.26l-.09,3.95a7.29,7.29,0,0,1,5.19,2.31l2.85-2.73A11.49,11.49,0,0,0,157.11,142.26Z" style="fill:#fec632"/><line x1="153.36" y1="153.55" x2="168.18" y2="153.89" style="fill:none;stroke:#f15a9e;stroke-linecap:round;stroke-miterlimit:10;stroke-width:1.3098158984183637px"/><circle cx="156.85" cy="153.59" r="1.75" transform="translate(-0.29 306.9) rotate(-88.69)" style="fill:#d44a90"/><path d="M159.92,134.45l-5.26-.08.07-3.07a1.25,1.25,0,0,1,1.34-1.26l2.61,0a1.25,1.25,0,0,1,1.26,1.34Z" style="fill:#78a3d6"/><line x1="156.61" y1="164.09" x2="156.66" y2="161.91" style="fill:none;stroke:#382673;stroke-linecap:round;stroke-linejoin:round;stroke-width:0.8732105989455776px;opacity:0.200000002980232;isolation:isolate"/><line x1="149.25" y1="160.85" x2="150.82" y2="159.35" style="fill:none;stroke:#382673;stroke-linecap:round;stroke-linejoin:round;stroke-width:0.8732105989455776px;opacity:0.200000002980232;isolation:isolate"/><line x1="146.35" y1="153.39" x2="148.55" y2="153.4" style="fill:none;stroke:#382673;stroke-linecap:round;stroke-linejoin:round;stroke-width:0.8732105989455776px;opacity:0.200000002980232;isolation:isolate"/><line x1="162.57" y1="159.62" x2="164.07" y2="161.19" style="fill:none;stroke:#382673;stroke-linecap:round;stroke-linejoin:round;stroke-width:0.8732105989455776px;opacity:0.200000002980232;isolation:isolate"/><line x1="149.59" y1="146.03" x2="151.13" y2="147.62" style="fill:none;stroke:#382673;stroke-linecap:round;stroke-linejoin:round;stroke-width:0.8732105989455776px;opacity:0.200000002980232;isolation:isolate"/><path d="M221.52,159.72l8.69,4.6a1.78,1.78,0,0,0,2.55-1.87l-1.7-9.71,7-6.81a1.67,1.67,0,0,0-1-2.9l-9.71-1.36-4.26-8.86a1.66,1.66,0,0,0-3.07,0l-4.26,8.69L206,143a1.72,1.72,0,0,0-1,2.9l7,6.81-1.7,9.71a1.79,1.79,0,0,0,2.55,1.87Z" style="fill:#ffde39"/><rect x="76.46" y="88.7" width="36.6" height="9.3" style="fill:#fff"/><rect x="139.42" y="88.7" width="36.6" height="9.3" style="fill:#fff"/><rect x="203.62" y="88.7" width="36.6" height="9.3" style="fill:#fff"/><rect x="267.2" y="88.7" width="36.6" height="9.3" style="fill:#fff"/><path d="M340.52,192.54,340.44,177s-6-13.62-16.67-3.81c0,0-3,3.66-1.87,20.7C321.9,193.86,331.64,204,340.52,192.54Z" style="fill:#fff1b8"/><path d="M358.21,253.24s-17.45,9.65-49.24,1.25l5.92,35.72,4.21,19.38,5.77,24s5.61,14.94,6.55-1.87S333,273.16,333,273.16l-2.49-5.91s12.78,18.06,17.77,49.19,9,24.9,9,24.9S362.57,337.22,358.21,253.24Z" style="fill:#d1d1d1"/><path d="M316.21,193.94l-18.93,17-22.83-10.12s1.25-6.15-2.42-6.38c0,0-1.17.31-.7,2.18s-4.75-1.09-4.75-1.09-4.44-.86-.62,5.91a10.64,10.64,0,0,0,7.95,3.11l18.62,19.07,18.54.31Z" style="fill:#b3cef4"/><path d="M340.68,194l8.6.91,6,2.49,3.95,3.11L369,224.39l-5.19,8.92-5.45,4.36-.16,15.57s-8.31,6-24.93,5.19S309,254.49,309,254.49l-.83-22.41,2.39-20.94,5.71-16.84,5.19-.62S327.59,203.15,340.68,194Z" style="fill:#b3cef4"/><path d="M341,193.47s-10.18,10.17-19.32.21l-5.4.42L298,210.49" style="fill:none;stroke:#000;stroke-miterlimit:10;stroke-width:1.2459580955111402px"/><path d="M299.41,211.73l-24.93-10.58s1.66-5.19-1.66-6.43c-2-.75-2,.69-1.62,2a.55.55,0,0,1-.83.61c-2.37-1.5-6.78-3.74-5.86,1.17,1.25,6.64,9.35,6.23,9.35,6.23l18.7,19.09,16.21-.21" style="fill:none;stroke:#000;stroke-miterlimit:10;stroke-width:1.2459580955111402px"/><path d="M313.33,201.77s-10.18,25.11-2.08,68.9,14.34,64.75,14.34,64.75S331.4,350,332,327.33s.62-54.58.62-54.58" style="fill:none;stroke:#000;stroke-miterlimit:10;stroke-width:1.2459580955111402px"/><path d="M311.87,254.9S335.56,263.62,358,253l.42-14.32" style="fill:none;stroke:#000;stroke-miterlimit:10;stroke-width:1.2459580955111402px"/><path d="M358.83,254.9l1,74.51s-1.45,19.72-5.61,9.55-13.71-65.58-24.93-72.43" style="fill:none;stroke:#000;stroke-miterlimit:10;stroke-width:1.2459580955111402px"/><path d="M354.68,270.05s-6.65-2.49-6.65-5.6" style="fill:none;stroke:#000;stroke-miterlimit:10;stroke-width:1.2459580955111402px"/><path d="M321.9,192.38V178.92a9.27,9.27,0,0,1,9.27-9.26h0a9.27,9.27,0,0,1,9.27,9.26v13.31" style="fill:none;stroke:#000;stroke-miterlimit:10;stroke-width:1.2459580955111402px"/><path d="M342.12,177.24s4.08-8.71-.38-10.06-6-5-7.71-9.35-13-3.6-15.3,3.15-.86,10.29.21,13.36" style="fill:none;stroke:#000;stroke-miterlimit:10;stroke-width:1.2459580955111402px"/><ellipse cx="330.47" cy="178.01" rx="3.12" ry="4.88" style="fill:#feffff;stroke:#472b0a;stroke-miterlimit:10;stroke-width:1.2459580955111402px"/><ellipse cx="322.16" cy="177.81" rx="2.65" ry="4.14" style="fill:#feffff;stroke:#472b0a;stroke-miterlimit:10;stroke-width:1.0587847861995632px"/><path d="M327.35,178s-1.35-1.23-2.55-.2" style="fill:#feffff;stroke:#472b0a;stroke-miterlimit:10;stroke-width:1.0587847861995632px"/><line x1="333.59" y1="178.01" x2="340.34" y2="177.7" style="fill:#feffff;stroke:#472b0a;stroke-miterlimit:10;stroke-width:1.0587847861995632px"/><path d="M346.05,218.17c1,.93,10.91,6.64,10.91,6.64l-5.61,17s-3.64-.31-3,1a2.56,2.56,0,0,0,1.13,1.16,1.05,1.05,0,0,1,.43,1.47c-1,1.59-2.08,4.15,2.4,2.12A1.81,1.81,0,0,0,353,247a4.31,4.31,0,0,0,.72-3.75C353,241,369.22,230,368.7,224.5s-9.56-24.07-9.56-24.07-5-6.43-15.48-6" style="fill:none;stroke:#000;stroke-miterlimit:10;stroke-width:1.2459580955111402px"/><path d="M72.89,199.56s.2-5.47-2.64-9.53-4.05-4.46-4.46-11.35-6.49-15.41-16.42-15.41-15.41,6.28-16,12.37-.2,9.12-4.26,10.54-9.53,5.07-9.73,16" style="fill:#feffff;stroke:#000;stroke-miterlimit:10;stroke-width:1.0335321367411403px"/><path d="M59.08,195.41,59,180.2s-5.85-13.3-16.27-3.72c0,0-2.89,3.57-1.82,20.22C40.91,196.7,50.41,206.58,59.08,195.41Z" style="fill:#fff1b8"/><path d="M71.92,259.51a26.75,26.75,0,0,0-3.5.86c-6,2.28-23.16,7.49-44.4-2l-1.61,73.18s2.24,12.77,4.05,9.93,15-58.78,20.07-66.49,2.23.2,2.23.2l.61,56.15s2,17.26,6.89,3.07l6-24.1,5.32-23.72Z" style="fill:#ddd"/><path d="M31.75,218.48l-16.21-.16S4,216.78,2.64,208.35c-.16-1-2.88-13.78-2.11-15.08.21-.35.74-5.7,1-6.08.66-1,9,12.1,9.32,13.05,1.05,2.84,6.91,7,8.27,6.49,5.19-1.86,9.56-6.36,12.73-8.11,4.41-2.43,5.89.69,13.34,3a16.12,16.12,0,0,0,15.2-2.89c2.58-2,4.56-.76,4.56-.76s8.82,6.39,12.77,8.36,8.82-3.5,8.82-3.5a99.93,99.93,0,0,1,7.15-12.62c3.65-5.17,3.65-1.82,4-.61s-.76,14.9-.76,14.9-.61,11.25-9.27,13.23a65.38,65.38,0,0,1-16.42,1.52l2,11.55-1.22,28.73s-23.56,9.88-47.13-.46" style="fill:#b3cef4"/><path d="M24.43,258.55,22.61,329.5s1.63,19.16,5.68,9.22,13.17-64,24.11-70.64" style="fill:none;stroke:#000;stroke-miterlimit:10;stroke-width:1.2162412508455094px"/><path d="M59.65,195.66V182.51a9,9,0,0,0-9-9h0a9,9,0,0,0-9,9v13" style="fill:none;stroke:#000;stroke-miterlimit:10;stroke-width:1.2162412508455094px"/><path d="M55.86,189.22s-2.23,2.84-5.07,0" style="fill:#feffff;stroke:#000;stroke-miterlimit:10;stroke-width:1.0335321367411403px"/><path d="M49.16,274.16s0,31.22.61,53.31,6.28,7.91,6.28,7.91,6.08-20.47,14-63.24-2-67.3-2-67.3" style="fill:none;stroke:#000;stroke-miterlimit:10;stroke-width:1.2162412508455094px"/><path d="M69.43,260.37s-23.11,8.51-45-1.82l2-9.91s5.6-25,5.12-32.59" style="fill:none;stroke:#000;stroke-miterlimit:10;stroke-width:1.2162412508455094px"/><path d="M27.67,271.52s6.49-2.43,6.49-5.47" style="fill:none;stroke:#000;stroke-miterlimit:10;stroke-width:1.2162412508455094px"/><path d="M74.51,218.62s18.85,1.82,21-9.73,5.17-33.45-4.56-14.29S77.24,206.45,64.17,197" style="fill:none;stroke:#000;stroke-miterlimit:10;stroke-width:1.2162412508455094px"/><path d="M61.74,197.75s-9.36,9-25.24.41" style="fill:none;stroke:#000;stroke-miterlimit:10;stroke-width:1.2162412508455094px"/><path d="M50.89,170.17s1.48,8.53-9.27,9.43l-4.1-.13" style="fill:#feffff;stroke:#000;stroke-miterlimit:10;stroke-width:1.2128694209464945px"/><path d="M23.77,218.62s-18.85,1.82-21-9.73-5.17-33.45,4.56-14.29S21,206.45,34.11,197" style="fill:none;stroke:#000;stroke-miterlimit:10;stroke-width:1.2162412508455094px"/></g></g></svg>