<svg xmlns="http://www.w3.org/2000/svg" viewBox="0 0 417.91 199.98"><title>about us</title><g id="Layer_2" data-name="Layer 2"><g id="Layer_2-2" data-name="Layer 2"><path d="M60.83,77.09H97a10,10,0,0,1,10,10h0a10,10,0,0,1-10,10H44.79a10,10,0,0,0-10,10h0a10,10,0,0,0,10,10h25a10,10,0,0,1,10,10h0a10,10,0,0,1-10,10h-25a10,10,0,0,0-10,10h0a10,10,0,0,0,10,10H85.88a10,10,0,0,1,10,10h0a10,10,0,0,1-10,10H74.22a10,10,0,0,0-10,10h0a10,10,0,0,0,10,10H362a10,10,0,0,0,10-10h0a10,10,0,0,0-10-10H339.62a10,10,0,0,1-10-10h0a10,10,0,0,1,10-10H362a10,10,0,0,0,10-10h0a10,10,0,0,0-10-10H322.34a10,10,0,0,1-10-10h0a10,10,0,0,1,10-10H367a10,10,0,0,0,10-10h0a10,10,0,0,0-10-10H316.3a10,10,0,0,1-10-10h0a10,10,0,0,1,10-10H331a10,10,0,0,0,10-10h0a10,10,0,0,0-10-10H60.83a10,10,0,0,0-10,10h0A10,10,0,0,0,60.83,77.09Z" style="fill:#b2ebf2"/><rect y="97.08" width="20.36" height="20.36" rx="9.99" ry="9.99" style="fill:#b2ebf2"/><rect x="397.55" y="136.88" width="20.36" height="20.36" rx="9.99" ry="9.99" style="fill:#b2ebf2"/><rect x="335.95" y="166.24" width="19.99" height="19.99" style="fill:#e0f7fa"/><rect x="87.22" y="122.75" width="19.99" height="19.99" style="fill:#e0f7fa"/><rect x="299.66" y="44.27" width="27.21" height="26.81" style="fill:#e0f7fa"/><rect x="34.8" y="46.61" width="27.21" height="26.81" style="fill:#e0f7fa"/><path d="M328.89,166.46h-6a1,1,0,0,1,0-2H327a1,1,0,0,1,1.85.53Zm-11,0h-5a1,1,0,0,1,0-2h5a1,1,0,0,1,0,2Zm-10,0h-5a1,1,0,0,1,0-2h5a1,1,0,0,1,0,2Zm-10,0h-5a1,1,0,0,1,0-2h5a1,1,0,0,1,0,2Zm-10,0h-5a1,1,0,0,1,0-2h5a1,1,0,0,1,0,2Zm-10,0h-5a1,1,0,0,1,0-2h5a1,1,0,0,1,0,2Zm-10,0h-5a1,1,0,0,1,0-2h5a1,1,0,0,1,0,2Zm-10,0h-5a1,1,0,0,1,0-2h5a1,1,0,0,1,0,2Zm-10,0h-5a1,1,0,0,1,0-2h5a1,1,0,0,1,0,2Zm-10,0h-5a1,1,0,0,1,0-2h5a1,1,0,0,1,0,2Zm-10,0h-5a1,1,0,0,1,0-2h5a1,1,0,0,1,0,2Zm-10,0h-5a1,1,0,0,1,0-2h5a1,1,0,0,1,0,2Zm-10,0h-5a1,1,0,0,1,0-2h5a1,1,0,0,1,0,2Zm-10,0h-5a1,1,0,0,1,0-2h5a1,1,0,0,1,0,2Zm-10,0h-5a1,1,0,0,1,0-2h5a1,1,0,0,1,0,2Zm-10,0h-5a1,1,0,0,1,0-2h5a1,1,0,0,1,0,2Zm-10,0h-5a1,1,0,0,1,0-2h5a1,1,0,0,1,0,2Zm-10,0h-5a1,1,0,0,1,0-2h5a1,1,0,0,1,0,2Zm-10,0h-5a1,1,0,0,1,0-2h5a1,1,0,0,1,0,2Zm-10,0h-5a1,1,0,0,1,0-2h5a1,1,0,0,1,0,2Zm-10,0h-5a1,1,0,0,1,0-2h5a1,1,0,0,1,0,2Zm-10,0h-5a1,1,0,0,1,0-2h5a1,1,0,0,1,0,2Zm-10,0h-5a1,1,0,0,1,0-2h5a1,1,0,0,1,0,2Zm-10,0h-2v-5a1,1,0,1,1,2,0v3a1,1,0,0,1,0,2Zm230-5.47a1,1,0,0,1-1-1v-5a1,1,0,0,1,2,0v5A1,1,0,0,1,327.89,161Zm-231-3.54a1,1,0,0,1-1-1v-5a1,1,0,1,1,2,0v5A1,1,0,0,1,96.9,157.45Zm231-6.46a1,1,0,0,1-1-1v-5a1,1,0,0,1,2,0v5A1,1,0,0,1,327.89,151Zm-231-3.54a1,1,0,0,1-1-1v-5a1,1,0,1,1,2,0v5A1,1,0,0,1,96.9,147.45Zm231-6.46a1,1,0,0,1-1-1v-5a1,1,0,0,1,2,0v5A1,1,0,0,1,327.89,141Zm-231-3.54a1,1,0,0,1-1-1v-5a1,1,0,1,1,2,0v5A1,1,0,0,1,96.9,137.45Zm231-6.46a1,1,0,0,1-1-1v-5a1,1,0,0,1,2,0v5A1,1,0,0,1,327.89,131Zm-231-3.54a1,1,0,0,1-1-1v-5a1,1,0,1,1,2,0v5A1,1,0,0,1,96.9,127.45Zm231-6.46a1,1,0,0,1-1-1v-5a1,1,0,0,1,2,0v5A1,1,0,0,1,327.89,121Zm-231-3.54a1,1,0,0,1-1-1v-5a1,1,0,1,1,2,0v5A1,1,0,0,1,96.9,117.45Zm231-6.46a1,1,0,0,1-1-1v-5a1,1,0,0,1,2,0v5A1,1,0,0,1,327.89,111Zm-231-3.54a1,1,0,0,1-1-1v-5a1,1,0,1,1,2,0v5A1,1,0,0,1,96.9,107.45Zm231-6.46a1,1,0,0,1-1-1V95a1,1,0,0,1,2,0v5A1,1,0,0,1,327.89,101Zm-231-3.54a1,1,0,0,1-1-1v-5a1,1,0,1,1,2,0v5A1,1,0,0,1,96.9,97.45Zm231-6.46a1,1,0,0,1-1-1V85a1,1,0,0,1,2,0v5A1,1,0,0,1,327.89,91Zm-231-3.54a1,1,0,0,1-1-1v-5a1,1,0,1,1,2,0v5A1,1,0,0,1,96.9,87.45Zm231-6.46a1,1,0,0,1-1-1V75a1,1,0,0,1,2,0v5A1,1,0,0,1,327.89,81Zm-231-3.54a1,1,0,0,1-1-1v-5a1,1,0,1,1,2,0v5A1,1,0,0,1,96.9,77.45Zm231-6.46a1,1,0,0,1-1-1V65a1,1,0,0,1,2,0v5A1,1,0,0,1,327.89,71Zm-231-3.54a1,1,0,0,1-1-1v-5a1,1,0,1,1,2,0v5A1,1,0,0,1,96.9,67.45Zm231-6.46a1,1,0,0,1-1-1V55a1,1,0,0,1,2,0v5A1,1,0,0,1,327.89,61Zm-231-3.54a1,1,0,0,1-1-1v-5a1,1,0,1,1,2,0v5A1,1,0,0,1,96.9,57.45Zm231-6.46a1,1,0,0,1-1-1V47.21h-.23a1,1,0,0,1,0-2h2.23V50A1,1,0,0,1,327.89,51Zm-231-3.54a1,1,0,0,1-1-1V45.21h5.76a1,1,0,0,1,0,2H97.55A1,1,0,0,1,96.9,47.45Zm224.76-.24h-5a1,1,0,0,1,0-2h5a1,1,0,0,1,0,2Zm-10,0h-5a1,1,0,0,1,0-2h5a1,1,0,0,1,0,2Zm-10,0h-5a1,1,0,0,1,0-2h5a1,1,0,0,1,0,2Zm-10,0h-5a1,1,0,0,1,0-2h5a1,1,0,0,1,0,2Zm-10,0h-5a1,1,0,0,1,0-2h5a1,1,0,0,1,0,2Zm-10,0h-5a1,1,0,0,1,0-2h5a1,1,0,0,1,0,2Zm-10,0h-5a1,1,0,0,1,0-2h5a1,1,0,0,1,0,2Zm-10,0h-5a1,1,0,0,1,0-2h5a1,1,0,0,1,0,2Zm-10,0h-5a1,1,0,0,1,0-2h5a1,1,0,0,1,0,2Zm-10,0h-5a1,1,0,1,1,0-2h5a1,1,0,0,1,0,2Zm-10,0h-5a1,1,0,0,1,0-2h5a1,1,0,0,1,0,2Zm-10,0h-5a1,1,0,0,1,0-2h5a1,1,0,0,1,0,2Zm-10,0h-5a1,1,0,0,1,0-2h5a1,1,0,0,1,0,2Zm-10,0h-5a1,1,0,0,1,0-2h5a1,1,0,0,1,0,2Zm-10,0h-5a1,1,0,0,1,0-2h5a1,1,0,0,1,0,2Zm-10,0h-5a1,1,0,0,1,0-2h5a1,1,0,0,1,0,2Zm-10,0h-5a1,1,0,0,1,0-2h5a1,1,0,0,1,0,2Zm-10,0h-5a1,1,0,0,1,0-2h5a1,1,0,0,1,0,2Zm-10,0h-5a1,1,0,0,1,0-2h5a1,1,0,0,1,0,2Zm-10,0h-5a1,1,0,1,1,0-2h5a1,1,0,0,1,0,2Zm-10,0h-5a1,1,0,1,1,0-2h5a1,1,0,0,1,0,2Zm-10,0h-5a1,1,0,1,1,0-2h5a1,1,0,1,1,0,2Z" style="fill:#677089"/><path d="M307.41,82.72h45a12.9,12.9,0,0,1,12.9,12.9v18.24a12.9,12.9,0,0,1-12.9,12.9H335.32l-5.54,5.54a2,2,0,0,1-3.37-1.4v-4.15h-19a12.9,12.9,0,0,1-12.9-12.9V95.62A12.9,12.9,0,0,1,307.41,82.72Z" style="fill:#fff"/><path d="M328.4,133.89a3,3,0,0,1-1.16-.23,2.93,2.93,0,0,1-1.84-2.75v-3.15h-18a13.92,13.92,0,0,1-13.9-13.9V95.62a13.92,13.92,0,0,1,13.9-13.9h39.64a1,1,0,0,1,0,2H307.41a11.91,11.91,0,0,0-11.9,11.9v18.24a11.91,11.91,0,0,0,11.9,11.9h20v5.15a1,1,0,0,0,1.66.69l5.84-5.84h17.54a11.91,11.91,0,0,0,11.9-11.9V95.62a1,1,0,0,1,2,0v18.24a13.92,13.92,0,0,1-13.9,13.9H335.74L330.49,133A2.93,2.93,0,0,1,328.4,133.89Z" style="fill:#677089"/><path d="M342.83,110.06a5.22,5.22,0,1,1,5.22-5.22A5.23,5.23,0,0,1,342.83,110.06Zm0-8.44a3.22,3.22,0,1,0,3.22,3.22A3.23,3.23,0,0,0,342.83,101.62Z" style="fill:#677089"/><path d="M328.75,110.06a5.22,5.22,0,1,1,5.22-5.22A5.23,5.23,0,0,1,328.75,110.06Zm0-8.44a3.22,3.22,0,1,0,3.22,3.22A3.23,3.23,0,0,0,328.75,101.62Z" style="fill:#677089"/><path d="M314.68,110.06a5.22,5.22,0,1,1,5.22-5.22A5.23,5.23,0,0,1,314.68,110.06Zm0-8.44a3.22,3.22,0,1,0,3.22,3.22A3.23,3.23,0,0,0,314.68,101.62Z" style="fill:#677089"/><path d="M128.51,145.18h-45a12.9,12.9,0,0,0-12.9,12.9v18.24a12.9,12.9,0,0,0,12.9,12.9H100.6l5.54,5.54a2,2,0,0,0,3.37-1.4v-4.15h19a12.9,12.9,0,0,0,12.9-12.9V158.08A12.9,12.9,0,0,0,128.51,145.18Z" style="fill:#fff"/><path d="M135.81,188a1,1,0,0,1-.57-1.82,11.91,11.91,0,0,0,5.18-9.82V158.08a11.91,11.91,0,0,0-11.9-11.9h-45a11.91,11.91,0,0,0-11.9,11.9,1,1,0,1,1-2,0,13.92,13.92,0,0,1,13.9-13.9h45a13.92,13.92,0,0,1,13.9,13.9v18.24a13.91,13.91,0,0,1-6,11.47A1,1,0,0,1,135.81,188Z" style="fill:#677089"/><path d="M107.52,196.34a2.93,2.93,0,0,1-2.08-.88l-5.25-5.25H83.48a13.92,13.92,0,0,1-13.9-13.9v-11a1,1,0,1,1,2,0v11a11.91,11.91,0,0,0,11.9,11.9H101l5.84,5.84a1,1,0,0,0,1.66-.69v-5.15h20a1,1,0,0,1,0,2h-18v3.15a2.93,2.93,0,0,1-1.84,2.75A3,3,0,0,1,107.52,196.34Z" style="fill:#677089"/><path d="M99.29,174.6a7.69,7.69,0,0,1-7.68-7.69,1,1,0,1,1,2,0,5.68,5.68,0,1,0,11.37,0,1,1,0,0,1,2,0A7.69,7.69,0,0,1,99.29,174.6Z" style="fill:#677089"/><path d="M112.66,174.6a7.69,7.69,0,0,1-7.69-7.69,1,1,0,0,1,2,0,5.69,5.69,0,0,0,11.37,0,1,1,0,0,1,2,0A7.69,7.69,0,0,1,112.66,174.6Z" style="fill:#677089"/><path d="M128.35,26.21l-45,.3a12.9,12.9,0,0,0-12.81,13l.12,18.24a12.9,12.9,0,0,0,13,12.81l17.12-.11,5.58,5.51a2,2,0,0,0,3.36-1.42l0-4.15,19-.13a12.9,12.9,0,0,0,12.81-13L141.33,39A12.9,12.9,0,0,0,128.35,26.21Z" style="fill:#fff"/><path d="M107.68,77.52a2.93,2.93,0,0,1-2.07-.86l-5.29-5.21-16.71.11h-.09a13.92,13.92,0,0,1-13.9-13.81L69.5,39.5a13.9,13.9,0,0,1,13.81-14l20.15-.15h0a1,1,0,0,1,0,2l-20.15.15a11.9,11.9,0,0,0-11.82,12l.12,18.24a11.91,11.91,0,0,0,11.9,11.82h.08l17.54-.12,5.87,5.8a1,1,0,0,0,1.66-.7l0-5.15,20-.13a11.91,11.91,0,0,0,11.82-12L140.33,39a11.9,11.9,0,0,0-11.9-11.82h-.08l-15.73.1h0a1,1,0,0,1,0-2l15.73-.1a14,14,0,0,1,9.86,4,13.81,13.81,0,0,1,4.14,9.8l.12,18.24a13.92,13.92,0,0,1-13.81,14l-18,.12,0,3.15a2.93,2.93,0,0,1-1.82,2.76A3,3,0,0,1,107.68,77.52Z" style="fill:#677089"/><path d="M81.39,45.74h0a1.55,1.55,0,0,1-1.54-1.54V38.87a1.55,1.55,0,0,1,1.54-1.55h0a1.55,1.55,0,0,1,1.54,1.55v5.32A1.55,1.55,0,0,1,81.39,45.74Z" style="fill:#677089"/><path d="M100.75,45.74h0a1.55,1.55,0,0,1-1.55-1.54V38.87a1.55,1.55,0,0,1,1.55-1.55h0a1.55,1.55,0,0,1,1.55,1.55v5.32A1.55,1.55,0,0,1,100.75,45.74Z" style="fill:#677089"/><circle cx="92.97" cy="54.68" r="2.08" style="fill:#677089"/></g><g id="Layer_4" data-name="Layer 4"><path d="M242.86,127.5h46.33a19.35,19.35,0,0,0,19.35-19.35V74A42.51,42.51,0,0,0,266,31.48h0A42.51,42.51,0,0,0,223.52,74v34.16A19.35,19.35,0,0,0,242.86,127.5Z" style="fill:#c5cae9"/><path d="M289.19,128.5H242.86a20.37,20.37,0,0,1-20.34-20.35V74a43.52,43.52,0,0,1,66.16-37.16,1,1,0,1,1-1,1.71A41.52,41.52,0,0,0,224.52,74v34.16a18.37,18.37,0,0,0,18.34,18.35h46.33a18.37,18.37,0,0,0,18.34-18.35V74A41.28,41.28,0,0,0,295.7,45a1,1,0,1,1,1.43-1.4A43.27,43.27,0,0,1,309.54,74v34.16A20.37,20.37,0,0,1,289.19,128.5Z" style="fill:#677089"/><rect x="257.56" y="121.53" width="16.94" height="11.95" transform="translate(532.06 255.01) rotate(180)" style="fill:#fff"/><path d="M275.5,134.48H256.56v-14H275.5Zm-16.94-2H273.5v-10H258.56Z" style="fill:#677089"/><path d="M239.26,80.34h0A16.94,16.94,0,0,0,256.2,63.4H289a3.8,3.8,0,0,1,3.8,3.8V80.34a4.95,4.95,0,0,1,0,9.89V96.1c0,14.58-11.43,26.91-26,27.31a26.76,26.76,0,0,1-27.52-26.75V90.23a4.95,4.95,0,1,1,0-9.89Z" style="fill:#fff"/><path d="M266,124.42a27.76,27.76,0,0,1-27.75-27.76V91.15a5.95,5.95,0,0,1,0-11.72v-.09h1A16,16,0,0,0,255.2,63.4v-1h32.4a6.19,6.19,0,0,1,6.19,6.19V79.42a5.95,5.95,0,0,1,0,11.72v5c0,15.2-12.1,27.9-27,28.31ZM240.26,81.3v0h-1a3.95,3.95,0,1,0,0,7.89h1v7.43a25.76,25.76,0,0,0,26.49,25.75c13.81-.38,25-12.18,25-26.31V89.23h1a3.95,3.95,0,1,0,0-7.89h-1V68.58a4.19,4.19,0,0,0-4.19-4.19H257.17A18,18,0,0,1,240.26,81.3Z" style="fill:#677089"/><path d="M285.61,87.54a1,1,0,0,1-1-1,6,6,0,1,0-12.09,0,1,1,0,1,1-2,0,8,8,0,1,1,16.09,0A1,1,0,0,1,285.61,87.54Z" style="fill:#677089"/><path d="M260.59,87.54a1,1,0,0,1-1-1,6,6,0,1,0-12.09,0,1,1,0,1,1-2,0,8,8,0,1,1,16.09,0A1,1,0,0,1,260.59,87.54Z" style="fill:#677089"/><path d="M292.48,197.43V149.13a15.66,15.66,0,0,0-15.66-15.66H255.23a15.66,15.66,0,0,0-15.66,15.66v48.29Z" style="fill:#fff"/><path d="M239.58,193.73a1,1,0,0,1-1-1v-43.6a16.67,16.67,0,0,1,16.66-16.66h21.59a16.52,16.52,0,0,1,13.34,6.69,1,1,0,0,1-1.6,1.2,14.54,14.54,0,0,0-11.74-5.89H255.23a14.67,14.67,0,0,0-14.66,14.66v43.6A1,1,0,0,1,239.58,193.73Z" style="fill:#677089"/><path d="M292.48,198.43a1,1,0,0,1-1-1V149.13a1,1,0,1,1,2,0v48.29A1,1,0,0,1,292.48,198.43Z" style="fill:#677089"/><rect x="139.32" y="103.98" width="13.61" height="22.1" style="fill:#fff"/><path d="M152.94,127.09H139.32a1,1,0,0,1-1-1V104a1,1,0,0,1,1-1h13.61a1,1,0,0,1,1,1v22.1A1,1,0,0,1,152.94,127.09Zm-12.61-2h11.61V105H140.32Z" style="fill:#677089"/><path d="M118,50.32h56.27a0,0,0,0,1,0,0V87.58a28.13,28.13,0,0,1-28.13,28.13h0A28.13,28.13,0,0,1,118,87.58V50.32a0,0,0,0,1,0,0Z" style="fill:#fff"/><path d="M146.13,116.71A29.17,29.17,0,0,1,117,87.58V50.32a1,1,0,0,1,1-1h56.27a1,1,0,0,1,1,1V87.58A29.17,29.17,0,0,1,146.13,116.71ZM119,51.32V87.58a27.17,27.17,0,0,0,27.13,27.13h0a27.17,27.17,0,0,0,27.13-27.13V51.32Z" style="fill:#677089"/><path d="M173,45.17c0-.2,0-.4,0-.6A10.47,10.47,0,0,0,152.4,42a7.44,7.44,0,0,0-14.26,1.13A8.68,8.68,0,0,0,121,45.17h-1.76a7.89,7.89,0,0,0-7.89,7.89V85.44A6.62,6.62,0,0,0,118,92.06h0l4-28.57A7.56,7.56,0,0,1,129.52,57h33.23a7.56,7.56,0,0,1,7.49,6.51l4,28.57h0a6.62,6.62,0,0,0,6.62-6.62V53.06A7.89,7.89,0,0,0,173,45.17Z" style="fill:#c5cae9"/><path d="M111.37,58a1,1,0,0,1-1-1V53.07a8.9,8.9,0,0,1,8.89-8.89h.81a9.7,9.7,0,0,1,9.64-8.69,1,1,0,0,1,0,2A7.7,7.7,0,0,0,122,45.17a1,1,0,0,1-1,1h-1.76a6.9,6.9,0,0,0-6.89,6.89V57A1,1,0,0,1,111.37,58Z" style="fill:#677089"/><path d="M174.26,93.06a1,1,0,0,1-1-.86l-4-28.57a6.59,6.59,0,0,0-6.5-5.65H129.52a6.59,6.59,0,0,0-6.5,5.65L119,92.2a1,1,0,0,1-1,.86,7.63,7.63,0,0,1-7.62-7.62V61a1,1,0,0,1,2,0V85.44A5.63,5.63,0,0,0,117.14,91L121,63.35A8.6,8.6,0,0,1,129.52,56h33.23a8.6,8.6,0,0,1,8.48,7.37L175.12,91a5.63,5.63,0,0,0,4.76-5.55V53.07A6.9,6.9,0,0,0,173,46.17a1,1,0,0,1-1-1.06v-.18c0-.12,0-.24,0-.36a9.47,9.47,0,0,0-18.65-2.36,1,1,0,0,1-1.9.1,6.44,6.44,0,0,0-12.35,1,1,1,0,0,1-2,0,7.74,7.74,0,0,0-3-4.38,1,1,0,0,1,1.18-1.62,9.78,9.78,0,0,1,2.72,3,8.42,8.42,0,0,1,14.11-.8A11.47,11.47,0,0,1,174,44.23a8.9,8.9,0,0,1,7.87,8.83V85.44A7.63,7.63,0,0,1,174.26,93.06Z" style="fill:#677089"/><circle cx="119.85" cy="78.94" r="5.69" style="fill:#fff"/><path d="M119.05,85.58h-.14a6.69,6.69,0,0,1,1.87-13.24,1,1,0,0,1-.28,2,4.69,4.69,0,0,0-1.31,9.28,1,1,0,0,1-.14,2Z" style="fill:#677089"/><circle cx="172.39" cy="78.94" r="5.69" style="fill:#fff"/><path d="M173.18,85.58a1,1,0,0,1-.14-2,4.69,4.69,0,0,0-1.31-9.28,1,1,0,0,1-.28-2,6.69,6.69,0,0,1,1.87,13.24Z" style="fill:#677089"/><circle cx="133.51" cy="77.12" r="2.76" style="fill:#677089"/><circle cx="158.75" cy="77.12" r="2.76" style="fill:#677089"/><path d="M131.13,126.09h30a9.52,9.52,0,0,1,9.52,9.52V200a0,0,0,0,1,0,0h-49a0,0,0,0,1,0,0V135.6A9.52,9.52,0,0,1,131.13,126.09Z" style="fill:#fff"/><path d="M121.61,198a1,1,0,0,1-1-1V135.41a10.34,10.34,0,0,1,10.32-10.32h30.39a10.34,10.34,0,0,1,10.32,10.32v56.7a1,1,0,0,1-2,0v-56.7a8.33,8.33,0,0,0-8.32-8.32H130.94a8.33,8.33,0,0,0-8.32,8.32V197A1,1,0,0,1,121.61,198Z" style="fill:#677089"/><g id="Layer_3" data-name="Layer 3"><path d="M250.62,197h-82V78a41,41,0,0,1,41-41h0a41,41,0,0,1,41,41Z" style="fill:#c5cae9"/><path d="M250.62,142.14a1,1,0,0,1-1-1V78a40,40,0,0,0-80,0v44.72a1,1,0,1,1-2,0V78a42,42,0,0,1,84,0v63.11A1,1,0,0,1,250.62,142.14Z" style="fill:#677089"/><path d="M168.66,132.65a1,1,0,0,1-1-1v-4.58a1,1,0,1,1,2,0v4.58A1,1,0,0,1,168.66,132.65Z" style="fill:#677089"/><path d="M168.66,198a1,1,0,0,1-1-1V144a1,1,0,1,1,2,0v53A1,1,0,0,1,168.66,198Z" style="fill:#677089"/><path d="M250.62,198a1,1,0,0,1-1-1V147.55a1,1,0,1,1,2,0V197A1,1,0,0,1,250.62,198Z" style="fill:#677089"/><rect x="201.47" y="123.86" width="16.33" height="11.52" style="fill:#fff"/><path d="M218.8,136.38H200.47V122.86H218.8Zm-16.33-2H216.8v-9.52H202.47Z" style="fill:#677089"/><path d="M235.44,84.15h0a16.33,16.33,0,0,1-16.33-16.33H187.5a3.67,3.67,0,0,0-3.67,3.67V84.15a4.77,4.77,0,0,0,0,9.54v5.66c0,14.06,11,25.94,25.08,26.33a25.8,25.8,0,0,0,26.53-25.79v-6.2a4.77,4.77,0,1,0,0-9.54Z" style="fill:#fff"/><path d="M209.65,126.69h-.76c-14.36-.39-26-12.65-26-27.33V94.6a5.77,5.77,0,0,1,0-11.36V72.82a6,6,0,0,1,6-6h31.27v1a15.34,15.34,0,0,0,15.33,15.33h1v.09a5.77,5.77,0,0,1,0,11.36v5.28a26.8,26.8,0,0,1-26.79,26.8ZM183.84,85.15a3.77,3.77,0,1,0,0,7.54h1v6.66c0,13.6,10.81,25,24.1,25.33a24.8,24.8,0,0,0,25.5-24.79v-7.2h1a3.77,3.77,0,0,0,0-7.54l-1,0a17.35,17.35,0,0,1-16.3-16.3h-29.3a4,4,0,0,0-4,4V85.15Z" style="fill:#677089"/><path d="M202.85,108.52a6.79,6.79,0,0,0,13.59,0Z" style="fill:#c5cae9"/><path d="M184.14,199.48v-49a15.09,15.09,0,0,1,15.09-15.09H220a15.09,15.09,0,0,1,15.09,15.09V197Z" style="fill:#fff"/><path d="M235.14,198a1,1,0,0,1-1-1V150.47A14.11,14.11,0,0,0,220,136.38H199.23A14,14,0,0,0,187.94,142a1,1,0,1,1-1.6-1.2,16,16,0,0,1,12.89-6.46H220a16.11,16.11,0,0,1,16.09,16.09V197A1,1,0,0,1,235.14,198Z" style="fill:#677089"/><path d="M184.14,198a1,1,0,0,1-1-1V150.47a1,1,0,1,1,2,0V197A1,1,0,0,1,184.14,198Z" style="fill:#677089"/><rect x="198.44" y="150.47" width="21.44" height="38.33" rx="6.09" ry="6.09" style="fill:#fff"/><path d="M213.8,189.81h-9.27a7.09,7.09,0,0,1-7.09-7.09V156.56a7.09,7.09,0,0,1,7.09-7.09h9.27a7.09,7.09,0,0,1,7.09,7.09v26.16A7.09,7.09,0,0,1,213.8,189.81Zm-9.27-38.33a5.09,5.09,0,0,0-5.09,5.09v26.16a5.09,5.09,0,0,0,5.09,5.09h9.27a5.09,5.09,0,0,0,5.09-5.09V156.56a5.09,5.09,0,0,0-5.09-5.09Z" style="fill:#677089"/><path d="M214.06,160.65a3.45,3.45,0,1,1-.81-2.22A3.45,3.45,0,0,1,214.06,160.65Z" style="fill:#b2ebf2"/><path d="M209.16,163.65a4.45,4.45,0,1,1,0-8.9,1,1,0,0,1,0,2,2.45,2.45,0,1,0,2.45,2.45,1,1,0,1,1,2,0A4.46,4.46,0,0,1,209.16,163.65Z" style="fill:#677089"/><circle cx="209.16" cy="167.87" r="1.23" style="fill:#677089"/><path d="M219.88,160.65v8.46h-2.12a8.08,8.08,0,0,0-8.17,7.76,7.91,7.91,0,0,0,7.91,8.06h4.11a3.09,3.09,0,0,0,3.09-3.09V163.73a3.09,3.09,0,0,0-3.09-3.09Z" style="fill:#fff"/><path d="M221.61,185.93H217.5a8.91,8.91,0,0,1-8.91-9.08,9.09,9.09,0,0,1,9.17-8.74h1.12v-7.46a1,1,0,0,1,1-1h1.73a4.09,4.09,0,0,1,4.09,4.09v18.11A4.09,4.09,0,0,1,221.61,185.93Zm-3.85-15.82a7.08,7.08,0,0,0-7.17,6.78,6.91,6.91,0,0,0,6.91,7h4.11a2.09,2.09,0,0,0,2.09-2.09V163.73a2.09,2.09,0,0,0-2.09-2.09h-.73v7.46a1,1,0,0,1-1,1Z" style="fill:#677089"/><path d="M115,119.4a4.36,4.36,0,1,1,4.36-4.36A4.37,4.37,0,0,1,115,119.4Zm0-6.72a2.36,2.36,0,1,0,2.36,2.36A2.36,2.36,0,0,0,115,112.68Z" style="fill:#677089"/><path d="M118.56,35.23a3.09,3.09,0,1,1,3.09-3.09A3.09,3.09,0,0,1,118.56,35.23Zm0-4.18a1.09,1.09,0,1,0,1.09,1.09A1.09,1.09,0,0,0,118.56,31Z" style="fill:#677089"/><path d="M336.58,29.57a4.75,4.75,0,1,1,4.75-4.75A4.76,4.76,0,0,1,336.58,29.57Zm0-7.5a2.75,2.75,0,1,0,2.75,2.75A2.75,2.75,0,0,0,336.58,22.07Z" style="fill:#677089"/><path d="M128.16,8.5a4.25,4.25,0,1,1,4.25-4.25A4.26,4.26,0,0,1,128.16,8.5Zm0-6.5a2.25,2.25,0,1,0,2.25,2.25A2.25,2.25,0,0,0,128.16,2Z" style="fill:#677089"/><path d="M340.75,142.2a4.61,4.61,0,1,1,4.61-4.61A4.62,4.62,0,0,1,340.75,142.2Zm0-7.23a2.61,2.61,0,1,0,2.61,2.61A2.62,2.62,0,0,0,340.75,135Z" style="fill:#677089"/><path d="M358.28,168.71a4.61,4.61,0,1,1,4.62-4.61A4.62,4.62,0,0,1,358.28,168.71Zm0-7.23a2.61,2.61,0,1,0,2.62,2.61A2.62,2.62,0,0,0,358.28,161.48Z" style="fill:#677089"/><path d="M65.92,186a3.22,3.22,0,1,1,3.22-3.22A3.22,3.22,0,0,1,65.92,186Zm0-4.44a1.22,1.22,0,1,0,1.22,1.22A1.22,1.22,0,0,0,65.92,181.56Z" style="fill:#677089"/><circle cx="83.58" cy="99.33" r="2.67" style="fill:#677089"/><circle cx="60.92" cy="128.4" r="2.33" style="fill:#677089"/><circle cx="302.85" cy="180.56" r="2.33" style="fill:#677089"/></g><path d="M109.71,144.53a13,13,0,1,1,19.78,11.07v8.93H116.38v-8.66A13,13,0,0,1,109.71,144.53Z" style="fill:#fff"/><path d="M113.52,145.54a1,1,0,0,1-1-1,10.22,10.22,0,0,1,3.32-7.52,1,1,0,0,1,1.35,1.48,8.22,8.22,0,0,0-2.67,6A1,1,0,0,1,113.52,145.54Z" style="fill:#677089"/><path d="M119.13,137.07a1,1,0,0,1-.39-1.92,10.13,10.13,0,0,1,4-.8,1,1,0,0,1,0,2,8.15,8.15,0,0,0-3.19.64A1,1,0,0,1,119.13,137.07Z" style="fill:#677089"/><path d="M129.49,165.54H116.38a1,1,0,0,1-1-1v-8.09a14,14,0,1,1,18-21,1,1,0,0,1-1.52,1.3,12,12,0,1,0-15,18.25,1,1,0,0,1,.51.87v7.66h11.11v-7.93a1,1,0,0,1,.48-.85,12,12,0,0,0,4.68-15.17,1,1,0,0,1,1.82-.83,14,14,0,0,1-5,17.39v8.39A1,1,0,0,1,129.49,165.54Z" style="fill:#677089"/><path d="M129.09,168.59H116.33a1,1,0,0,1,0-2h12.76a1,1,0,0,1,0,2Z" style="fill:#677089"/><path d="M127,171.74h-8.53a1,1,0,0,1,0-2H127a1,1,0,1,1,0,2Z" style="fill:#677089"/><path d="M125.9,175.21h-6.38a1,1,0,0,1,0-2h6.38a1,1,0,1,1,0,2Z" style="fill:#677089"/><path d="M117.94,155.5v5.14h3.21a4.49,4.49,0,0,1,4.49,4.49v6.49a4.49,4.49,0,0,1-4.49,4.49H116.9a3.49,3.49,0,0,1-3.49-3.49V155.5a2.27,2.27,0,0,1,2.27-2.27h0A2.27,2.27,0,0,1,117.94,155.5Z" style="fill:#fff"/><path d="M121.15,177.1H116.9a4.5,4.5,0,0,1-4.49-4.49V155.5a3.27,3.27,0,1,1,6.54,0v4.14h2.21a5.49,5.49,0,0,1,5.49,5.49v6.49A5.49,5.49,0,0,1,121.15,177.1Zm-5.48-22.88a1.27,1.27,0,0,0-1.27,1.27v17.11a2.5,2.5,0,0,0,2.49,2.49h4.25a3.49,3.49,0,0,0,3.49-3.49v-6.49a3.49,3.49,0,0,0-3.49-3.49h-3.21a1,1,0,0,1-1-1V155.5A1.27,1.27,0,0,0,115.67,154.23Z" style="fill:#677089"/><polygon points="284.47 182.92 295.39 182.92 295.39 142.1 289.93 128.4 284.47 142.1 284.47 182.92" style="fill:#fff"/><path d="M295.39,183.92H284.47a1,1,0,0,1-1-1V142.1a1,1,0,0,1,.07-.37L289,128a1,1,0,0,1,1.86,0l5.46,13.7a1,1,0,0,1,.07.37v40.83A1,1,0,0,1,295.39,183.92Zm-9.92-2h8.92V142.29l-4.46-11.19-4.46,11.19Z" style="fill:#677089"/><polygon points="295.39 178.88 284.79 178.88 284.79 182.92 295.79 183.19 295.39 178.88" style="fill:#677089"/><polygon points="292.93 135.92 287.43 135.92 289.93 129.15 292.93 135.92" style="fill:#677089"/><path d="M295.67,150.68v8.46h-2.12a8.08,8.08,0,0,0-8.17,7.76,7.91,7.91,0,0,0,7.91,8.06h4.11a3.09,3.09,0,0,0,3.09-3.09V153.77a3.09,3.09,0,0,0-3.09-3.09Z" style="fill:#fff"/><path d="M297.4,176h-4.11a8.91,8.91,0,0,1-8.91-9.08,9.09,9.09,0,0,1,9.17-8.75h1.12v-7.46a1,1,0,0,1,1-1h1.73a4.09,4.09,0,0,1,4.09,4.09v18.11A4.09,4.09,0,0,1,297.4,176Zm-3.85-15.82a7.08,7.08,0,0,0-7.17,6.78,6.91,6.91,0,0,0,6.91,7h4.11a2.09,2.09,0,0,0,2.09-2.09V153.77a2.09,2.09,0,0,0-2.09-2.09h-.73v7.46a1,1,0,0,1-1,1Z" style="fill:#677089"/></g></g></svg>