<svg xmlns="http://www.w3.org/2000/svg" xmlns:xlink="http://www.w3.org/1999/xlink" viewBox="0 0 515.59 501.31"><defs><clipPath id="clip-path"><circle cx="33.49" cy="219.19" r="14.15" style="fill:none"/></clipPath><clipPath id="clip-path-2"><circle cx="330.82" cy="209.46" r="14.15" style="fill:none"/></clipPath><clipPath id="clip-path-3"><path d="M193.92,163.31H304.52a0,0,0,0,1,0,0V264.85a55.3,55.3,0,0,1-55.3,55.3h0a55.3,55.3,0,0,1-55.3-55.3V163.31a0,0,0,0,1,0,0Z" style="fill:none"/></clipPath><clipPath id="clip-path-4"><path d="M336.36,15.47H447a0,0,0,0,1,0,0V122.09a55.3,55.3,0,0,1-55.3,55.3h0a55.3,55.3,0,0,1-55.3-55.3V15.47a0,0,0,0,1,0,0Z" style="fill:none"/></clipPath><clipPath id="clip-path-5"><path d="M106.43,306.85h0a55.3,55.3,0,0,1,55.3,55.3V468.77a0,0,0,0,1,0,0H51.13a0,0,0,0,1,0,0V362.15a55.3,55.3,0,0,1,55.3-55.3Z" transform="translate(212.86 775.62) rotate(-180)" style="fill:none"/></clipPath><clipPath id="clip-path-6"><path d="M50,3.52H160.58a0,0,0,0,1,0,0V116.74a55.3,55.3,0,0,1-55.3,55.3h0A55.3,55.3,0,0,1,50,116.74V3.52a0,0,0,0,1,0,0Z" style="fill:none"/></clipPath><clipPath id="clip-path-7"><path d="M336.36,303.06H447a0,0,0,0,1,0,0V416.28a55.3,55.3,0,0,1-55.3,55.3h0a55.3,55.3,0,0,1-55.3-55.3V303.06a0,0,0,0,1,0,0Z" style="fill:none"/></clipPath></defs><title>collaborate</title><g id="Layer_2" data-name="Layer 2"><g id="Layer_5" data-name="Layer 5"><circle cx="249.22" cy="261.33" r="219.6" style="fill:none;stroke:#677089;stroke-linecap:round;stroke-linejoin:round;stroke-width:2px;stroke-dasharray:12.10373592376709,12.10373592376709"/><path d="M239.18,239.64q2.26-2,4.61-3.84" style="fill:none;stroke:#677089;stroke-linecap:round;stroke-linejoin:round;stroke-width:2px"/><path d="M253.71,228.72a122.27,122.27,0,0,1,150.8,191" style="fill:none;stroke:#677089;stroke-linecap:round;stroke-linejoin:round;stroke-width:2px;stroke-dasharray:12.198352813720703,12.198352813720703"/><path d="M400,423.83q-2.26,2-4.61,3.83" style="fill:none;stroke:#677089;stroke-linecap:round;stroke-linejoin:round;stroke-width:2px"/><path d="M224.17,274.73q-2-2.26-3.84-4.61" style="fill:none;stroke:#677089;stroke-linecap:round;stroke-linejoin:round;stroke-width:2px"/><path d="M213.25,260.19a122.27,122.27,0,0,1,191-150.8" style="fill:none;stroke:#677089;stroke-linecap:round;stroke-linejoin:round;stroke-width:2px;stroke-dasharray:12.198352813720703,12.198352813720703"/><path d="M408.36,113.88q2,2.26,3.83,4.61" style="fill:none;stroke:#677089;stroke-linecap:round;stroke-linejoin:round;stroke-width:2px"/><path d="M259.26,289.74q-2.26,2-4.61,3.84" style="fill:none;stroke:#677089;stroke-linecap:round;stroke-linejoin:round;stroke-width:2px"/><path d="M244.73,300.66a122.27,122.27,0,0,1-150.8-191" style="fill:none;stroke:#677089;stroke-linecap:round;stroke-linejoin:round;stroke-width:2px;stroke-dasharray:12.198352813720703,12.198352813720703"/><path d="M98.41,105.55q2.26-2,4.61-3.83" style="fill:none;stroke:#677089;stroke-linecap:round;stroke-linejoin:round;stroke-width:2px"/><path d="M274.27,254.65q2,2.26,3.84,4.61" style="fill:none;stroke:#677089;stroke-linecap:round;stroke-linejoin:round;stroke-width:2px"/><path d="M285.19,269.18A122.27,122.27,0,0,1,94.2,420" style="fill:none;stroke:#677089;stroke-linecap:round;stroke-linejoin:round;stroke-width:2px;stroke-dasharray:12.198352813720703,12.198352813720703"/><path d="M90.08,415.49q-2-2.26-3.83-4.61" style="fill:none;stroke:#677089;stroke-linecap:round;stroke-linejoin:round;stroke-width:2px"/><path d="M58.66,277l-44.89.3A12.86,12.86,0,0,0,1,290.26l.12,18.18a12.86,12.86,0,0,0,12.94,12.77l17.07-.11,5.56,5.49A2,2,0,0,0,40,325.17L40,321,59,320.91A12.86,12.86,0,0,0,71.73,308l-.12-18.18A12.86,12.86,0,0,0,58.66,277Z" style="fill:#fff"/><path d="M33.86,277.16l-20.09.15A12.86,12.86,0,0,0,1,290.26l.12,18.18a12.86,12.86,0,0,0,12.94,12.77l17.07-.11,5.56,5.49A2,2,0,0,0,40,325.17L40,321,59,320.91A12.86,12.86,0,0,0,71.73,308l-.12-18.18A12.86,12.86,0,0,0,58.66,277l-15.68.1" style="fill:none;stroke:#677089;stroke-linecap:round;stroke-miterlimit:10;stroke-width:2px"/><rect x="10.31" y="288.09" width="3.08" height="8.38" rx="1.54" ry="1.54" style="fill:#677089"/><rect x="29.61" y="288.09" width="3.08" height="8.38" rx="1.54" ry="1.54" style="fill:#677089"/><circle cx="23.4" cy="305.39" r="2.07" style="fill:#677089"/><path d="M500.91,220.54a13.65,13.65,0,0,0-4.39.72,21.67,21.67,0,0,0-34.59-14.78,17.48,17.48,0,0,0-26.09,14.63,13.68,13.68,0,0,0,3.92,26.78h61.14a13.68,13.68,0,1,0,0-27.36Z" style="fill:#fff"/><path d="M512.52,227a13.68,13.68,0,0,0-16-5.71,21.67,21.67,0,0,0-34.59-14.78,17.48,17.48,0,0,0-26.09,14.63,13.68,13.68,0,0,0,3.92,26.78h61.14a13.62,13.62,0,0,0,8.74-3.16" style="fill:none;stroke:#677089;stroke-linecap:round;stroke-linejoin:round;stroke-width:2px"/><path d="M513.3,240a13.73,13.73,0,0,0,.52-10.36" style="fill:none;stroke:#677089;stroke-linecap:round;stroke-linejoin:round;stroke-width:2px"/><path d="M463,208a17.07,17.07,0,0,1,5.62,7.36" style="fill:none;stroke:#677089;stroke-linecap:round;stroke-linejoin:round;stroke-width:2px"/><path d="M496.05,225.74a17.37,17.37,0,0,1-3.41,9" style="fill:none;stroke:#677089;stroke-linecap:round;stroke-linejoin:round;stroke-width:2px"/><path d="M482.33,238.13a12,12,0,0,0-12-12h0a12,12,0,0,0-12,12V254.8h24V238.13Z" style="fill:#fff"/><path d="M460.8,230.86a11.94,11.94,0,0,0-2.45,7.27V254.8h24V238.13h0a12,12,0,0,0-12-12h0a11.94,11.94,0,0,0-5.4,1.28" style="fill:none;stroke:#677089;stroke-linecap:round;stroke-linejoin:round;stroke-width:2px"/><path d="M461.33,238.13a9,9,0,0,1,9-9h0a9,9,0,0,1,9,9H465.14" style="fill:none;stroke:#677089;stroke-linecap:round;stroke-linejoin:round;stroke-width:2px"/><path d="M472.86,244.75a2.52,2.52,0,1,0-3.89,2.12v4.47h2.73v-4.47A2.52,2.52,0,0,0,472.86,244.75Z" style="fill:#c5cae9"/><path d="M467.82,244.75a2.52,2.52,0,0,0,1.16,2.12v4.47h2.73v-4.47a2.52,2.52,0,0,0-1.36-4.64" style="fill:none;stroke:#677089;stroke-linecap:round;stroke-linejoin:round;stroke-width:2px"/><path d="M316.79,376.91l-38.35-27a3.73,3.73,0,0,0-5.19.9l-44,62.45a3.73,3.73,0,0,0,.9,5.19l48.16,33.92a3.73,3.73,0,0,0,5.19-.9l37.18-52.8Z" style="fill:#fff"/><path d="M236.44,403.07l-7.17,10.18a3.73,3.73,0,0,0,.9,5.19l48.16,33.92a3.73,3.73,0,0,0,5.19-.9l37.18-52.8-3.59-21.53L278.44,349.9a3.73,3.73,0,0,0-5.19.9l-34.31,48.73" style="fill:none;stroke:#677089;stroke-linecap:round;stroke-linejoin:round;stroke-width:2px"/><line x1="315.11" y1="394.73" x2="320.71" y2="398.67" style="fill:none;stroke:#677089;stroke-linecap:round;stroke-linejoin:round;stroke-width:2px"/><polyline points="317.12 377.14 308.18 389.84 311.86 392.44" style="fill:none;stroke:#677089;stroke-linecap:round;stroke-linejoin:round;stroke-width:2px"/><rect x="242" y="418.76" width="47.33" height="3.59" transform="translate(290.6 -76.26) rotate(35.15)" style="fill:#c5cae9"/><rect x="284.9" y="394.95" width="21.22" height="11.78" transform="translate(284.7 -97.04) rotate(35.15)" style="fill:#b2ebf2"/><line x1="273.88" y1="365.55" x2="289.9" y2="376.83" style="fill:none;stroke:#677089;stroke-linecap:round;stroke-linejoin:round;stroke-width:2px"/><line x1="283.15" y1="382.24" x2="310.17" y2="401.28" style="fill:none;stroke:#677089;stroke-linecap:round;stroke-linejoin:round;stroke-width:2px"/><line x1="269.09" y1="372.35" x2="278.59" y2="379.04" style="fill:none;stroke:#677089;stroke-linecap:round;stroke-linejoin:round;stroke-width:2px"/><line x1="264.3" y1="379.15" x2="305.38" y2="408.07" style="fill:none;stroke:#677089;stroke-linecap:round;stroke-linejoin:round;stroke-width:2px"/><line x1="259.52" y1="385.94" x2="300.59" y2="414.87" style="fill:none;stroke:#677089;stroke-linecap:round;stroke-linejoin:round;stroke-width:2px"/><line x1="254.73" y1="392.74" x2="289.07" y2="416.92" style="fill:none;stroke:#677089;stroke-linecap:round;stroke-linejoin:round;stroke-width:2px"/><circle cx="293.58" cy="420.1" r="2.52" transform="translate(-218.93 418.24) rotate(-54.85)" style="fill:none;stroke:#677089;stroke-linecap:round;stroke-linejoin:round;stroke-width:2px"/><line x1="239.6" y1="414.22" x2="280.68" y2="443.15" style="fill:none;stroke:#677089;stroke-linecap:round;stroke-linejoin:round;stroke-width:2px;stroke-dasharray:3,6"/><line x1="278.64" y1="430.94" x2="279.89" y2="438.17" style="fill:none;stroke:#677089;stroke-linecap:round;stroke-linejoin:round;stroke-width:2px"/><line x1="275.65" y1="435.19" x2="283.17" y2="433.88" style="fill:none;stroke:#677089;stroke-linecap:round;stroke-linejoin:round;stroke-width:2px"/><rect x="406.37" y="269.53" width="46" height="31.31" transform="translate(518.75 -222.46) rotate(66.39)" style="fill:#fff"/><polyline points="422.11 263.25 434.51 257.84 452.93 299.99 424.24 312.53 405.82 270.38 413.96 266.82" style="fill:none;stroke:#677089;stroke-linecap:round;stroke-linejoin:round;stroke-width:2px"/><polyline points="434.51 257.84 423.93 287.56 452.93 299.99" style="fill:none;stroke:#677089;stroke-linecap:round;stroke-linejoin:round;stroke-width:2px"/><circle cx="425.69" cy="311.98" r="8.17" transform="translate(-89.31 196.57) rotate(-23.61)" style="fill:#fff"/><path d="M429,319.46a8.17,8.17,0,1,1,4.21-10.76" style="fill:none;stroke:#677089;stroke-linecap:round;stroke-linejoin:round;stroke-width:2px"/><polyline points="425.74 307.1 423.58 312.61 435.52 317.28" style="fill:none;stroke:#677089;stroke-linecap:round;stroke-linejoin:round;stroke-width:2px"/><rect x="90.31" y="267.23" width="47.97" height="32.65" transform="translate(-146.59 124.16) rotate(-36.62)" style="fill:#fff"/><polyline points="93.73 296.09 85.31 284.76 123.81 256.15 143.29 282.35 104.79 310.97 99.26 303.53" style="fill:none;stroke:#677089;stroke-linecap:round;stroke-linejoin:round;stroke-width:2px"/><polyline points="85.31 284.76 118 288.53 123.81 256.15" style="fill:none;stroke:#677089;stroke-linecap:round;stroke-linejoin:round;stroke-width:2px"/><circle cx="142.39" cy="281.01" r="8.52" transform="translate(-139.52 140.42) rotate(-36.62)" style="fill:#fff"/><path d="M149.23,275.93a8.52,8.52,0,1,1-11.92-1.76" style="fill:none;stroke:#677089;stroke-linecap:round;stroke-linejoin:round;stroke-width:2px"/><polyline points="137.43 282.1 143.53 283 145.48 269.78" style="fill:none;stroke:#677089;stroke-linecap:round;stroke-linejoin:round;stroke-width:2px"/><g style="clip-path:url(#clip-path)"><circle cx="33.49" cy="219.19" r="14.15" style="fill:#c5cae9"/><circle cx="33.49" cy="215.01" r="5.36" style="fill:#fff"/><path d="M29.82,221.1h7.33a5.21,5.21,0,0,1,5.21,5.21v7.79a0,0,0,0,1,0,0H24.61a0,0,0,0,1,0,0v-7.79A5.21,5.21,0,0,1,29.82,221.1Z" style="fill:#fff"/><path d="M32.53,218.56h1.92a1.37,1.37,0,0,1,1.37,1.37v3.27a0,0,0,0,1,0,0H31.16a0,0,0,0,1,0,0v-3.27A1.37,1.37,0,0,1,32.53,218.56Z" style="fill:#fff"/></g><circle cx="33.49" cy="219.19" r="14.15" style="fill:none;stroke:#677089;stroke-linecap:round;stroke-miterlimit:10;stroke-width:2px"/><g style="clip-path:url(#clip-path-2)"><circle cx="330.82" cy="209.46" r="14.15" style="fill:#c5cae9"/><circle cx="330.82" cy="205.28" r="5.36" style="fill:#fff"/><path d="M327.15,211.37h7.33a5.21,5.21,0,0,1,5.21,5.21v7.79a0,0,0,0,1,0,0H321.94a0,0,0,0,1,0,0v-7.79A5.21,5.21,0,0,1,327.15,211.37Z" style="fill:#fff"/><path d="M329.86,208.83h1.92a1.37,1.37,0,0,1,1.37,1.37v3.27a0,0,0,0,1,0,0h-4.66a0,0,0,0,1,0,0V210.2A1.37,1.37,0,0,1,329.86,208.83Z" style="fill:#fff"/></g><circle cx="330.82" cy="209.46" r="14.15" style="fill:none;stroke:#677089;stroke-linecap:round;stroke-miterlimit:10;stroke-width:2px"/><path d="M281.17,51.38h6.54a6.54,6.54,0,0,1,6.54,6.54v6.54a0,0,0,0,1,0,0H281.17a0,0,0,0,1,0,0V51.38A0,0,0,0,1,281.17,51.38Z" transform="translate(311.18 -234.63) rotate(83.2)" style="fill:#fafafa;stroke:#677089;stroke-linecap:round;stroke-linejoin:round;stroke-width:2px"/><path d="M173.81,21.89h6.54a6.54,6.54,0,0,1,6.54,6.54V35a0,0,0,0,1,0,0H173.81a0,0,0,0,1,0,0V21.89A0,0,0,0,1,173.81,21.89Z" transform="translate(173.47 210.9) rotate(-96.8)" style="fill:#fafafa;stroke:#677089;stroke-linecap:round;stroke-linejoin:round;stroke-width:2px"/><path d="M281.17,51.38h6.54a6.54,6.54,0,0,1,6.54,6.54v6.54a0,0,0,0,1,0,0H281.17a0,0,0,0,1,0,0V51.38A0,0,0,0,1,281.17,51.38Z" transform="translate(311.18 -234.63) rotate(83.2)" style="fill:none;stroke:#677089;stroke-linecap:round;stroke-linejoin:round;stroke-width:2px"/><path d="M294.22,57.15l-.77-6.5-2.65-22.2a6.54,6.54,0,0,0-7.27-5.72l-48.94,5.83h0l-53.45,6.37h0a6.54,6.54,0,0,1-7.27-5.72l.77,6.5,2.65,22.2a6.54,6.54,0,0,0,7.27,5.72L238,57.27l3.66-.44L290.61,51C290.53,51,293.79,53.56,294.22,57.15Z" style="fill:#fff"/><path d="M255.66,55.16l31.29-3.73a6.54,6.54,0,0,1,7.27,5.72l-.77-6.5-2.65-22.2a6.54,6.54,0,0,0-7.27-5.72l-48.94,5.83h0l-53.45,6.37h0a6.54,6.54,0,0,1-7.27-5.72l.77,6.5,2.65,22.2a6.54,6.54,0,0,0,7.27,5.72L238,57.27h0l17.76-2.12" style="fill:none;stroke:#677089;stroke-linecap:round;stroke-linejoin:round;stroke-width:2px"/><circle cx="228.82" cy="46.37" r="5.45" transform="translate(-3.88 27.41) rotate(-6.8)" style="fill:#b2ebf2"/><rect x="264.84" y="33.55" width="17.04" height="10.95" transform="translate(279.75 -237.04) rotate(83.2)" style="fill:#c5cae9"/><line x1="280.17" y1="26.06" x2="282.82" y2="48.26" style="fill:none;stroke:#677089;stroke-linecap:round;stroke-linejoin:round;stroke-width:2px"/><line x1="276.13" y1="37.8" x2="277.45" y2="48.9" style="fill:none;stroke:#677089;stroke-linecap:round;stroke-linejoin:round;stroke-width:2px"/><line x1="274.8" y1="26.7" x2="275.7" y2="34.2" style="fill:none;stroke:#677089;stroke-linecap:round;stroke-linejoin:round;stroke-width:2px"/><line x1="269.43" y1="27.34" x2="272.08" y2="49.54" style="fill:none;stroke:#677089;stroke-linecap:round;stroke-linejoin:round;stroke-width:2px"/><line x1="264.06" y1="27.98" x2="266.71" y2="50.18" style="fill:none;stroke:#677089;stroke-linecap:round;stroke-linejoin:round;stroke-width:2px"/><line x1="258.69" y1="28.62" x2="260.71" y2="45.5" style="fill:none;stroke:#677089;stroke-linecap:round;stroke-linejoin:round;stroke-width:2px"/><circle cx="261.13" cy="49.06" r="1.64" transform="translate(-3.97 31.26) rotate(-6.8)" style="fill:none;stroke:#677089;stroke-linecap:round;stroke-linejoin:round;stroke-width:2px"/><line x1="241.72" y1="30.64" x2="244.37" y2="52.84" style="fill:none;stroke:#677089;stroke-linecap:round;stroke-linejoin:round;stroke-width:2px;stroke-dasharray:3,6"/><line x1="249.39" y1="46.55" x2="246.44" y2="50.3" style="fill:none;stroke:#677089;stroke-linecap:round;stroke-linejoin:round;stroke-width:2px"/><line x1="246.04" y1="46.95" x2="249.94" y2="50.02" style="fill:none;stroke:#677089;stroke-linecap:round;stroke-linejoin:round;stroke-width:2px"/><path d="M218.38,48.92l.83,6.92" style="fill:none;stroke:#677089;stroke-linecap:round;stroke-linejoin:round;stroke-width:2px"/><path d="M216.56,33.64l1.3,10.88" style="fill:none;stroke:#677089;stroke-linecap:round;stroke-linejoin:round;stroke-width:2px"/><line x1="211.19" y1="34.28" x2="213.2" y2="51.16" style="fill:none;stroke:#677089;stroke-linecap:round;stroke-linejoin:round;stroke-width:2px"/><circle cx="213.63" cy="54.72" r="1.64" transform="translate(-4.98 25.67) rotate(-6.8)" style="fill:none;stroke:#677089;stroke-linecap:round;stroke-linejoin:round;stroke-width:2px"/><line x1="194.22" y1="36.3" x2="196.87" y2="58.51" style="fill:none;stroke:#677089;stroke-linecap:round;stroke-linejoin:round;stroke-width:2px;stroke-dasharray:3,6"/><line x1="201.89" y1="52.21" x2="198.94" y2="55.96" style="fill:none;stroke:#677089;stroke-linecap:round;stroke-linejoin:round;stroke-width:2px"/><line x1="198.54" y1="52.61" x2="202.44" y2="55.68" style="fill:none;stroke:#677089;stroke-linecap:round;stroke-linejoin:round;stroke-width:2px"/><path d="M223.88,42.6l1.44-.17a4.2,4.2,0,0,1,.37-2.26l1,.23a3.84,3.84,0,0,0-.37,2.13c.12,1,.79,1.63,1.6,1.53s1.21-.71,1.51-1.82c.4-1.53.95-2.51,2.19-2.66a2.36,2.36,0,0,1,2.56,1.89l1.44-.17.11.89-1.39.17a3.84,3.84,0,0,1-.28,1.92l-1-.24a3.48,3.48,0,0,0,.27-1.86c-.13-1.1-.84-1.44-1.41-1.37-.74.09-1.05.66-1.42,2-.43,1.54-1.08,2.38-2.35,2.53a2.51,2.51,0,0,1-2.7-2L224,43.5Z" style="fill:#677089"/><rect x="193.62" y="39.21" width="7.32" height="3.22" transform="translate(214.45 -159.91) rotate(83.2)" style="fill:#c5cae9"/><rect x="184.87" y="48.12" width="7.07" height="4.27" transform="translate(216.01 -142.77) rotate(83.2)" style="fill:#c5cae9"/><path d="M278,457.35H316.6a11,11,0,0,1,11,11V484a11,11,0,0,1-11,11H301.94l-4.75,4.75a1.69,1.69,0,0,1-2.89-1.2v-3.55H278a11,11,0,0,1-11-11V468.4A11,11,0,0,1,278,457.35Z" style="fill:#fff"/><path d="M327.65,468.4V484a11,11,0,0,1-11,11H301.94l-4.75,4.75a1.69,1.69,0,0,1-2.89-1.2v-3.55H278a11,11,0,0,1-11-11V468.4a11,11,0,0,1,11-11h34" style="fill:none;stroke:#677089;stroke-linecap:round;stroke-miterlimit:10;stroke-width:2px"/><circle cx="308.37" cy="476.29" r="3.62" style="fill:none;stroke:#677089;stroke-linecap:round;stroke-miterlimit:10;stroke-width:2px"/><circle cx="296.31" cy="476.29" r="3.62" style="fill:none;stroke:#677089;stroke-linecap:round;stroke-miterlimit:10;stroke-width:2px"/><circle cx="284.26" cy="476.29" r="3.62" style="fill:none;stroke:#677089;stroke-linecap:round;stroke-miterlimit:10;stroke-width:2px"/></g><g id="Layer_6" data-name="Layer 6"><circle cx="43.95" cy="157.66" r="3.69" style="fill:none;stroke:#c5cae9;stroke-miterlimit:10;stroke-width:3px"/><circle cx="145.48" cy="245.42" r="3.69" style="fill:none;stroke:#c5cae9;stroke-miterlimit:10;stroke-width:3px"/><circle cx="289.9" cy="143.16" r="3.69" style="fill:none;stroke:#c5cae9;stroke-miterlimit:10;stroke-width:3px"/><circle cx="15.54" cy="352.91" r="3.69" style="fill:none;stroke:#c5cae9;stroke-miterlimit:10;stroke-width:3px"/><circle cx="213.63" cy="416.92" r="3.69" style="fill:none;stroke:#c5cae9;stroke-miterlimit:10;stroke-width:3px"/><circle cx="348.66" cy="480.92" r="3.69" style="fill:none;stroke:#c5cae9;stroke-miterlimit:10;stroke-width:3px"/><circle cx="368.64" cy="292.29" r="3.69" style="fill:none;stroke:#c5cae9;stroke-miterlimit:10;stroke-width:3px"/><circle cx="496.05" cy="274.17" r="3.69" style="fill:none;stroke:#c5cae9;stroke-miterlimit:10;stroke-width:3px"/><line x1="181.99" y1="124.2" x2="186.91" y2="129.12" style="fill:none;stroke:#c5cae9;stroke-miterlimit:10;stroke-width:3px"/><line x1="181.99" y1="129.12" x2="186.91" y2="124.2" style="fill:none;stroke:#c5cae9;stroke-miterlimit:10;stroke-width:3px"/><line x1="328.36" y1="1.06" x2="333.27" y2="5.98" style="fill:none;stroke:#c5cae9;stroke-miterlimit:10;stroke-width:3px"/><line x1="328.36" y1="5.98" x2="333.27" y2="1.06" style="fill:none;stroke:#c5cae9;stroke-miterlimit:10;stroke-width:3px"/><line x1="403.36" y1="209.27" x2="408.28" y2="214.19" style="fill:none;stroke:#c5cae9;stroke-miterlimit:10;stroke-width:3px"/><line x1="403.36" y1="214.19" x2="408.28" y2="209.27" style="fill:none;stroke:#c5cae9;stroke-miterlimit:10;stroke-width:3px"/></g><g id="Layer_4" data-name="Layer 4"><g id="Layer_3" data-name="Layer 3"><circle cx="249.22" cy="264.69" r="56.44" style="fill:#b2ebf2"/><circle cx="249.22" cy="264.69" r="56.44" style="fill:none;stroke:#677089;stroke-linecap:round;stroke-linejoin:round;stroke-width:2px"/><g style="clip-path:url(#clip-path-3)"><path d="M209.62,325.81V286a16.71,16.71,0,0,1,10.21-15.39l29.39-12.42,29.39,12.42A16.71,16.71,0,0,1,288.82,286v39.78" style="fill:#fff"/><path d="M209.62,325.81V286a16.71,16.71,0,0,1,10.21-15.39l29.39-12.42,29.39,12.42A16.71,16.71,0,0,1,288.82,286v39.78" style="fill:none;stroke:#677089;stroke-linecap:round;stroke-linejoin:round;stroke-width:2px"/><line x1="224.53" y1="325.81" x2="224.53" y2="296.89" style="fill:none;stroke:#677089;stroke-linecap:round;stroke-linejoin:round;stroke-width:2px"/><line x1="224.53" y1="300.47" x2="214.17" y2="300.47" style="fill:none;stroke:#677089;stroke-linecap:round;stroke-linejoin:round;stroke-width:2px"/><line x1="273.17" y1="325.81" x2="273.17" y2="296.89" style="fill:none;stroke:#677089;stroke-linecap:round;stroke-linejoin:round;stroke-width:2px"/><line x1="273.17" y1="300.47" x2="283.53" y2="300.47" style="fill:none;stroke:#677089;stroke-linecap:round;stroke-linejoin:round;stroke-width:2px"/><path d="M238.81,245.14h20.82a0,0,0,0,1,0,0v21.68a10.41,10.41,0,0,1-10.41,10.41h0a10.41,10.41,0,0,1-10.41-10.41V245.14a0,0,0,0,1,0,0Z" style="fill:#fff"/><path d="M238.81,242.18h20.82a0,0,0,0,1,0,0v21.68a10.41,10.41,0,0,1-10.41,10.41h0a10.41,10.41,0,0,1-10.41-10.41V242.18a0,0,0,0,1,0,0Z" style="fill:none;stroke:#677089;stroke-linecap:round;stroke-linejoin:round;stroke-width:2px"/><circle cx="209.62" cy="226.05" r="11.15" style="fill:#fff"/><circle cx="209.62" cy="226.05" r="11.15" style="fill:none;stroke:#677089;stroke-linecap:round;stroke-linejoin:round;stroke-width:2px"/><path d="M215.31,226a5.69,5.69,0,1,1-11.38,0" style="fill:none;stroke:#677089;stroke-linecap:round;stroke-linejoin:round;stroke-width:2px"/><circle cx="288.82" cy="226.05" r="11.15" style="fill:#fff"/><circle cx="288.82" cy="226.05" r="11.15" style="fill:none;stroke:#677089;stroke-linecap:round;stroke-linejoin:round;stroke-width:2px"/><path d="M294.51,226a5.69,5.69,0,1,1-11.38,0" style="fill:none;stroke:#677089;stroke-linecap:round;stroke-linejoin:round;stroke-width:2px"/><rect x="209.62" y="168.47" width="79.2" height="92.86" rx="39.6" ry="39.6" style="fill:#fff"/><rect x="209.62" y="168.47" width="79.2" height="92.86" rx="39.6" ry="39.6" style="fill:none;stroke:#677089;stroke-linecap:round;stroke-linejoin:round;stroke-width:2px"/><rect x="202.48" y="194.29" width="14.28" height="26.75" rx="7.14" ry="7.14" style="fill:#c5cae9"/><rect x="281.68" y="194.29" width="14.28" height="26.75" rx="7.14" ry="7.14" style="fill:#c5cae9"/><rect x="202.48" y="194.29" width="14.28" height="26.75" rx="7.14" ry="7.14" style="fill:none;stroke:#677089;stroke-linecap:round;stroke-linejoin:round;stroke-width:2px"/><rect x="281.68" y="194.29" width="14.28" height="26.75" rx="7.14" ry="7.14" style="fill:none;stroke:#677089;stroke-linecap:round;stroke-linejoin:round;stroke-width:2px"/><line x1="224.13" y1="207" x2="241.54" y2="207" style="fill:none;stroke:#677089;stroke-linecap:round;stroke-linejoin:round;stroke-width:2px"/><circle cx="232.83" cy="210.14" r="3.67" style="fill:#677089"/><line x1="256.45" y1="207" x2="273.86" y2="207" style="fill:none;stroke:#677089;stroke-linecap:round;stroke-linejoin:round;stroke-width:2px"/><circle cx="265.15" cy="210.14" r="3.67" style="fill:#677089"/><path d="M239.94,226.33a9.28,9.28,0,0,0,18.55,0Z" style="fill:#c5cae9"/></g><circle cx="391.66" cy="121.92" r="56.44" style="fill:#b2ebf2"/><circle cx="391.66" cy="121.92" r="56.44" style="fill:none;stroke:#677089;stroke-linecap:round;stroke-linejoin:round;stroke-width:2px"/><g style="clip-path:url(#clip-path-4)"><path d="M441.22,196.59H342.1V76.68a49.56,49.56,0,0,1,49.56-49.56h0a49.56,49.56,0,0,1,49.56,49.56Z" style="fill:#c5cae9"/><path d="M342.1,196.59V76.68a49.56,49.56,0,0,1,49.56-49.56h0a49.56,49.56,0,0,1,49.56,49.56V196.59" style="fill:none;stroke:#677089;stroke-linecap:round;stroke-linejoin:round;stroke-width:2px"/><path d="M365.86,196.82V157a10.89,10.89,0,0,1,6.65-10l19.15-8.09L410.81,147a10.89,10.89,0,0,1,6.65,10v39.79" style="fill:#fff"/><path d="M365.86,196.82V157a10.89,10.89,0,0,1,6.65-10l19.15-8.09L410.81,147a10.89,10.89,0,0,1,6.65,10v39.79" style="fill:none;stroke:#677089;stroke-linecap:round;stroke-linejoin:round;stroke-width:2px"/><line x1="375.57" y1="196.82" x2="375.57" y2="164.1" style="fill:none;stroke:#677089;stroke-linecap:round;stroke-linejoin:round;stroke-width:2px"/><line x1="375.57" y1="166.44" x2="368.83" y2="166.44" style="fill:none;stroke:#677089;stroke-linecap:round;stroke-linejoin:round;stroke-width:2px"/><line x1="407.27" y1="196.82" x2="407.27" y2="164.1" style="fill:none;stroke:#677089;stroke-linecap:round;stroke-linejoin:round;stroke-width:2px"/><line x1="407.27" y1="166.44" x2="414.01" y2="166.44" style="fill:none;stroke:#677089;stroke-linecap:round;stroke-linejoin:round;stroke-width:2px"/><path d="M391.66,164.22h0c-3.75,0-6.78-16-6.78-19.71V130.39h13.57v14.12C398.44,148.26,395.41,164.22,391.66,164.22Z" style="fill:#fff"/><path d="M391.66,162.29h0c-3.75,0-6.78-16-6.78-19.71V128.46h13.57v14.12C398.44,146.33,395.41,162.29,391.66,162.29Z" style="fill:none;stroke:#677089;stroke-linecap:round;stroke-linejoin:round;stroke-width:2px"/><path d="M422.86,84.08h0a19.74,19.74,0,0,1-19.74-19.74H364.89a4.43,4.43,0,0,0-4.43,4.43V84.08a5.77,5.77,0,0,0,0,11.53v6.85c0,17,13.33,31.37,30.32,31.84a31.2,31.2,0,0,0,32.08-31.19v-7.5a5.77,5.77,0,1,0,0-11.53Z" style="fill:#fff"/><path d="M422.86,84.08h0a19.74,19.74,0,0,1-19.74-19.74H366.51a6,6,0,0,0-6,6V84.08a5.77,5.77,0,0,0,0,11.53v6.85c0,17,13.33,31.37,30.32,31.84a31.2,31.2,0,0,0,32.08-31.19v-7.5a5.77,5.77,0,1,0,0-11.53Z" style="fill:none;stroke:#677089;stroke-linecap:round;stroke-miterlimit:10;stroke-width:2px"/><path d="M383.45,113.55a8.22,8.22,0,0,0,16.43,0Z" style="fill:#c5cae9"/><line x1="391.66" y1="162.29" x2="391.66" y2="156.78" style="fill:none;stroke:#677089;stroke-linecap:round;stroke-linejoin:round;stroke-width:2px"/></g><circle cx="106.43" cy="413.31" r="56.44" style="fill:#b2ebf2"/><circle cx="106.43" cy="413.31" r="56.44" style="fill:none;stroke:#677089;stroke-linecap:round;stroke-linejoin:round;stroke-width:2px"/><g style="clip-path:url(#clip-path-5)"><rect x="56.87" y="318.5" width="99.12" height="101.34" rx="49.56" ry="49.56" style="fill:#c5cae9"/><rect x="56.87" y="318.5" width="99.12" height="101.34" rx="49.56" ry="49.56" style="fill:none;stroke:#677089;stroke-linecap:round;stroke-linejoin:round;stroke-width:2px"/><path d="M132.23,488.2V448.41a10.89,10.89,0,0,0-6.65-10l-19.15-8.09-19.15,8.09a10.89,10.89,0,0,0-6.65,10V488.2" style="fill:#fff"/><path d="M132.23,488.2V448.41a10.89,10.89,0,0,0-6.65-10l-19.15-8.09-19.15,8.09a10.89,10.89,0,0,0-6.65,10V488.2" style="fill:none;stroke:#677089;stroke-linecap:round;stroke-linejoin:round;stroke-width:2px"/><line x1="122.52" y1="488.2" x2="122.52" y2="455.49" style="fill:none;stroke:#677089;stroke-linecap:round;stroke-linejoin:round;stroke-width:2px"/><line x1="122.52" y1="457.82" x2="129.26" y2="457.82" style="fill:none;stroke:#677089;stroke-linecap:round;stroke-linejoin:round;stroke-width:2px"/><line x1="90.82" y1="488.2" x2="90.82" y2="455.49" style="fill:none;stroke:#677089;stroke-linecap:round;stroke-linejoin:round;stroke-width:2px"/><line x1="90.82" y1="457.82" x2="84.08" y2="457.82" style="fill:none;stroke:#677089;stroke-linecap:round;stroke-linejoin:round;stroke-width:2px"/><path d="M106.43,455.6h0c3.75,0,6.78-16,6.78-19.71V421.77H99.65V435.9C99.65,439.64,102.68,455.6,106.43,455.6Z" style="fill:#fff"/><path d="M106.43,453.67h0c3.75,0,6.78-16,6.78-19.71V419.84H99.65V434C99.65,437.71,102.68,453.67,106.43,453.67Z" style="fill:none;stroke:#677089;stroke-linecap:round;stroke-linejoin:round;stroke-width:2px"/><path d="M75.23,375.46h0A19.74,19.74,0,0,0,95,355.71H133.2a4.43,4.43,0,0,1,4.43,4.43v15.32a5.77,5.77,0,0,1,0,11.53v6.85c0,17-13.33,31.37-30.32,31.84a31.2,31.2,0,0,1-32.08-31.19V387a5.77,5.77,0,1,1,0-11.53Z" style="fill:#fff"/><path d="M75.23,375.46h0A19.74,19.74,0,0,0,95,355.71h36.61a6,6,0,0,1,6,6v13.71a5.77,5.77,0,0,1,0,11.53v6.85c0,17-13.33,31.37-30.32,31.84a31.2,31.2,0,0,1-32.08-31.19V387a5.77,5.77,0,1,1,0-11.53Z" style="fill:none;stroke:#677089;stroke-linecap:round;stroke-miterlimit:10;stroke-width:2px"/><circle cx="92.12" cy="386.01" r="3.25" style="fill:#677089"/><circle cx="120.74" cy="386.01" r="3.25" style="fill:#677089"/></g><circle cx="105.29" cy="116.57" r="56.44" style="fill:#b2ebf2"/><circle cx="105.29" cy="116.57" r="56.44" style="fill:none;stroke:#677089;stroke-linecap:round;stroke-linejoin:round;stroke-width:2px"/><g style="clip-path:url(#clip-path-6)"><path d="M70.22,193.11V147a14.8,14.8,0,0,1,9-13.63l26-11,26,11a14.8,14.8,0,0,1,9,13.63v46.12" style="fill:#fff"/><path d="M70.22,193.11V147a14.8,14.8,0,0,1,9-13.63l26-11,26,11a14.8,14.8,0,0,1,9,13.63v46.12" style="fill:none;stroke:#677089;stroke-linecap:round;stroke-linejoin:round;stroke-width:2px"/><line x1="83.42" y1="193.11" x2="83.42" y2="156.6" style="fill:none;stroke:#677089;stroke-linecap:round;stroke-linejoin:round;stroke-width:2px"/><line x1="83.42" y1="159.78" x2="74.25" y2="159.78" style="fill:none;stroke:#677089;stroke-linecap:round;stroke-linejoin:round;stroke-width:2px"/><line x1="126.5" y1="193.11" x2="126.5" y2="156.6" style="fill:none;stroke:#677089;stroke-linecap:round;stroke-linejoin:round;stroke-width:2px"/><line x1="126.5" y1="159.78" x2="135.67" y2="159.78" style="fill:none;stroke:#677089;stroke-linecap:round;stroke-linejoin:round;stroke-width:2px"/><path d="M96.07,110.77h18.44a0,0,0,0,1,0,0V130a9.22,9.22,0,0,1-9.22,9.22h0A9.22,9.22,0,0,1,96.07,130v-19.2a0,0,0,0,1,0,0Z" style="fill:#fff"/><path d="M96.07,108.15h18.44a0,0,0,0,1,0,0v19.2a9.22,9.22,0,0,1-9.22,9.22h0a9.22,9.22,0,0,1-9.22-9.22v-19.2A0,0,0,0,1,96.07,108.15Z" style="fill:none;stroke:#677089;stroke-linecap:round;stroke-linejoin:round;stroke-width:2px"/><circle cx="70.22" cy="78.25" r="9.88" style="fill:#fff"/><circle cx="70.22" cy="78.25" r="9.88" style="fill:none;stroke:#677089;stroke-linecap:round;stroke-linejoin:round;stroke-width:2px"/><path d="M75.25,78.25a5,5,0,0,1-10.08,0" style="fill:none;stroke:#677089;stroke-linecap:round;stroke-linejoin:round;stroke-width:2px"/><circle cx="140.36" cy="78.25" r="9.88" style="fill:#fff"/><circle cx="140.36" cy="78.25" r="9.88" style="fill:none;stroke:#677089;stroke-linecap:round;stroke-linejoin:round;stroke-width:2px"/><path d="M145.4,78.25a5,5,0,0,1-10.08,0" style="fill:none;stroke:#677089;stroke-linecap:round;stroke-linejoin:round;stroke-width:2px"/><rect x="70.22" y="26.65" width="70.14" height="94.33" rx="35.07" ry="35.07" style="fill:#fff"/><rect x="70.22" y="26.65" width="70.14" height="94.33" rx="35.07" ry="35.07" style="fill:none;stroke:#677089;stroke-linecap:round;stroke-linejoin:round;stroke-width:2px"/><path d="M118.94,17.91C97.33,11.56,70.22,30.75,70.22,42.18V89.56a35.07,35.07,0,0,0,35.07,35.07h0a35.07,35.07,0,0,0,35.07-35.07V42.18C140.36,30.75,137.91,23.48,118.94,17.91Zm17.38,64.37a5.92,5.92,0,0,1-3.24,5.28l-4.95,2.51a50.45,50.45,0,0,1-18.27,5.24v1.58a4.75,4.75,0,0,1-4.33,4.83,4.58,4.58,0,0,1-4.82-4.57V95.3a50.45,50.45,0,0,1-18.27-5.24l-4.95-2.51a5.92,5.92,0,0,1-3.24-5.28V48.77c9.17,7.72,30.25.65,43.49-1.38,9.58-1.47,14.63.29,18.59,4.26h0Z" style="fill:#c5cae9"/><path d="M118.94,17.91C97.33,11.56,70.22,30.75,70.22,42.18V89.56a35.07,35.07,0,0,0,35.07,35.07h0a35.07,35.07,0,0,0,35.07-35.07V42.18C140.36,30.75,137.91,23.48,118.94,17.91Zm17.38,64.37a5.92,5.92,0,0,1-3.24,5.28l-4.95,2.51a50.45,50.45,0,0,1-18.27,5.24v1.58a4.75,4.75,0,0,1-4.33,4.83,4.58,4.58,0,0,1-4.82-4.57V95.3a50.45,50.45,0,0,1-18.27-5.24l-4.95-2.51a5.92,5.92,0,0,1-3.24-5.28V48.77c9.17,7.72,30.25.65,43.49-1.38,9.58-1.47,14.63.29,18.59,4.26h0Z" style="fill:none;stroke:#677089;stroke-linecap:round;stroke-linejoin:round;stroke-width:2px"/><path d="M84.19,75.8a5.83,5.83,0,1,1,11.66,0" style="fill:none;stroke:#677089;stroke-linecap:round;stroke-linejoin:round;stroke-width:2px"/><path d="M113.88,75.8a5.83,5.83,0,1,1,11.66,0" style="fill:none;stroke:#677089;stroke-linecap:round;stroke-linejoin:round;stroke-width:2px"/></g><circle cx="391.66" cy="416.12" r="56.44" style="fill:#b2ebf2"/><circle cx="391.66" cy="416.12" r="56.44" style="fill:none;stroke:#677089;stroke-linecap:round;stroke-linejoin:round;stroke-width:2px"/><g style="clip-path:url(#clip-path-7)"><path d="M356.59,492.66V446.54a14.8,14.8,0,0,1,9-13.63l26-11,26,11a14.8,14.8,0,0,1,9,13.63v46.12" style="fill:#fff"/><path d="M356.59,492.66V446.54a14.8,14.8,0,0,1,9-13.63l26-11,26,11a14.8,14.8,0,0,1,9,13.63v46.12" style="fill:none;stroke:#677089;stroke-linecap:round;stroke-linejoin:round;stroke-width:2px"/><line x1="369.79" y1="492.66" x2="369.79" y2="456.15" style="fill:none;stroke:#677089;stroke-linecap:round;stroke-linejoin:round;stroke-width:2px"/><line x1="369.79" y1="459.32" x2="360.62" y2="459.32" style="fill:none;stroke:#677089;stroke-linecap:round;stroke-linejoin:round;stroke-width:2px"/><line x1="412.87" y1="492.66" x2="412.87" y2="456.15" style="fill:none;stroke:#677089;stroke-linecap:round;stroke-linejoin:round;stroke-width:2px"/><line x1="412.87" y1="459.32" x2="422.05" y2="459.32" style="fill:none;stroke:#677089;stroke-linecap:round;stroke-linejoin:round;stroke-width:2px"/><path d="M382.44,410.32h18.44a0,0,0,0,1,0,0v19.2a9.22,9.22,0,0,1-9.22,9.22h0a9.22,9.22,0,0,1-9.22-9.22v-19.2A0,0,0,0,1,382.44,410.32Z" style="fill:#fff"/><path d="M382.44,407.7h18.44a0,0,0,0,1,0,0v19.2a9.22,9.22,0,0,1-9.22,9.22h0a9.22,9.22,0,0,1-9.22-9.22V407.7A0,0,0,0,1,382.44,407.7Z" style="fill:none;stroke:#677089;stroke-linecap:round;stroke-linejoin:round;stroke-width:2px"/><circle cx="356.59" cy="377.79" r="9.88" style="fill:#fff"/><circle cx="356.59" cy="377.79" r="9.88" style="fill:none;stroke:#677089;stroke-linecap:round;stroke-linejoin:round;stroke-width:2px"/><path d="M361.63,377.79a5,5,0,1,1-10.08,0" style="fill:none;stroke:#677089;stroke-linecap:round;stroke-linejoin:round;stroke-width:2px"/><circle cx="426.73" cy="377.79" r="9.88" style="fill:#fff"/><circle cx="426.73" cy="377.79" r="9.88" style="fill:none;stroke:#677089;stroke-linecap:round;stroke-linejoin:round;stroke-width:2px"/><path d="M431.77,377.79a5,5,0,0,1-10.08,0" style="fill:none;stroke:#677089;stroke-linecap:round;stroke-linejoin:round;stroke-width:2px"/><rect x="356.59" y="326.19" width="70.14" height="94.33" rx="35.07" ry="35.07" style="fill:#fff"/><rect x="356.59" y="326.19" width="70.14" height="94.33" rx="35.07" ry="35.07" style="fill:none;stroke:#677089;stroke-linecap:round;stroke-linejoin:round;stroke-width:2px"/><path d="M422.7,367v14.78a5.92,5.92,0,0,1-3.24,5.28l-4.95,2.51a50.45,50.45,0,0,1-18.27,5.24v.59a4.74,4.74,0,0,1-4.17,4.8,4.58,4.58,0,0,1-5-4.56v-.83a50.45,50.45,0,0,1-18.27-5.24l-4.95-2.51a5.92,5.92,0,0,1-3.24-5.28V367a4,4,0,0,0-4-4h0v26.1a35.07,35.07,0,0,0,35.07,35.07h0a35.07,35.07,0,0,0,35.07-35.07V363h0A4,4,0,0,0,422.7,367Z" style="fill:#c5cae9"/><path d="M422.7,367v14.78a5.92,5.92,0,0,1-3.24,5.28l-4.95,2.51a50.45,50.45,0,0,1-18.27,5.24v.64a4.74,4.74,0,0,1-4.17,4.8,4.58,4.58,0,0,1-5-4.56v-.88a50.45,50.45,0,0,1-18.27-5.24l-4.95-2.51a5.92,5.92,0,0,1-3.24-5.28V367a4,4,0,0,0-4-4h0v26.1a35.07,35.07,0,0,0,35.07,35.07h0a35.07,35.07,0,0,0,35.07-35.07V363h0A4,4,0,0,0,422.7,367Z" style="fill:none;stroke:#677089;stroke-linecap:round;stroke-linejoin:round;stroke-width:2px"/><path d="M383.45,407.9a8.22,8.22,0,0,0,16.43,0Z" style="fill:#fff"/></g></g></g></g></svg>