<svg id="Layer_1" data-name="Layer 1" xmlns="http://www.w3.org/2000/svg" viewBox="0 0 512 512"><title>communication</title><path d="M456.4,111.27H360.21a7.5,7.5,0,0,0,0,15H456.4a7.5,7.5,0,0,0,0-15Z" style="fill:#281ec1"/><path d="M328.14,111.27H296.08a7.5,7.5,0,0,0,0,15h32.06a7.5,7.5,0,1,0,0-15Z" style="fill:#281ec1"/><path d="M456.4,143.33h-16a7.5,7.5,0,0,0,0,15h16a7.5,7.5,0,0,0,0-15Z" style="fill:#281ec1"/><path d="M408.31,143.33H296.08a7.5,7.5,0,0,0,0,15H408.31a7.5,7.5,0,0,0,0-15Z" style="fill:#281ec1"/><path d="M480.45,79.2H272a31.58,31.58,0,0,0-31.55,31.55v48.1A31.58,31.58,0,0,0,272,190.4H397.79L443.91,225a15.52,15.52,0,0,0,24.61-15l-3.27-19.63h15.19A31.58,31.58,0,0,0,512,158.85v-48.1A31.59,31.59,0,0,0,480.45,79.2ZM497,158.85h0a16.57,16.57,0,0,1-16.55,16.55h-24a7.5,7.5,0,0,0-7.4,8.73l4.73,28.36a.52.52,0,0,1-.82.5L404.79,176.9a7.5,7.5,0,0,0-4.5-1.5H272a16.57,16.57,0,0,1-16.55-16.55v-48.1A16.57,16.57,0,0,1,272,94.2H480.45A16.57,16.57,0,0,1,497,110.75Z" style="fill:#281ec1"/><path d="M151.79,289.52H55.6a7.5,7.5,0,0,0,0,15h96.19a7.5,7.5,0,0,0,0-15Z" style="fill:#281ec1"/><path d="M215.92,289.52H183.86a7.5,7.5,0,0,0,0,15h32.06a7.5,7.5,0,0,0,0-15Z" style="fill:#281ec1"/><path d="M151.79,353.65H55.6a7.5,7.5,0,0,0,0,15h96.19a7.5,7.5,0,0,0,0-15Z" style="fill:#281ec1"/><path d="M215.92,353.65H183.86a7.5,7.5,0,0,0,0,15h32.06a7.5,7.5,0,0,0,0-15Z" style="fill:#281ec1"/><path d="M71.63,321.59h-16a7.5,7.5,0,0,0,0,15h16a7.5,7.5,0,1,0,0-15Z" style="fill:#281ec1"/><path d="M215.92,321.59H103.69a7.5,7.5,0,0,0,0,15H215.92a7.5,7.5,0,0,0,0-15Z" style="fill:#281ec1"/><path d="M240,257.46H31.55A31.58,31.58,0,0,0,0,289v80.16a31.58,31.58,0,0,0,31.55,31.55H46.74l-3.27,19.63a15.5,15.5,0,0,0,24.61,15l46.12-34.59H240a31.58,31.58,0,0,0,31.55-31.55V289A31.58,31.58,0,0,0,240,257.46Zm16.55,111.71A16.57,16.57,0,0,1,240,385.72H111.71a7.5,7.5,0,0,0-4.5,1.5L59.09,423.31a.52.52,0,0,1-.82-.5L63,394.45a7.5,7.5,0,0,0-7.4-8.73h-24A16.57,16.57,0,0,1,15,369.18h0V289a16.57,16.57,0,0,1,16.55-16.55H240A16.57,16.57,0,0,1,256.52,289Z" style="fill:#281ec1"/></svg>