<?xml version="1.0" encoding="utf-8"?>
<!-- Generator: Adobe Illustrator 21.0.2, SVG Export Plug-In . SVG Version: 6.00 Build 0)  -->
<svg version="1.1" id="Layer_1" xmlns="http://www.w3.org/2000/svg" xmlns:xlink="http://www.w3.org/1999/xlink" x="0px" y="0px"
	 viewBox="0 0 512 512" style="enable-background:new 0 0 512 512;" xml:space="preserve">
<style type="text/css">
	.st0{fill:#FFFFFF;}
	.st1{fill:#5F5AAF;}
</style>
<title>communication</title>
<circle class="st0" cx="256" cy="256" r="252.5"/>
<g>
	<path class="st1" d="M375.5,168.1h-57.3c-2.5-0.1-4.6,1.8-4.6,4.2c-0.1,2.5,1.8,4.6,4.2,4.6c0.2,0,0.2,0,0.4,0h57.3
		c2.5,0.1,4.6-1.8,4.6-4.2c0.1-2.5-1.8-4.6-4.2-4.6C375.7,168.1,375.6,168.1,375.5,168.1z"/>
	<path class="st1" d="M299,168.1h-19.1c-2.5-0.1-4.6,1.8-4.6,4.2c-0.1,2.5,1.8,4.6,4.2,4.6c0.2,0,0.2,0,0.4,0H299
		c2.5,0.1,4.6-1.8,4.6-4.2c0.1-2.5-1.8-4.6-4.2-4.6C299.3,168.1,299.2,168.1,299,168.1L299,168.1z"/>
	<path class="st1" d="M375.5,187.2H366c-2.5-0.1-4.6,1.8-4.6,4.2c-0.1,2.5,1.8,4.6,4.2,4.6c0.2,0,0.2,0,0.4,0h9.5
		c2.5-0.1,4.4-2.2,4.2-4.6C379.6,189.1,377.8,187.3,375.5,187.2z"/>
	<path class="st1" d="M346.8,187.2H280c-2.5-0.1-4.6,1.8-4.6,4.2c-0.1,2.5,1.8,4.6,4.2,4.6c0.2,0,0.2,0,0.4,0h66.9
		c2.5,0.1,4.6-1.8,4.6-4.2c0.1-2.5-1.8-4.6-4.2-4.6C347.1,187.2,346.9,187.2,346.8,187.2z"/>
	<path class="st1" d="M389.8,149H265.6c-10.4,0-18.8,8.4-18.8,18.8v28.6c0,10.4,8.4,18.8,18.8,18.8h75l27.5,20.6
		c4.1,3,9.9,2.2,13-1.8c1.5-2,2.2-4.6,1.7-7l-2-11.7h9c10.4,0,18.8-8.4,18.8-18.8v-28.6C408.6,157.4,400.2,149,389.8,149z
		 M399.6,196.4L399.6,196.4c0,5.4-4.4,9.8-9.8,9.8h-14.3c-2.5,0-4.5,2-4.5,4.5c0,0.2,0,0.5,0.1,0.7l2.8,16.9c0,0.2-0.1,0.3-0.2,0.3
		c-0.1,0-0.2,0-0.2-0.1l-28.7-21.4c-0.8-0.6-1.7-0.9-2.7-0.9h-76.5c-5.4,0-9.8-4.4-9.8-9.8v-28.7c0-5.4,4.4-9.8,9.8-9.8h124.2
		c5.4,0,9.8,4.4,9.8,9.8L399.6,196.4L399.6,196.4z"/>
	<path class="st1" d="M194,274.3h-57.3c-2.5-0.1-4.6,1.8-4.6,4.2c-0.1,2.5,1.8,4.6,4.2,4.6c0.2,0,0.2,0,0.4,0H194
		c2.5,0.1,4.6-1.8,4.6-4.2c0.1-2.4-1.8-4.6-4.2-4.6C194.2,274.3,194,274.3,194,274.3z"/>
	<path class="st1" d="M232.1,274.3H213c-2.5,0.1-4.4,2.2-4.2,4.6c0.1,2.3,1.9,4.2,4.2,4.2h19.1c2.5-0.1,4.4-2.2,4.2-4.6
		C236.4,276.2,234.4,274.4,232.1,274.3z"/>
	<path class="st1" d="M194,312.5h-57.3c-2.5-0.1-4.6,1.8-4.6,4.2c-0.1,2.5,1.8,4.6,4.2,4.6c0.2,0,0.2,0,0.4,0H194
		c2.5,0.1,4.6-1.8,4.6-4.2c0.1-2.4-1.8-4.6-4.2-4.6C194.2,312.5,194,312.5,194,312.5z"/>
	<path class="st1" d="M232.1,312.5H213c-2.5,0.1-4.4,2.2-4.2,4.6c0.1,2.3,1.9,4.2,4.2,4.2h19.1c2.5-0.1,4.4-2.2,4.2-4.6
		C236.4,314.5,234.4,312.6,232.1,312.5z"/>
	<path class="st1" d="M146.2,293.4h-9.5c-2.5,0.1-4.4,2.2-4.2,4.6c0.1,2.3,1.9,4.2,4.2,4.2h9.5c2.5-0.1,4.4-2.2,4.2-4.6
		C150.4,295.4,148.5,293.5,146.2,293.4z"/>
	<path class="st1" d="M232.1,293.4h-66.9c-2.5-0.1-4.6,1.8-4.6,4.2c-0.1,2.4,1.8,4.6,4.2,4.6c0.2,0,0.2,0,0.4,0h66.9
		c2.5-0.1,4.4-2.2,4.2-4.6C236.4,295.4,234.4,293.5,232.1,293.4L232.1,293.4z"/>
	<path class="st1" d="M246.5,255.2H122.3c-10.4,0-18.8,8.4-18.8,18.8v47.8c0,10.4,8.4,18.8,18.8,18.8h9l-1.9,11.7
		c-0.9,5,2.6,9.8,7.6,10.6c2.5,0.4,5-0.2,7-1.7l27.5-20.6h75c10.4,0,18.8-8.4,18.8-18.8V274C265.2,263.6,256.8,255.2,246.5,255.2z
		 M256.4,321.8c0,5.4-4.4,9.8-9.8,9.8H170c-1,0-1.9,0.3-2.7,0.9L138.7,354c-0.2,0.1-0.3,0.1-0.4-0.1c-0.1-0.1-0.1-0.2-0.1-0.2
		l2.8-17c0.4-2.4-1.3-4.7-3.7-5.1c-0.2,0-0.5-0.1-0.7-0.1h-14.3c-5.4,0-9.8-4.4-9.9-9.8l0,0v-47.8c0-5.4,4.4-9.8,9.8-9.8h124.2
		c5.4,0,9.8,4.4,9.8,9.8L256.4,321.8z"/>
</g>
</svg>
