<?xml version="1.0" encoding="utf-8"?>
<!-- Generator: Adobe Illustrator 21.0.2, SVG Export Plug-In . SVG Version: 6.00 Build 0)  -->
<svg version="1.1" id="Layer_1" xmlns="http://www.w3.org/2000/svg" xmlns:xlink="http://www.w3.org/1999/xlink" x="0px" y="0px"
	 viewBox="0 0 512 512" style="enable-background:new 0 0 512 512;" xml:space="preserve">
<style type="text/css">
	.st0{fill:#FFFFFF;}
	.st1{fill:#5F5AAF;}
</style>
<title>document creation</title>
<circle class="st0" cx="256" cy="256" r="252.5"/>
<g>
	<path class="st1" d="M350.1,181.3c0-1.5-0.6-3-1.7-4.1l-45.1-45.1l0,0c-1.1-1.1-2.6-1.7-4.2-1.7h-125c-6.8,0-12.4,5.5-12.4,12.4
		l0,0v226.5c0,6.8,5.5,12.4,12.4,12.4h163.7c6.8,0,12.4-5.5,12.4-12.4l0,0L350.1,181.3L350.1,181.3z M305.1,150.5l24.9,24.9h-24.3
		c-0.4,0-0.6-0.3-0.6-0.6l0,0L305.1,150.5L305.1,150.5z M338.4,369.3c0,0.4-0.3,0.6-0.6,0.6H174.2c-0.4,0-0.6-0.3-0.6-0.6l0,0l0,0
		V142.8c0-0.4,0.3-0.6,0.6-0.6l0,0h119.2v32.6c0,6.8,5.5,12.4,12.4,12.4h32.7L338.4,369.3L338.4,369.3z"/>
	<path class="st1" d="M308,210.9H203.9c-3.2,0-5.9,2.7-5.9,5.9c0,3.2,2.7,5.9,5.9,5.9l0,0H308c3.2,0,5.9-2.7,5.9-5.9
		C313.9,213.6,311.3,210.9,308,210.9L308,210.9z"/>
	<path class="st1" d="M308,246.4H203.9c-3.2,0-5.9,2.7-5.9,5.9c0,3.2,2.7,5.9,5.9,5.9l0,0H308c3.2,0,5.9-2.7,5.9-5.9
		C313.9,249.1,311.3,246.4,308,246.4L308,246.4z"/>
	<path class="st1" d="M308,281.9H203.9c-3.2,0-5.9,2.7-5.9,5.9c0,3.2,2.7,5.9,5.9,5.9H308c3.2,0,5.9-2.7,5.9-5.9
		C313.9,284.6,311.3,281.9,308,281.9L308,281.9L308,281.9z"/>
	<path class="st1" d="M256,317.4h-52.1c-3.2,0-5.9,2.7-5.9,5.9s2.7,5.9,5.9,5.9H256c3.2,0,5.9-2.7,5.9-5.9
		C261.9,320.1,259.2,317.4,256,317.4L256,317.4z"/>
</g>
</svg>
