<svg id="Layer_1" data-name="Layer 1" xmlns="http://www.w3.org/2000/svg" viewBox="0 0 512 512"><title>doc creation</title><path d="M447.93,103.63a12,12,0,0,0-3.48-8.35L352.68,3.51h0A11.94,11.94,0,0,0,344.21,0H89.28A25.26,25.26,0,0,0,64,25.24h0V486.76A25.26,25.26,0,0,0,89.28,512H422.72A25.26,25.26,0,0,0,448,486.76h0v-383Zm-91.74-62.7L407,91.76H357.46a1.26,1.26,0,0,1-1.26-1.26h0V40.93ZM424,486.76a1.26,1.26,0,0,1-1.26,1.26H89.28A1.26,1.26,0,0,1,88,486.78V25.24A1.26,1.26,0,0,1,89.28,24H332.22V90.5a25.27,25.27,0,0,0,25.24,25.24H424v371Z" style="fill:#281ec1"/><path d="M362.09,164H149.91a12,12,0,0,0,0,24H362.09a12,12,0,0,0,0-24Z" style="fill:#281ec1"/><path d="M362.09,236.35H149.91a12,12,0,0,0,0,24H362.09a12,12,0,1,0,0-24Z" style="fill:#281ec1"/><path d="M362.09,308.69H149.91a12,12,0,0,0,0,24H362.09a12,12,0,1,0,0-24Z" style="fill:#281ec1"/><path d="M256,381H149.91a12,12,0,0,0,0,24H256a12,12,0,0,0,0-24Z" style="fill:#281ec1"/></svg>