<svg xmlns="http://www.w3.org/2000/svg" viewBox="0 0 417.91 188.68"><title>efficiency</title><g id="Layer_2" data-name="Layer 2"><g id="Layer_2-2" data-name="Layer 2"><path d="M60.83,67.75H97a10,10,0,0,1,10,10h0a10,10,0,0,1-10,10H44.79a10,10,0,0,0-10,10h0a10,10,0,0,0,10,10h25a10,10,0,0,1,10,10h0a10,10,0,0,1-10,10h-25a10,10,0,0,0-10,10h0a10,10,0,0,0,10,10H85.88a10,10,0,0,1,10,10h0a10,10,0,0,1-10,10H74.22a10,10,0,0,0-10,10h0a10,10,0,0,0,10,10H362a10,10,0,0,0,10-10h0a10,10,0,0,0-10-10H339.62a10,10,0,0,1-10-10h0a10,10,0,0,1,10-10H362a10,10,0,0,0,10-10h0a10,10,0,0,0-10-10H322.34a10,10,0,0,1-10-10h0a10,10,0,0,1,10-10H367a10,10,0,0,0,10-10h0a10,10,0,0,0-10-10H316.3a10,10,0,0,1-10-10h0a10,10,0,0,1,10-10H331a10,10,0,0,0,10-10h0a10,10,0,0,0-10-10H60.83a10,10,0,0,0-10,10h0A10,10,0,0,0,60.83,67.75Z" style="fill:#b2ebf2"/><rect y="87.74" width="20.36" height="20.36" rx="9.99" ry="9.99" style="fill:#b2ebf2"/><rect x="397.55" y="127.53" width="20.36" height="20.36" rx="9.99" ry="9.99" style="fill:#b2ebf2"/><rect x="335.95" y="156.89" width="19.99" height="19.99" style="fill:#e0f7fa"/><rect x="87.22" y="113.4" width="19.99" height="19.99" style="fill:#e0f7fa"/><rect x="299.66" y="34.92" width="27.21" height="26.81" style="fill:#e0f7fa"/><rect x="34.8" y="37.26" width="27.21" height="26.81" style="fill:#e0f7fa"/><rect x="131.52" y="65.73" width="164.13" height="84.73" style="fill:none;stroke:#677089;stroke-linecap:round;stroke-miterlimit:10;stroke-width:2px;stroke-dasharray:5"/><path d="M256.28,187.68h-82v-119a41,41,0,0,1,41-41h0a41,41,0,0,1,41,41Z" style="fill:#c5cae9"/><path d="M174.32,113.4V68.69a41,41,0,0,1,41-41h0a41,41,0,0,1,41,41V124" style="fill:none;stroke:#677089;stroke-linecap:round;stroke-miterlimit:10;stroke-width:2px"/><line x1="174.32" y1="122.3" x2="174.32" y2="117.72" style="fill:none;stroke:#677089;stroke-linecap:round;stroke-miterlimit:10;stroke-width:2px"/><polyline points="174.32 187.68 174.32 137.97 174.32 134.64" style="fill:none;stroke:#677089;stroke-linecap:round;stroke-miterlimit:10;stroke-width:2px"/><line x1="256.28" y1="138.2" x2="256.28" y2="187.68" style="fill:none;stroke:#677089;stroke-linecap:round;stroke-miterlimit:10;stroke-width:2px"/><rect x="207.13" y="114.51" width="16.33" height="11.52" style="fill:#fff"/><rect x="207.13" y="114.51" width="16.33" height="11.52" style="fill:none;stroke:#677089;stroke-linecap:round;stroke-miterlimit:10;stroke-width:2px"/><path d="M241.1,74.8h0a16.33,16.33,0,0,1-16.33-16.33H193.16a3.67,3.67,0,0,0-3.67,3.67V74.8a4.77,4.77,0,0,0,0,9.54V90c0,14.06,11,25.94,25.08,26.33A25.8,25.8,0,0,0,241.1,90.54v-6.2a4.77,4.77,0,1,0,0-9.54Z" style="fill:#fff"/><path d="M241.1,74.8h0a16.33,16.33,0,0,1-16.33-16.33H194.5a5,5,0,0,0-5,5V74.8a4.77,4.77,0,0,0,0,9.54V90c0,14.06,11,25.94,25.08,26.33A25.8,25.8,0,0,0,241.1,90.54v-6.2a4.77,4.77,0,1,0,0-9.54Z" style="fill:none;stroke:#677089;stroke-linecap:round;stroke-miterlimit:10;stroke-width:2px"/><path d="M208.5,99.17a6.79,6.79,0,0,0,13.59,0Z" style="fill:#c5cae9"/><path d="M189.8,187.68V141.12A15.09,15.09,0,0,1,204.89,126H225.7a15.09,15.09,0,0,1,15.09,15.09v46.55" style="fill:#fff"/><path d="M192.8,132.09A15.07,15.07,0,0,1,204.89,126H225.7a15.09,15.09,0,0,1,15.09,15.09v46.55" style="fill:none;stroke:#677089;stroke-linecap:round;stroke-miterlimit:10;stroke-width:2px"/><line x1="189.8" y1="187.68" x2="189.8" y2="141.12" style="fill:none;stroke:#677089;stroke-linecap:round;stroke-miterlimit:10;stroke-width:2px"/><rect x="204.1" y="141.12" width="21.44" height="38.33" rx="6.09" ry="6.09" style="fill:#fff"/><rect x="204.1" y="141.12" width="21.44" height="38.33" rx="6.09" ry="6.09" style="fill:none;stroke:#677089;stroke-linecap:round;stroke-linejoin:round;stroke-width:2px"/><path d="M219.72,151.3a3.45,3.45,0,1,1-.81-2.22A3.45,3.45,0,0,1,219.72,151.3Z" style="fill:#b2ebf2"/><path d="M218.27,149.85a3.45,3.45,0,1,1-3.45-3.45" style="fill:none;stroke:#677089;stroke-linecap:round;stroke-miterlimit:10;stroke-width:2px"/><circle cx="214.82" cy="158.53" r="1.23" style="fill:#677089"/><path d="M225.54,151.3v8.46h-2.12a8.08,8.08,0,0,0-8.17,7.76,7.91,7.91,0,0,0,7.91,8.06h4.11a3.09,3.09,0,0,0,3.09-3.09V154.39a3.09,3.09,0,0,0-3.09-3.09Z" style="fill:#fff"/><path d="M225.54,151.3v8.46h-2.12a8.08,8.08,0,0,0-8.17,7.76,7.91,7.91,0,0,0,7.91,8.06h4.11a3.09,3.09,0,0,0,3.09-3.09V154.39a3.09,3.09,0,0,0-3.09-3.09Z" style="fill:none;stroke:#677089;stroke-linecap:round;stroke-linejoin:round;stroke-width:2px"/><path d="M154,136H122a9.17,9.17,0,0,0-9.17,9.17v13a9.17,9.17,0,0,0,9.17,9.17h12.17l3.94,3.94a1.4,1.4,0,0,0,2.4-1v-2.95H154a9.17,9.17,0,0,0,9.17-9.17v-13A9.17,9.17,0,0,0,154,136Z" style="fill:#fff"/><path d="M159.17,165.74a9.16,9.16,0,0,0,4-7.56v-13A9.17,9.17,0,0,0,154,136H122a9.17,9.17,0,0,0-9.17,9.17" style="fill:none;stroke:#677089;stroke-linecap:round;stroke-miterlimit:10;stroke-width:2px"/><path d="M112.82,150.33v7.84a9.17,9.17,0,0,0,9.17,9.17h12.17l3.94,3.94a1.4,1.4,0,0,0,2.4-1v-2.95H154" style="fill:none;stroke:#677089;stroke-linecap:round;stroke-miterlimit:10;stroke-width:2px"/><path d="M281.1,91.67h32a9.17,9.17,0,0,1,9.17,9.17v13A9.17,9.17,0,0,1,313.1,123H300.93L297,126.9a1.4,1.4,0,0,1-2.4-1V123H281.1a9.17,9.17,0,0,1-9.17-9.17v-13A9.17,9.17,0,0,1,281.1,91.67Z" style="fill:#fff"/><path d="M322.27,100.84v13A9.17,9.17,0,0,1,313.1,123H300.93L297,126.9a1.4,1.4,0,0,1-2.4-1V123H281.1a9.17,9.17,0,0,1-9.17-9.17v-13a9.17,9.17,0,0,1,9.17-9.17h28.17" style="fill:none;stroke:#677089;stroke-linecap:round;stroke-miterlimit:10;stroke-width:2px"/><circle cx="306.27" cy="107.39" r="3" style="fill:none;stroke:#677089;stroke-linecap:round;stroke-miterlimit:10;stroke-width:2px"/><circle cx="296.27" cy="107.39" r="3" style="fill:none;stroke:#677089;stroke-linecap:round;stroke-miterlimit:10;stroke-width:2px"/><circle cx="286.27" cy="107.39" r="3" style="fill:none;stroke:#677089;stroke-linecap:round;stroke-miterlimit:10;stroke-width:2px"/><path d="M138,151.49a4.75,4.75,0,0,1-9.5,0" style="fill:none;stroke:#677089;stroke-linecap:round;stroke-miterlimit:10;stroke-width:2px"/><path d="M147.47,151.49a4.75,4.75,0,0,1-9.5,0" style="fill:none;stroke:#677089;stroke-linecap:round;stroke-miterlimit:10;stroke-width:2px"/><path d="M153.87,51.52l-32,.21A9.17,9.17,0,0,0,112.76,61l.09,13A9.17,9.17,0,0,0,122.08,83l12.17-.08,4,3.91a1.4,1.4,0,0,0,2.39-1l0-2.95,13.5-.09a9.17,9.17,0,0,0,9.11-9.23l-.09-13A9.17,9.17,0,0,0,153.87,51.52Z" style="fill:#fff"/><path d="M136.19,51.62l-14.32.11A9.17,9.17,0,0,0,112.76,61l.09,13A9.17,9.17,0,0,0,122.08,83l12.17-.08,4,3.91a1.4,1.4,0,0,0,2.39-1l0-2.95,13.5-.09a9.17,9.17,0,0,0,9.11-9.23l-.09-13a9.17,9.17,0,0,0-9.23-9.11l-11.18.07" style="fill:none;stroke:#677089;stroke-linecap:round;stroke-miterlimit:10;stroke-width:2px"/><rect x="119.4" y="59.41" width="2.2" height="5.98" rx="1.1" ry="1.1" style="fill:#677089"/><rect x="133.16" y="59.41" width="2.2" height="5.98" rx="1.1" ry="1.1" style="fill:#677089"/><circle cx="128.73" cy="71.75" r="1.48" style="fill:#677089"/><circle cx="155.26" cy="98.67" r="3.36" style="fill:none;stroke:#677089;stroke-linecap:round;stroke-miterlimit:10;stroke-width:2px"/><circle cx="140.06" cy="29.8" r="2.09" style="fill:none;stroke:#677089;stroke-linecap:round;stroke-miterlimit:10;stroke-width:2px"/><circle cx="305.65" cy="81.14" r="2.09" style="fill:none;stroke:#677089;stroke-linecap:round;stroke-miterlimit:10;stroke-width:2px"/><circle cx="268.01" cy="45.04" r="3.75" style="fill:none;stroke:#677089;stroke-linecap:round;stroke-miterlimit:10;stroke-width:2px"/><circle cx="250.26" cy="8.42" r="3.25" style="fill:none;stroke:#677089;stroke-linecap:round;stroke-miterlimit:10;stroke-width:2px"/><circle cx="362.26" cy="135.25" r="3.61" style="fill:none;stroke:#677089;stroke-linecap:round;stroke-miterlimit:10;stroke-width:2px"/><circle cx="297.1" cy="157.41" r="3.61" style="fill:none;stroke:#677089;stroke-linecap:round;stroke-miterlimit:10;stroke-width:2px"/><circle cx="87.42" cy="180.45" r="2.22" style="fill:none;stroke:#677089;stroke-linecap:round;stroke-miterlimit:10;stroke-width:2px"/><circle cx="105.09" cy="97" r="2.67" style="fill:#677089"/><circle cx="202.42" cy="2.33" r="2.33" style="fill:#677089"/><circle cx="324.36" cy="178.23" r="2.33" style="fill:#677089"/></g></g></svg>