<svg id="Laag_1" data-name="Laag 1" xmlns="http://www.w3.org/2000/svg" viewBox="0 0 1191.65 299.4"><title>Artboard 4</title><path d="M500.37,103.73c-12.49,0-21.41,4.16-21.41,14,0,26.76,84.14,12.79,84.14,69.87,0,32.41-28.84,48.17-62.74,48.17-24.08,0-49.06-7.73-65.71-22.3L448,186.38C462.61,198.87,484.61,206,501.86,206c13.38,0,23.49-4.46,23.49-14.87,0-29.44-83-13.38-82.66-69.87,0-32.71,27.95-47.87,60.06-47.87,20.81,0,42.52,6.24,58.28,16.95l-14,27.95C531.59,109.08,514.05,103.73,500.37,103.73Z" style="fill:#2d2d2d"/><path d="M910,75.18V234.25H871.35V209C860.05,226.23,841.92,236,818.13,236c-45.49,0-75.82-33.3-75.82-81.76C742.31,106.4,772,74,816.64,73.7c24.38-.3,43.11,9.51,54.71,27.06V75.18Zm-38.65,85.63v-11.3c-2.38-25.57-19.92-42.82-44.9-42.82-26.46,0-44.9,20.22-45.19,48.46.3,28.54,18.43,48.46,45.19,48.46C851.43,203.63,869,186.38,871.35,160.81Z" style="fill:#2d2d2d"/><path d="M1002.3,73.37c25.27,0,49.36,13.38,60.06,33.6,10.11-20.22,34.19-33.6,59.47-33.6,39.84,0,66.6,27.35,66.6,68.39v92.47h-38.65V143.53c0-20.52-13.68-33.6-34.19-33.6S1082,123,1082,143.53v90.69h-39V143.53c0-20.52-13.68-33.6-34.79-33.6-19.62,0-33,13.08-33,33.6v90.69H936.59V141.75C936.59,100.72,962.75,73.37,1002.3,73.37Z" style="fill:#2d2d2d"/><path d="M660.34,204.82c-19.92,0-35.38-10.41-42.81-27.65l113.28-32.11C728.73,100.75,699,73.4,654.69,74c-49.36.3-80.58,33.6-80.58,80.87,0,48.46,33.9,80.87,83.55,80.87,27.95,0,51.73-10.7,69.87-32.41l-22.6-20.81C692.45,197.09,677,204.82,660.34,204.82Zm-3.57-100.5c17,0,28.91,7,35.59,22.5l-79.17,22C614.63,119.83,631,104.32,656.77,104.32Z" style="fill:#2d2d2d"/><path d="M293.36,132.39A332.78,332.78,0,0,0,155.18,252.66a329.79,329.79,0,0,1,22.29,40.2A139.81,139.81,0,0,0,293.36,132.39Z" style="fill:#08b51c"/><path d="M132.89,16.5A139.81,139.81,0,0,0,17,177a330.9,330.9,0,0,0,94.34-66.13A332.32,332.32,0,0,0,155.18,56.7,329.75,329.75,0,0,1,132.89,16.5Z" style="fill:#bc1515"/><path d="M111.34,198.52A332.31,332.31,0,0,0,57.2,154.68,329.76,329.76,0,0,1,17,177,139.81,139.81,0,0,0,177.47,292.86,330.9,330.9,0,0,0,111.34,198.52Z" style="fill:#17cace"/><path d="M199.08,110.88a332.31,332.31,0,0,0,54.14,43.84,329.76,329.76,0,0,1,40.2-22.29A139.81,139.81,0,0,0,133,16.54,330.9,330.9,0,0,0,199.08,110.88Z" style="fill:#f7c554"/></svg>