<svg xmlns="http://www.w3.org/2000/svg" xmlns:xlink="http://www.w3.org/1999/xlink" viewBox="0 0 1173.2 279.86"><defs><linearGradient id="linear-gradient" x1="139.95" y1="197.85" x2="279.9" y2="197.85" gradientUnits="userSpaceOnUse"><stop offset="0" stop-color="#64dd17"/><stop offset="1" stop-color="#ccff90"/></linearGradient><linearGradient id="linear-gradient-2" y1="81.97" x2="139.95" y2="81.97" gradientUnits="userSpaceOnUse"><stop offset="0" stop-color="#fff"/><stop offset="0" stop-color="#ee3025"/><stop offset="1" stop-color="#f37d80"/></linearGradient><linearGradient id="linear-gradient-3" x1="84.52" y1="234.23" x2="48.42" y2="32.6" gradientUnits="userSpaceOnUse"><stop offset="0" stop-color="#00b0ff"/><stop offset="1" stop-color="#80d8ff"/></linearGradient><linearGradient id="linear-gradient-4" x1="-3067.24" y1="1376.91" x2="-3103.33" y2="1175.27" gradientTransform="translate(-2871.79 1422.53) rotate(180)" gradientUnits="userSpaceOnUse"><stop offset="0" stop-color="#ffe57f"/><stop offset="1" stop-color="#ffd732"/></linearGradient></defs><title>Final Logo</title><g id="Layer_2" data-name="Layer 2"><g id="Laag_1" data-name="Laag 1"><path d="M485.14,89c-12.49,0-21.41,4.16-21.41,14,0,26.76,84.14,12.79,84.14,69.87,0,32.41-28.84,48.17-62.74,48.17-24.08,0-49.06-7.73-65.71-22.3l13.38-27.06c14.57,12.49,36.57,19.62,53.82,19.62,13.38,0,23.49-4.46,23.49-14.87,0-29.44-83-13.38-82.66-69.87,0-32.71,27.95-47.87,60.06-47.87,20.81,0,42.52,6.24,58.28,16.95l-14,27.95C516.36,94.31,498.82,89,485.14,89Z" style="fill:#2d2d2d"/><path d="M894.78,60.41V219.48H856.12V194.21c-11.3,17.25-29.44,27.06-53.22,27.06-45.49,0-75.82-33.3-75.82-81.76,0-47.87,29.73-80.28,74.33-80.58,24.38-.3,43.11,9.51,54.71,27.06V60.41ZM856.12,146v-11.3c-2.38-25.57-19.92-42.82-44.9-42.82-26.46,0-44.9,20.22-45.19,48.46.3,28.54,18.43,48.46,45.19,48.46C836.2,188.86,853.74,171.61,856.12,146Z" style="fill:#2d2d2d"/><path d="M987.07,58.59c25.27,0,49.36,13.38,60.06,33.6,10.11-20.22,34.19-33.6,59.47-33.6,39.84,0,66.6,27.35,66.6,68.39v92.47h-38.65V128.76c0-20.52-13.68-33.6-34.19-33.6s-33.6,13.08-33.6,33.6v90.69h-39V128.76c0-20.52-13.68-33.6-34.79-33.6-19.62,0-33,13.08-33,33.6v90.69H921.36V127C921.36,85.95,947.52,58.59,987.07,58.59Z" style="fill:#2d2d2d"/><path d="M645.11,190c-19.92,0-35.38-10.41-42.81-27.65l113.28-32.11C713.5,86,683.76,58.63,639.46,59.22c-49.36.3-80.58,33.6-80.58,80.87,0,48.46,33.9,80.87,83.55,80.87,27.95,0,51.73-10.7,69.87-32.41l-22.6-20.81C677.22,182.32,661.76,190,645.11,190Zm-3.57-100.5c17,0,28.91,7,35.59,22.5l-79.17,22C599.4,105.06,615.81,89.55,641.54,89.55Z" style="fill:#2d2d2d"/><path d="M278.13,117.62A332.78,332.78,0,0,0,139.95,237.89a329.79,329.79,0,0,1,22.29,40.2A139.81,139.81,0,0,0,278.13,117.62Z" style="fill:url(#linear-gradient)"/><path d="M117.66,1.73A139.81,139.81,0,0,0,1.77,162.2,330.9,330.9,0,0,0,96.11,96.07a332.32,332.32,0,0,0,43.84-54.14A329.75,329.75,0,0,1,117.66,1.73Z" style="fill:url(#linear-gradient-2)"/><path d="M96.11,183.75A332.31,332.31,0,0,0,42,139.91,329.76,329.76,0,0,1,1.77,162.2,139.81,139.81,0,0,0,162.24,278.09,330.9,330.9,0,0,0,96.11,183.75Z" style="fill:url(#linear-gradient-3)"/><path d="M183.85,96.11A332.31,332.31,0,0,0,238,139.95a329.76,329.76,0,0,1,40.2-22.29A139.81,139.81,0,0,0,117.72,1.77,330.9,330.9,0,0,0,183.85,96.11Z" style="fill:url(#linear-gradient-4)"/></g></g></svg>