<?xml version="1.0" encoding="utf-8"?>
<!-- Generator: Adobe Illustrator 21.0.2, SVG Export Plug-In . SVG Version: 6.00 Build 0)  -->
<svg version="1.1" id="Layer_1" xmlns="http://www.w3.org/2000/svg" xmlns:xlink="http://www.w3.org/1999/xlink" x="0px" y="0px"
	 viewBox="0 0 512 512" style="enable-background:new 0 0 512 512;" xml:space="preserve">
<style type="text/css">
	.st0{fill:#FFFFFF;}
	.st1{fill:#5F5AAF;}
</style>
<title>gamification</title>
<circle class="st0" cx="256" cy="256" r="252.5"/>
<g>
	<path class="st1" d="M361.8,160.5c-5.2-7-13.4-11.1-22.2-11.1h-9.4l2.4-17.7h5c2.2,0,4-1.8,4-4c0-2.2-1.8-4-4-4H174.4
		c-2.2,0-4,1.8-4,4c0,2.2,1.8,4,4,4h5l2.4,17.7h-9.4c-15.3,0-27.8,12.5-27.8,27.8c0,2.6,0.4,5.2,1.1,7.6
		c5.6,19.4,23.3,32.7,43.5,32.8h3.8c8.5,21.7,27.6,37.4,50.5,41.8v16c-5.7,6.4-5.7,16.1,0,22.5v23.4h-0.3c-4.6,0-8.3,3.7-8.3,8.3
		v8.9h-9.8c-3.8,0-7.1,2.6-8.1,6.3l-12,48.3c-0.6,2.2,0.8,4.3,2.9,4.9c0.3,0.1,0.6,0.1,1,0.1h94.5c2.2,0,4-1.8,4-4
		c0-0.4-0.1-0.6-0.1-1l-12-48.3c-0.9-3.7-4.2-6.3-8.1-6.3h-9.9v-8.9c0-4.6-3.7-8.3-8.3-8.3l0,0h-0.2v-23.4c5.7-6.4,5.7-16.1,0-22.5
		v-16c22.9-4.3,41.9-20.1,50.5-41.8h3.8c20.2-0.1,37.9-13.4,43.5-32.8C368.8,176.5,367.1,167.4,361.8,160.5z M189.2,209.6
		L189.2,209.6c-16.6-0.1-31.1-11.1-35.7-26.9c-3-10.5,3.1-21.4,13.6-24.4c1.8-0.5,3.6-0.8,5.4-0.8h10.5l5.9,44.2
		c0.4,2.7,0.8,5.2,1.5,7.8H189.2L189.2,209.6z M268.9,329.4c0.1,0,0.3,0.1,0.3,0.3v12.9c0,2.2,1.8,4,4,4H287c0.1,0,0.2,0.1,0.3,0.2
		l10.9,43.3h-84.2l10.9-43.3c0-0.1,0.1-0.2,0.3-0.2H256c2.2,0,4-1.8,4-4c0-2.2-1.8-4-4-4h-13.2v-8.8c0-0.1,0.1-0.3,0.3-0.3
		L268.9,329.4L268.9,329.4z M256,277.8c4.9,0,8.9,3.9,8.9,8.8c0,4.9-3.9,8.9-8.8,8.9c-4.9,0-8.9-3.9-8.9-8.8l0,0l0,0
		C247.2,281.8,251.1,277.8,256,277.8z M251.5,270.4v-9.9c1.5,0.1,3,0.1,4.6,0.1c1.5,0,3.1-0.1,4.5-0.1v9.9
		C257.6,269.6,254.4,269.6,251.5,270.4z M260.6,303v18.3h-9.2v-18.4C254.4,303.8,257.6,303.8,260.6,303L260.6,303z M315.2,200.7
		c-4.3,32.7-34.4,55.7-67.1,51.3c-26.7-3.6-47.8-24.6-51.3-51.3l-9.2-68.9h136.9L315.2,200.7z M358.6,182.6
		c-4.6,15.9-19.1,26.9-35.7,26.9h-1.2c0.6-2.6,1.1-5.2,1.5-7.8l5.9-44.2h10.5c10.9,0,19.7,8.8,19.7,19.7
		C359.4,179,359.1,180.9,358.6,182.6L358.6,182.6z"/>
	<path class="st1" d="M273.2,355.7h-34.4c-2.2,0-4,1.8-4,4c0,2.2,1.8,4,4,4h34.4c2.2,0,4-1.8,4-4
		C277.2,357.5,275.4,355.7,273.2,355.7z"/>
	<path class="st1" d="M264.5,372.9h-17.2c-2.2,0-4,1.8-4,4c0,2.2,1.8,4,4,4h17.2c2.2,0,4-1.8,4-4
		C268.6,374.7,266.8,372.9,264.5,372.9z"/>
	<path class="st1" d="M265.5,157.5l-2.5-5.1c-1.9-3.9-6.6-5.5-10.5-3.6c-1.5,0.8-2.8,2-3.6,3.6l-8.1,16.4l-18.1,2.7
		c-4.3,0.6-7.3,4.6-6.6,8.9c0.3,1.7,1,3.3,2.3,4.5L233,199c1.6,1.5,4.1,1.5,5.7,0c1.5-1.5,1.5-4.1,0-5.7l-0.1-0.1l-14.4-14l19.8-2.9
		c1.3-0.2,2.4-1,3-2.2l8.9-17.9l2.3,4.8c1,2,3.4,2.8,5.4,1.8C265.7,161.9,266.5,159.5,265.5,157.5L265.5,157.5z"/>
	<path class="st1" d="M295.6,176.8c-0.9-2.9-3.4-5-6.4-5.4l-20.2-2.9c-2.2-0.2-4.2,1.4-4.4,3.6c-0.2,2.1,1.2,4,3.2,4.3l19.8,2.9
		l-14.4,14c-1,0.9-1.4,2.2-1.1,3.6l3.4,19.7l-17.7-9.3c-1.2-0.6-2.6-0.6-3.8,0l-17.6,9.4l0.8-4.5c0.4-2.2-1.1-4.3-3.3-4.6
		c-2.2-0.3-4.3,1.1-4.6,3.3l0,0l-0.8,4.8c-0.8,4.3,2.1,8.3,6.4,9.1c1.7,0.3,3.5,0,5-0.8l16.2-8.5l16.2,8.5c3.8,2,8.6,0.6,10.6-3.3
		c0.8-1.5,1.1-3.3,0.8-5l-3.1-18.1l13.1-12.7C295.8,182.8,296.5,179.6,295.6,176.8z"/>
</g>
</svg>
