<svg xmlns="http://www.w3.org/2000/svg" viewBox="0 0 417.91 202.7"><title>gamification</title><g id="Layer_2" data-name="Layer 2"><g id="Layer_2-2" data-name="Layer 2"><path d="M80.79,55.65H97a10,10,0,0,1,10,10h0a10,10,0,0,1-10,10H44.79a10,10,0,0,0-10,10h0a10,10,0,0,0,10,10h25a10,10,0,0,1,10,10h0a10,10,0,0,1-10,10h-25a10,10,0,0,0-10,10h0a10,10,0,0,0,10,10H85.88a10,10,0,0,1,10,10h0a10,10,0,0,1-10,10H74.22a10,10,0,0,0-10,10h0a10,10,0,0,0,10,10H362a10,10,0,0,0,10-10h0a10,10,0,0,0-10-10H339.62a10,10,0,0,1-10-10h0a10,10,0,0,1,10-10H362a10,10,0,0,0,10-10h0a10,10,0,0,0-10-10H322.34a10,10,0,0,1-10-10h0a10,10,0,0,1,10-10h11.74a10,10,0,0,0,10-10h0a10,10,0,0,0-10-10H316.3a10,10,0,0,1-10-10h0a10,10,0,0,1,10-10H362a10,10,0,0,0,10-10h0a10,10,0,0,0-10-10H80.79a10,10,0,0,0-10,10h0A10,10,0,0,0,80.79,55.65Z" style="fill:#b2ebf2"/><rect y="75.64" width="20.36" height="20.36" rx="9.99" ry="9.99" style="fill:#b2ebf2"/><rect x="397.55" y="115.43" width="20.36" height="20.36" rx="9.99" ry="9.99" style="fill:#b2ebf2"/><rect x="335.95" y="144.79" width="19.99" height="19.99" style="fill:#e0f7fa"/><rect x="82.22" y="68.37" width="19.99" height="19.99" style="fill:#e0f7fa"/><rect x="299.66" y="22.83" width="27.21" height="26.81" style="fill:#e0f7fa"/><rect x="44.4" y="104.57" width="27.21" height="26.81" style="fill:#e0f7fa"/><circle cx="286.83" cy="148.75" r="19.88" transform="matrix(0.08, -1, 1, 0.08, 114.9, 422.31)" style="fill:#fff"/><path d="M306.64,150.39a19.88,19.88,0,1,1-3.2-12.56" style="fill:none;stroke:#677089;stroke-linecap:round;stroke-linejoin:round;stroke-width:2px"/><circle cx="329.52" cy="112.59" r="16.42" transform="translate(36.87 301.3) rotate(-51.68)" style="fill:#fff"/><circle cx="329.52" cy="112.59" r="16.42" transform="translate(36.87 301.3) rotate(-51.68)" style="fill:none;stroke:#677089;stroke-linecap:round;stroke-linejoin:round;stroke-width:2px"/><circle cx="287.25" cy="61.46" r="15.04" transform="translate(81.15 270.78) rotate(-57.52)" style="fill:#fff"/><path d="M299.94,69.54A15,15,0,1,1,302,58.64" style="fill:none;stroke:#677089;stroke-linecap:round;stroke-linejoin:round;stroke-width:2px"/><path d="M289.87,56.4l0,0-2.48.05.43-1.38,3.1-.05,1.21.7-6.88,11.85-1.38-.8Z" style="fill:#677089"/><path d="M327.67,122.59l-.63-1.32.91-2.45c2.23-5.81,3.08-8.75,2-11.17a3.15,3.15,0,0,0-4.65-1.61,6,6,0,0,0-2.74,3l-1.41-1.19a7.75,7.75,0,0,1,3.74-3.77c3.43-1.64,6,0,7.09,2.31,1.4,2.94.4,6.34-1.42,11.18l-.72,1.79,0,0,7.16-3.41.85,1.79Z" style="fill:#677089"/><path d="M280.49,152.65a8.54,8.54,0,0,0,3.38,2.73c3,1.28,4.77-.24,5.36-1.7,1-2.44-.74-4.41-3-5.38l-1.31-.56.75-1.76,1.31.56c1.71.73,4.25.77,5.12-1.29.59-1.39.23-3-1.93-3.91a6.92,6.92,0,0,0-4-.33l.11-2a9,9,0,0,1,5.11.59c3.42,1.45,4.1,4.14,3.21,6.25-.76,1.79-2.48,2.86-4.94,2.72l0,.05a4.91,4.91,0,0,1,2,6.11c-1.18,2.78-4.38,4.29-8.54,2.52a9.59,9.59,0,0,1-4-3.09Z" style="fill:#677089"/><path d="M136.51,26.3H280.72a5.54,5.54,0,0,1,5.54,5.54V173.95a5.54,5.54,0,0,1-5.54,5.54H131a0,0,0,0,1,0,0V31.84A5.54,5.54,0,0,1,136.51,26.3Z" style="fill:#fff"/><path d="M247.22,179.49H131V31.84a5.54,5.54,0,0,1,5.54-5.54H280.72a5.54,5.54,0,0,1,5.54,5.54V173.95a5.54,5.54,0,0,1-5.54,5.54H255.47" style="fill:none;stroke:#677089;stroke-linecap:round;stroke-linejoin:round;stroke-width:2px"/><rect x="174.2" y="39.9" width="19.65" height="84.27" style="fill:#c5cae9"/><rect x="223.37" y="85.56" width="19.65" height="38.61" style="fill:#c5cae9"/><line x1="145.73" y1="49.1" x2="276.25" y2="49.1" style="fill:none;stroke:#677089;stroke-linecap:round;stroke-linejoin:round;stroke-width:2px"/><line x1="145.73" y1="74.13" x2="276.25" y2="74.13" style="fill:none;stroke:#677089;stroke-linecap:round;stroke-linejoin:round;stroke-width:2px"/><line x1="145.73" y1="99.15" x2="276.25" y2="99.15" style="fill:none;stroke:#677089;stroke-linecap:round;stroke-linejoin:round;stroke-width:2px"/><path d="M166.35,124.17c36.19.36,73.85.36,109.91,0" style="fill:none;stroke:#677089;stroke-linecap:round;stroke-linejoin:round;stroke-width:2px"/><path d="M145.73,124.17h12.6" style="fill:none;stroke:#677089;stroke-linecap:round;stroke-linejoin:round;stroke-width:2px"/><line x1="145.73" y1="149.2" x2="276.25" y2="149.2" style="fill:none;stroke:#677089;stroke-linecap:round;stroke-linejoin:round;stroke-width:2px;stroke-dasharray:3,6"/><circle cx="130.93" cy="179.44" r="17.85" style="fill:#fff"/><path d="M148.77,179.44a17.85,17.85,0,1,1-17.85-17.85" style="fill:none;stroke:#677089;stroke-linecap:round;stroke-linejoin:round;stroke-width:2px"/><polyline points="121.21 175.07 130.35 184.21 149.07 165.48" style="fill:none;stroke:#677089;stroke-linecap:round;stroke-linejoin:round;stroke-width:2px"/><path d="M240.34,26.95H195.15C189,26.95,184,31.36,184,36.79v74.14h0v81h0c0,5.44,0,9.85,0,9.85l25.08-8.84,24.1,8.84V31.25C233.2,31.36,234.18,26.95,240.34,26.95Z" style="fill:#fff"/><path d="M233.2,84.19V36.79c0-5.44,0-9.85,6.14-9.85H195.15C189,26.95,184,31.36,184,36.79v74.14h0v81h0c0,5.44,0,9.85,0,9.85l24.58-8.84,24.6,8.84V110.94h0V84" style="fill:none;stroke:#677089;stroke-linecap:round;stroke-linejoin:round;stroke-width:1.880515217781067px"/><circle cx="208.33" cy="38.53" r="37.52" transform="translate(-3.42 45.58) rotate(-12.38)" style="fill:#fff"/><circle cx="208.33" cy="38.53" r="37.52" transform="translate(-3.42 45.58) rotate(-12.38)" style="fill:none;stroke:#677089;stroke-linecap:round;stroke-linejoin:round;stroke-width:2px"/><path d="M207.42,21h-.14l-8.1,4.46-1.27-4.81L208.09,15l5.4,0,.4,46.8-6.12.05Z" style="fill:#677089"/></g></g></svg>