<svg id="Layer_1" data-name="Layer 1" xmlns="http://www.w3.org/2000/svg" viewBox="0 0 512 512"><title>gamification</title><path d="M453.43,68.71A51.4,51.4,0,0,0,412,48.1H394.43L398.84,15h9.47a7.5,7.5,0,0,0,0-15H103.69a7.5,7.5,0,0,0,0,15h9.47l4.41,33.1H99.95a51.82,51.82,0,0,0-49.83,66.06,84.69,84.69,0,0,0,81.09,61.17h7.07a126.5,126.5,0,0,0,94.19,77.95v29.84a31.47,31.47,0,0,0,0,42v43.67H232a15.53,15.53,0,0,0-15.52,15.52v16.55h-18.3a15.5,15.5,0,0,0-15.05,11.75L160.6,502.73a7.5,7.5,0,0,0,7.28,9.32h176.3a7.5,7.5,0,0,0,7.28-9.32l-22.53-90.12a15.49,15.49,0,0,0-15-11.75H295.56v-16.6A15.53,15.53,0,0,0,280,368.74h-.54V325.08a31.47,31.47,0,0,0,0-42V253.27a126.5,126.5,0,0,0,94.19-77.95h7.07a84.69,84.69,0,0,0,81.09-61.17A51.39,51.39,0,0,0,453.43,68.71ZM131.21,160.32h0A69.63,69.63,0,0,1,64.54,110,36.82,36.82,0,0,1,99.95,63.1h19.63l11,82.58a126.6,126.6,0,0,0,2.84,14.64h-2.21ZM280,383.74a.52.52,0,0,1,.51.52v24a7.5,7.5,0,0,0,7.5,7.5h25.81a.52.52,0,0,1,.5.39l20.2,80.8H177.43l20.2-80.8a.52.52,0,0,1,.5-.39H256a7.5,7.5,0,0,0,0-15H231.44V384.26a.52.52,0,0,1,.52-.52Zm-24-96.19A16.55,16.55,0,1,1,239.5,304.1h0A16.57,16.57,0,0,1,256,287.55Zm-8.53-13.82V255.19q4.25.29,8.53.29t8.53-.29v18.54a31.38,31.38,0,0,0-17.06,0Zm17.06,60.73v34.28H247.46V334.46a31.39,31.39,0,0,0,17.07,0Zm102-190.77a111.53,111.53,0,0,1-221.1,0L128.29,15H383.71ZM447.46,110a69.63,69.63,0,0,1-66.67,50.29h-2.22a126.56,126.56,0,0,0,2.84-14.64l11-82.58H412A36.82,36.82,0,0,1,447.46,110Z" style="fill:#281ec1"/><path d="M288.07,432.87H223.94a7.5,7.5,0,0,0,0,15h64.13a7.5,7.5,0,0,0,0-15Z" style="fill:#281ec1"/><path d="M272,464.94H240a7.5,7.5,0,0,0,0,15h32a7.5,7.5,0,0,0,0-15Z" style="fill:#281ec1"/><path d="M273.82,63.06l-4.67-9.46a14.66,14.66,0,0,0-26.29,0l-15.1,30.59L194,89.09a14.66,14.66,0,0,0-8.12,25l27.25,26.56A7.5,7.5,0,1,0,223.73,130l-.13-.12-26.76-26.08,37-5.37a7.5,7.5,0,0,0,5.65-4.1L256,60.85l4.36,8.84a7.5,7.5,0,0,0,13.45-6.64Z" style="fill:#281ec1"/><path d="M329.84,99.07a14.57,14.57,0,0,0-11.83-10L280.35,83.6a7.5,7.5,0,0,0-2.16,14.84l37,5.37-26.76,26.08a7.5,7.5,0,0,0-2.16,6.64l6.32,36.83L259.49,156a7.5,7.5,0,0,0-7,0l-33.07,17.39,1.44-8.38a7.5,7.5,0,1,0-14.79-2.54h0l-1.55,9.06A14.66,14.66,0,0,0,225.81,187L256,171.11,286.2,187a14.66,14.66,0,0,0,21.27-15.45l-5.77-33.62,24.43-23.81A14.57,14.57,0,0,0,329.84,99.07Z" style="fill:#281ec1"/></svg>