<svg id="dynamic_team_collaboration" data-name="dynamic team collaboration" xmlns="http://www.w3.org/2000/svg" viewBox="0 0 488.08 369.64"><defs><style>.cls-1,.cls-15,.cls-17,.cls-19,.cls-20,.cls-23,.cls-24,.cls-3,.cls-9{fill:none;}.cls-1,.cls-10,.cls-17,.cls-18,.cls-19,.cls-2,.cls-20,.cls-5,.cls-9{stroke:#000;}.cls-1,.cls-10,.cls-13,.cls-14,.cls-15,.cls-17,.cls-18,.cls-19,.cls-2,.cls-20,.cls-23,.cls-24,.cls-3,.cls-5,.cls-9{stroke-miterlimit:10;}.cls-1,.cls-13,.cls-2{stroke-width:1.08px;}.cls-2{fill:#fff;}.cls-3{stroke:#333;stroke-width:1.03px;stroke-dasharray:6.19;}.cls-4{fill:#fdca01;}.cls-10,.cls-13,.cls-14,.cls-18,.cls-5{fill:#feffff;}.cls-5{stroke-width:0.86px;}.cls-6{fill:#fff1b8;}.cls-7{fill:#efefef;}.cls-8{fill:#ffef3a;}.cls-9{stroke-width:1.01px;}.cls-10{stroke-width:1.01px;}.cls-11{fill:#f1b0ce;}.cls-12{fill:#bbb1d6;}.cls-13,.cls-14,.cls-15{stroke:#472b0a;}.cls-14,.cls-15{stroke-width:0.92px;}.cls-16{fill:#acf2f9;}.cls-17{stroke-width:1.1px;}.cls-18{stroke-width:0.93px;}.cls-19{stroke-width:1.05px;}.cls-20{stroke-width:1.17px;}.cls-21{fill:#e0e0e0;}.cls-22{fill:#333;}.cls-23{stroke:#c9dc4e;}.cls-23,.cls-24{stroke-width:2.16px;}.cls-24{stroke:#cb3727;}.cls-25{fill:#f4f4f4;}.cls-26{fill:#f8d46d;}.cls-27,.cls-28,.cls-29,.cls-30,.cls-31,.cls-32,.cls-33,.cls-34,.cls-35{isolation:isolate;}.cls-28,.cls-29,.cls-30,.cls-31,.cls-32,.cls-33,.cls-34,.cls-35{font-size:12px;font-family:ArialMT, Arial;}.cls-28{letter-spacing:-0.09em;}.cls-30{letter-spacing:-0.01em;}.cls-31{letter-spacing:-0.01em;}.cls-32{letter-spacing:0em;}.cls-33{letter-spacing:0.01em;}.cls-34{letter-spacing:-0.01em;}.cls-35{letter-spacing:0em;}</style></defs><title>homepage</title><line class="cls-1" x1="103.47" y1="155.19" x2="115.33" y2="168.13"/><line class="cls-1" x1="124.5" y1="153.57" x2="134.74" y2="180.52"/><line class="cls-1" x1="151.99" y1="145.49" x2="148.75" y2="158.96"/><line class="cls-1" x1="319.11" y1="161.02" x2="311.68" y2="173.49"/><line class="cls-1" x1="298.68" y1="161.99" x2="298.74" y2="177.68"/><line class="cls-1" x1="281.59" y1="165.02" x2="288.88" y2="174.91"/><line class="cls-1" x1="387.27" y1="172.01" x2="392.66" y2="183.33"/><path class="cls-2" d="M416.44,174.12v15.09" transform="translate(-11.92 -5.88)"/><line class="cls-1" x1="420.69" y1="164.46" x2="416.92" y2="177.67"/><path class="cls-3" d="M77.36,218.43S-3,155.78,44.47,104.49s73.31-20.72,73.31-20.72,14,15.78-6.47,18.25-39.89-34.53,3.23-54.75c37.79-17.72,56.13,9.26,60.08,16.2a12.41,12.41,0,0,1,1.18,2.84c2.7,9.74,20.86,72,48.17,87,29.65,16.28,79.24,8.88,98.64-11.84s36.65-63.14,4.31-91.25c-25.67-22.31-1.43-37.17,9.67-42.35A15.65,15.65,0,0,1,347.42,7c7.92,2.25,20.37,8.81,15.08,27.47-7.55,26.64,17.25,29.1,17.25,29.1s49,3.95,67.38-16.77c10.56-11.94,6.62-20.77,1.39-26.1a15.56,15.56,0,0,0-19.35-2.19c-7.6,5.05-12.82,16.75,9.34,43.58,0,0,2.7,3.95,18.33,9.37s46.36,12.82,34.5,46.86c-8.11,23.28-32.12,36.18-46.47,42-8.35,3.39-18.29-.83-20.23-9-.8-3.36-.14-6.87,3.63-9.83,11.32-8.88,32.88-3.45,37.19,23.68s2.16,32.8-27,52.41" transform="translate(-11.92 -5.88)"/><polygon class="cls-4" points="443.88 118.53 460.59 134.17 488.08 122.85 469.75 123.92 481.61 106.14 465.98 115.84 470.29 99.67 454.66 111.53 459.51 91.58 443.88 118.53"/><path class="cls-5" d="M397.68,230.86a14.64,14.64,0,0,1,2.19-7.92c2.36-3.37,3.37-3.71,3.71-9.43s5.39-12.8,13.65-12.8S430,205.93,430.53,211s.17,7.58,3.54,8.76,7.92,4.21,8.09,13.31" transform="translate(-11.92 -5.88)"/><path class="cls-6" d="M409.16,227.41l.06-12.64s4.86-11.06,13.52-3.1c0,0,2.4,3,1.52,16.8C424.26,228.48,416.36,236.7,409.16,227.41Z" transform="translate(-11.92 -5.88)"/><path class="cls-7" d="M398.48,280.69a22.23,22.23,0,0,1,2.91.72c5,1.9,19.25,6.22,36.9-1.68l1.34,60.82s-1.86,10.61-3.37,8.26S423.79,300,419.58,293.55s-1.85.17-1.85.17l-.51,46.67s-1.68,14.34-5.73,2.55l-5-20-4.42-19.71Z" transform="translate(-11.92 -5.88)"/><path class="cls-8" d="M431.84,249.35,437.9,255s-1.69,2-3.79,4.93c-1.44,2-3.35,4.24-3.92,7.83-1.39,8.84,3.92,7,4.68,7,.38,0,1-1.64,1.42-3.29s.85-3.29.85-3.29,1.9-3.66,9.22-7.33,6.32-5.56,6.32-5.56-.51-6.32-6.57-15.92-8.34-8.21-12-10.23-7.2,1.52-13.39,3.41a13.4,13.4,0,0,1-12.64-2.4c-2.15-1.64-3.79-.63-3.79-.63s-7.33,5.31-10.61,7-7.33-2.91-7.33-2.91A83,83,0,0,0,380.41,223c-3-4.3-3-1.52-3.29-.51s.63,12.38.63,12.38.51,9.35,7.71,11a54.34,54.34,0,0,0,13.65,1.26l-1.64,9.6,1,23.88s19.58,8.21,39.17-.38" transform="translate(-11.92 -5.88)"/><path class="cls-9" d="M438,279.89l1.52,59s-1.35,15.92-4.72,7.67-10.94-53.15-20-58.71" transform="translate(-11.92 -5.88)"/><path class="cls-9" d="M408.68,227.62V216.69a7.52,7.52,0,0,1,7.52-7.52h0a7.52,7.52,0,0,1,7.52,7.52v10.8" transform="translate(-11.92 -5.88)"/><path class="cls-5" d="M411.83,222.27a2.66,2.66,0,0,0,4.21,0" transform="translate(-11.92 -5.88)"/><path class="cls-9" d="M417.4,292.86s0,25.94-.51,44.31-5.22,6.57-5.22,6.57-5-17-11.62-52.56,1.68-55.93,1.68-55.93" transform="translate(-11.92 -5.88)"/><path class="cls-9" d="M400.55,281.4s19.21,7.08,37.4-1.52l-1.69-8.23" transform="translate(-11.92 -5.88)"/><path class="cls-9" d="M435.26,290.67s-5.39-2-5.39-4.55" transform="translate(-11.92 -5.88)"/><path class="cls-9" d="M396.33,246.7s-15.67,1.52-17.44-8.09-4.3-27.8,3.79-11.88,11.37,9.86,22.24,2" transform="translate(-11.92 -5.88)"/><path class="cls-9" d="M407,229.36s7.78,7.44,21,.34,29,24.69,23.65,28.08-14.55,6.43-15.22,12.85-6.09,5.75-6.09.34,6.43-15.9,7.78-15.9S432,249,432,249l1.69,11.84" transform="translate(-11.92 -5.88)"/><path class="cls-10" d="M416,206.44s-1.23,7.09,7.71,7.83l3.41-.11" transform="translate(-11.92 -5.88)"/><path class="cls-6" d="M303.07,210.14l.07-13.48s5.19-11.79,14.42-3.3c0,0,2.56,3.17,1.62,17.92C319.17,211.29,310.75,220,303.07,210.14Z" transform="translate(-11.92 -5.88)"/><path class="cls-7" d="M287.77,262.7s15.09,8.36,42.58,1.08l-3.19,29.87-3.75,31.22-4,21s-1.91-2.35-3.24-18.33-3-21-3-21l-3.65-29.38a280,280,0,0,0-13.1,49.86c-4.31,27-6.74,21.56-6.74,21.56S284,335.4,287.77,262.7Z" transform="translate(-11.92 -5.88)"/><path class="cls-11" d="M324.09,211.36l16.37,14.76,19.74-8.76,6.08-3.4s4.57-1.92,1.27,3.94a53.2,53.2,0,0,1-9.17,8.28l-13.8,10.93-16,.27Z" transform="translate(-11.92 -5.88)"/><path class="cls-11" d="M302.93,211.42l-7.43.79-5.21,2.16-3.41,2.7-8.45,20.66,3.76,7.85,5.21,6.11.37,11s7.19,5.21,21.56,4.49,21-3.41,21-3.41l.72-19.41-2-18.11-4.94-14.58-4.49-.54S314.25,219.33,302.93,211.42Z" transform="translate(-11.92 -5.88)"/><path class="cls-1" d="M302.68,211s8.8,8.8,16.71.18l4.67.36,15.81,14.19" transform="translate(-11.92 -5.88)"/><path class="cls-1" d="M338.62,226.76l21.56-9.16s9.42-6.59,8.62-2.34c-1.08,5.75-24.26,21.92-24.26,21.92l-14-.18" transform="translate(-11.92 -5.88)"/><path class="cls-1" d="M326.58,218.14s6.65,16.43,3.79,45.64c0,0-8.69,85.49-11,82.14-3-4.31-9.44-68.48-9.44-68.48" transform="translate(-11.92 -5.88)"/><path class="cls-1" d="M327.84,264.14s-20.48,7.55-39.89-1.62l-.36-9.16" transform="translate(-11.92 -5.88)"/><path class="cls-1" d="M287.23,264.14l.18,74.21s1.26,17.07,4.85,8.27S303,280.13,312.75,274.2" transform="translate(-11.92 -5.88)"/><path class="cls-1" d="M290.82,277.25s5.75-2.16,5.75-4.85" transform="translate(-11.92 -5.88)"/><path class="cls-1" d="M319.17,210V198.35a8,8,0,0,0-8-8h0a8,8,0,0,0-8,8v11.52" transform="translate(-11.92 -5.88)"/><path class="cls-1" d="M298.28,232.33c-.9.81-9.43,5.75-9.43,5.75s2.33,7.49,4.84,15c.17.51,3.06,6.48-.81,4.71a1.56,1.56,0,0,1-.63-.51c-.41-.58-14-14.74-13.56-19.51S287,217,287,217s4.31-5.57,13.39-5.21" transform="translate(-11.92 -5.88)"/><path class="cls-1" d="M309.94,206s2.7,2.43,5.12,0" transform="translate(-11.92 -5.88)"/><path class="cls-6" d="M125.95,219.85l.07-13.48s5.19-11.79,14.42-3.3c0,0,2.56,3.17,1.62,17.92C142.05,221,133.63,229.75,125.95,219.85Z" transform="translate(-11.92 -5.88)"/><path class="cls-7" d="M110.65,272.4s15.09,8.36,42.58,1.08l-5.12,30.93-3.64,16.78-5,20.75s-4.85,12.94-5.66-1.62-1.35-50.67-1.35-50.67l2.16-5.12s-11.05,15.63-15.36,42.58-7.82,21.56-7.82,21.56S106.88,345.11,110.65,272.4Z" transform="translate(-11.92 -5.88)"/><polyline class="cls-12" points="147.77 226.72 148.97 236 146.46 245.83 142.03 255.07 139.5 241.19 135.05 215.18 143.05 219.8"/><path class="cls-12" d="M125.81,221.13l-7.43.79-5.21,2.16-3.41,2.7-8.45,20.66,4.49,7.73,4.72,3.77.13,13.48s7.19,5.21,21.56,4.49,21-3.41,21-3.41l.54-2.66.18-9.87V254.1l-2-18.1-4.94-14.58-4.49-.54S137.13,229,125.81,221.13Z" transform="translate(-11.92 -5.88)"/><path class="cls-1" d="M125.56,220.66s8.8,8.8,16.71.18l4.67.36s26,6.45,7,39.75" transform="translate(-11.92 -5.88)"/><path class="cls-1" d="M149.46,227.84s8.8,21.74,1.8,59.65-12.4,56.06-12.4,56.06-5,12.58-5.57-7-.54-47.26-.54-47.26" transform="translate(-11.92 -5.88)"/><path class="cls-1" d="M150.72,273.84s-20.48,7.55-39.89-1.62l-.36-12.4" transform="translate(-11.92 -5.88)"/><path class="cls-1" d="M110.11,273.84l-.9,64.51s1.26,17.07,4.85,8.27,11.86-56.78,21.56-62.71" transform="translate(-11.92 -5.88)"/><path class="cls-1" d="M113.71,287s5.75-2.16,5.75-4.85" transform="translate(-11.92 -5.88)"/><path class="cls-1" d="M142.05,219.71V208a8,8,0,0,0-8-8h0a8,8,0,0,0-8,8v11.52" transform="translate(-11.92 -5.88)"/><path class="cls-1" d="M124.56,206.61s-3.53-7.54.33-8.71,5.21-4.36,6.66-8.1,11.22-3.12,13.24,2.73.75,8.91-.18,11.57" transform="translate(-11.92 -5.88)"/><ellipse class="cls-13" cx="122.72" cy="201.39" rx="2.7" ry="4.22"/><ellipse class="cls-14" cx="129.91" cy="201.21" rx="2.29" ry="3.59"/><path class="cls-14" d="M137.33,207.27s1.17-1.07,2.2-.17" transform="translate(-11.92 -5.88)"/><line class="cls-15" x1="120.02" y1="201.39" x2="114.18" y2="201.12"/><path class="cls-1" d="M121.16,242c-.9.81-9.43,5.75-9.43,5.75l4.85,14.73s3.14-.27,2.61.9a2.22,2.22,0,0,1-1,1,.91.91,0,0,0-.4,1.22l0,.06c.84,1.37,1.8,3.6-2.07,1.83a1.56,1.56,0,0,1-.63-.51,3.73,3.73,0,0,1-.62-3.24c.63-2-13.39-11.5-12.94-16.26s8.27-20.84,8.27-20.84,4.31-5.57,13.39-5.21" transform="translate(-11.92 -5.88)"/><path class="cls-1" d="M154.29,260.52s-5.64,1.88-4.42,2.47,1.28.85,1.28.85l-3,1.74a.76.76,0,0,0-.28,1v0c.9,1.47,2.08,3,3.81,1.68l2.26-1.64" transform="translate(-11.92 -5.88)"/><path class="cls-1" d="M204.93,273.88S184.25,260.4,184,238.12a14.51,14.51,0,0,1,8.84-13.7l.87-.32c7.16-2.4,6.45-8.06,9.13-19.23,6.53-27.18,30-12.87,31.39-4.88,1.75,10,2.51,17.1,3.71,21s.28,10.77-5.85,15.65S204.93,273.88,204.93,273.88Z" transform="translate(-11.92 -5.88)"/><path class="cls-6" d="M211.82,217l.07-13.72s5.28-12,14.68-3.36c0,0,2.61,3.22,1.65,18.25C228.21,218.13,219.64,227,211.82,217Z" transform="translate(-11.92 -5.88)"/><path class="cls-7" d="M200.23,274.81a24.14,24.14,0,0,1,3.16.78c5.41,2.06,20.9,6.76,40.07-1.83l1.46,66s-2,11.52-3.66,9-13.54-53-18.11-60-2,.18-2,.18l-.55,50.67s-1.83,15.57-6.22,2.77L209,320.63l-4.8-21.4Z" transform="translate(-11.92 -5.88)"/><path class="cls-16" d="M200.91,238.46l-1.78,10.43,1.1,25.93s21.27,8.92,42.53-.41" transform="translate(-11.92 -5.88)"/><path class="cls-16" d="M236.45,240.79,243,247s-1.83,2.12-4.12,5.35c-1.56,2.21-3.64,4.61-4.25,8.51-1.51,9.6,4.25,7.55,5.08,7.55.41,0,1-1.78,1.54-3.57s.93-3.57.93-3.57,2.06-4,10-8,6.86-6,6.86-6-.55-6.86-7.13-17.29-9.05-8.92-13-11.11-7.82,1.65-14.54,3.7A14.55,14.55,0,0,1,210.65,220c-2.33-1.78-4.12-.69-4.12-.69a57.23,57.23,0,0,1-6.66,4l-5.2,5.51-3.4,6.68s-.47,6.39-.94,6.69,1.17,6.77,1.17,6.77,2.25,5.38,2.39,5.65,3.33,5.32,3.33,5.32l1.93,3.2,5.92,13.36,38-2.46-7.17-36" transform="translate(-11.92 -5.88)"/><path class="cls-17" d="M243.08,274l1.65,64s-1.47,17.29-5.13,8.32-11.88-57.71-21.76-63.75" transform="translate(-11.92 -5.88)"/><path class="cls-17" d="M211.3,217.19V205.32a8.16,8.16,0,0,1,8.16-8.16h0a8.16,8.16,0,0,1,8.16,8.16h0v11.73" transform="translate(-11.92 -5.88)"/><path class="cls-18" d="M214.72,211.38s2,2.56,4.57,0" transform="translate(-11.92 -5.88)"/><path class="cls-17" d="M220.77,288s0,28.17-.55,48.11-5.67,7.13-5.67,7.13-5.49-18.48-12.62-57.07,1.83-60.73,1.83-60.73" transform="translate(-11.92 -5.88)"/><path class="cls-17" d="M202.47,275.59s20.85,7.68,40.61-1.65L241.25,265" transform="translate(-11.92 -5.88)"/><path class="cls-17" d="M240.16,285.65s-5.85-2.2-5.85-4.94" transform="translate(-11.92 -5.88)"/><path class="cls-17" d="M209.42,219.08s8.45,8.08,22.77.37,31.59,26.81,25.71,30.49-15.79,7-16.53,14-6.61,6.24-6.61.37,7-17.26,8.45-17.26-6.61-6.61-6.61-6.61l1.83,12.86" transform="translate(-11.92 -5.88)"/><path class="cls-19" d="M228.73,207.39c-3,.62-11.83,1.25-14-4.57,0,0-1.08,2-5.38,2.48" transform="translate(-11.92 -5.88)"/><path class="cls-20" d="M199.26,262.5c-24-29.65,8-44.08,8-44.08" transform="translate(-11.92 -5.88)"/><line class="cls-1" x1="229.01" y1="161.08" x2="221.58" y2="173.55"/><line class="cls-1" x1="208.57" y1="162.05" x2="208.63" y2="177.74"/><line class="cls-1" x1="191.48" y1="165.07" x2="198.78" y2="174.97"/><polygon class="cls-4" points="104.66 48.19 87.95 63.82 60.46 52.5 78.79 53.58 66.93 35.79 82.56 45.49 78.25 29.32 93.88 41.18 89.03 21.24 104.66 48.19"/><rect class="cls-7" x="261.2" y="89.09" width="50.52" height="32.1" rx="1.38" ry="1.38" transform="translate(-2.36 227.47) rotate(-45)"/><rect class="cls-21" x="269.09" y="91.26" width="37.4" height="25.13" rx="1.38" ry="1.38" transform="translate(-1.04 228.02) rotate(-45)"/><path class="cls-22" d="M267.43,114.37l9.81,9.81a1.38,1.38,0,0,1,0,2h0a1.38,1.38,0,0,1-2,0l-9.81-9.81a1.38,1.38,0,0,1,0-2h0A1.38,1.38,0,0,1,267.43,114.37Z" transform="translate(-11.92 -5.88)"/><circle class="cls-23" cx="28.72" cy="91.58" r="4.4"/><circle class="cls-23" cx="373.54" cy="123.14" r="9.7"/><circle class="cls-24" cx="215.71" cy="95.98" r="2.19"/><circle class="cls-24" cx="49.3" cy="262.31" r="3.23"/><circle class="cls-24" cx="465.98" cy="269.36" r="3.23"/><rect class="cls-25" x="20.56" y="176.34" width="54.36" height="62.48" rx="0.98" ry="0.98" transform="translate(-78.88 22.22) rotate(-19.63)"/><path class="cls-22" d="M25.7,216l24.55-8.76a.39.39,0,0,1,.5.24h0a.39.39,0,0,1-.24.5L26,216.69a.39.39,0,0,1-.5-.24h0A.39.39,0,0,1,25.7,216Z" transform="translate(-11.92 -5.88)"/><path class="cls-22" d="M29,225.31l29.25-10.43a.39.39,0,0,1,.5.24h0a.39.39,0,0,1-.24.5L29.3,226a.39.39,0,0,1-.5-.24h0A.39.39,0,0,1,29,225.31Z" transform="translate(-11.92 -5.88)"/><rect class="cls-22" x="22.45" y="199.07" width="30.79" height="6.2" rx="1.07" ry="1.07" transform="translate(-77.64 18.58) rotate(-19.63)"/><path class="cls-22" d="M19.48,195.35,49.3,184.71a.39.39,0,0,1,.5.24h0a.39.39,0,0,1-.24.5L19.74,196.09a.39.39,0,0,1-.5-.24h0A.39.39,0,0,1,19.48,195.35Z" transform="translate(-11.92 -5.88)"/><path class="cls-22" d="M17.81,190.68,53.3,178a.39.39,0,0,1,.5.24h0a.39.39,0,0,1-.24.5L18.08,191.41a.39.39,0,0,1-.5-.24h0A.39.39,0,0,1,17.81,190.68Z" transform="translate(-11.92 -5.88)"/><path class="cls-22" d="M21.14,200,60,186.15a.39.39,0,0,1,.5.24h0a.39.39,0,0,1-.24.5L21.4,200.74a.39.39,0,0,1-.5-.24h0A.39.39,0,0,1,21.14,200Z" transform="translate(-11.92 -5.88)"/><path class="cls-22" d="M27.36,220.63l24.55-8.76a.39.39,0,0,1,.5.24h0a.39.39,0,0,1-.24.5l-24.55,8.76a.39.39,0,0,1-.5-.24h0A.39.39,0,0,1,27.36,220.63Z" transform="translate(-11.92 -5.88)"/><path class="cls-22" d="M31.9,229.29l37.7-13.64a.39.39,0,0,1,.5.23h0a.39.39,0,0,1-.23.5L32.17,230a.39.39,0,0,1-.5-.23h0A.39.39,0,0,1,31.9,229.29Z" transform="translate(-11.92 -5.88)"/><path class="cls-22" d="M34,239.34l44.93-16a.39.39,0,0,1,.5.24h0a.39.39,0,0,1-.24.5l-44.93,16a.39.39,0,0,1-.5-.24h0A.39.39,0,0,1,34,239.34Z" transform="translate(-11.92 -5.88)"/><path class="cls-22" d="M32.37,234.66l37.78-13.47a.39.39,0,0,1,.5.24h0a.39.39,0,0,1-.24.5L32.63,235.39a.39.39,0,0,1-.5-.24h0A.39.39,0,0,1,32.37,234.66Z" transform="translate(-11.92 -5.88)"/><path class="cls-4" d="M373,67.77l9.75,2.52a1.82,1.82,0,0,0,2-2.63L380.38,58l4.89-8.94a1.83,1.83,0,0,0-1.81-2.75l-9.84,1.13L367,39.3a1.63,1.63,0,0,0-3,.8l-1.71,10.18-9,4.15a1.89,1.89,0,0,0-.18,3.29L361.8,63l1.07,10.57a1.83,1.83,0,0,0,3,1.28Z" transform="translate(-11.92 -5.88)"/><path class="cls-26" d="M368.67,172l.65-1.62a.55.55,0,0,1,1,0L371,172a5.11,5.11,0,0,0,2.8,2.8l1.62.65a.55.55,0,0,1,0,1l-1.72.54a5.11,5.11,0,0,0-2.8,2.8l-.65,1.62a.55.55,0,0,1-1,0l-.65-1.62a5.11,5.11,0,0,0-2.8-2.8l-1.62-.65a.55.55,0,0,1,0-1l1.62-.65A4.81,4.81,0,0,0,368.67,172Z" transform="translate(-11.92 -5.88)"/><path class="cls-4" d="M70,165.58l5,4.51a1.22,1.22,0,0,0,2-1l.39-7.1,5.67-3.8a1.23,1.23,0,0,0-.22-2.19l-6.19-2.38-1.43-6.87a1.09,1.09,0,0,0-2-.45L69,151.86l-6.64-.33a1.26,1.26,0,0,0-1.13,1.9l3.54,5.83-2.64,6.61a1.23,1.23,0,0,0,1.39,1.7Z" transform="translate(-11.92 -5.88)"/><path class="cls-4" d="M178.7,86.54l7.77,5.16A1.68,1.68,0,0,0,189,90l-.9-9.8,7-6.34a1.7,1.7,0,0,0-.75-3l-8.95-2L182,59.8a1.51,1.51,0,0,0-2.86-.2L174.59,68l-9.15.89a1.75,1.75,0,0,0-1.16,2.82l6,7.26L168,88.52a1.7,1.7,0,0,0,2.25,2Z" transform="translate(-11.92 -5.88)"/><path class="cls-26" d="M258,40.52l.65-1.62a.55.55,0,0,1,1,0l.65,1.62a5.11,5.11,0,0,0,2.8,2.8l1.62.65a.55.55,0,0,1,0,1l-1.72.54a5.11,5.11,0,0,0-2.8,2.8l-.65,1.62a.55.55,0,0,1-1,0l-.65-1.62a5.11,5.11,0,0,0-2.8-2.8l-1.62-.65a.55.55,0,0,1,0-1l1.62-.65A4.81,4.81,0,0,0,258,40.52Z" transform="translate(-11.92 -5.88)"/><g class="cls-27"><text class="cls-28" transform="translate(209.77 365.74)">T</text><text class="cls-29" transform="translate(214.88 365.74)">ea</text><text class="cls-30" transform="translate(226.68 365.74)">m</text><text class="cls-31" transform="translate(236.53 365.74)">w</text><text class="cls-29" transform="translate(245.24 365.74)">o</text><text class="cls-32" transform="translate(251.83 365.74)">r</text><text class="cls-33" transform="translate(255.8 365.74)">k</text><text class="cls-29" transform="translate(261.6 365.74)">, makes the d</text><text class="cls-34" transform="translate(327.31 365.74)">r</text><text class="cls-29" transform="translate(331.11 365.74)">eam </text><text class="cls-34" transform="translate(355.46 365.74)">w</text><text class="cls-29" transform="translate(364.17 365.74)">o</text><text class="cls-35" transform="translate(370.76 365.74)">r</text><text class="cls-33" transform="translate(374.73 365.74)">k</text><text class="cls-29" transform="translate(380.53 365.74)">.</text></g></svg>