<svg xmlns="http://www.w3.org/2000/svg" viewBox="0 0 417.91 157.95"><title>never miss a beat</title><g id="Layer_2" data-name="Layer 2"><g id="Layer_2-2" data-name="Layer 2"><path d="M80.79,38H97a10,10,0,0,1,10,10h0A10,10,0,0,1,97,58H44.79a10,10,0,0,0-10,10h0a10,10,0,0,0,10,10h25a10,10,0,0,1,10,10h0a10,10,0,0,1-10,10h-25a10,10,0,0,0-10,10h0a10,10,0,0,0,10,10H85.88a10,10,0,0,1,10,10h0a10,10,0,0,1-10,10H74.22a10,10,0,0,0-10,10h0a10,10,0,0,0,10,10H362a10,10,0,0,0,10-10h0a10,10,0,0,0-10-10H339.62a10,10,0,0,1-10-10h0a10,10,0,0,1,10-10H362a10,10,0,0,0,10-10h0a10,10,0,0,0-10-10H322.34a10,10,0,0,1-10-10h0a10,10,0,0,1,10-10h11.74a10,10,0,0,0,10-10h0a10,10,0,0,0-10-10H316.3a10,10,0,0,1-10-10h0a10,10,0,0,1,10-10H362a10,10,0,0,0,10-10h0a10,10,0,0,0-10-10H80.79a10,10,0,0,0-10,10h0A10,10,0,0,0,80.79,38Z" style="fill:#b2ebf2"/><rect y="58.01" width="20.36" height="20.36" rx="9.99" ry="9.99" style="fill:#b2ebf2"/><rect x="397.55" y="97.8" width="20.36" height="20.36" rx="9.99" ry="9.99" style="fill:#b2ebf2"/><rect x="331.56" y="87.99" width="19.99" height="19.99" style="fill:#e0f7fa"/><rect x="106.33" width="27.21" height="26.81" style="fill:#e0f7fa"/><rect x="54.69" y="124.73" width="27.21" height="26.81" style="fill:#e0f7fa"/><path d="M287.55,146.52V48.77a6.62,6.62,0,0,0-6.62-6.62H132a6.62,6.62,0,0,0-6.62,6.62v97.75H107.43a10.37,10.37,0,0,0,10.37,10.37h177.3a10.37,10.37,0,0,0,10.37-10.37Z" style="fill:#fff"/><path d="M256.45,146.52h49a10.37,10.37,0,0,1-10.37,10.37H117.81a10.37,10.37,0,0,1-10.37-10.37h118.9" style="fill:none;stroke:#677089;stroke-linecap:round;stroke-miterlimit:10;stroke-width:2px"/><line x1="243.45" y1="146.52" x2="250.49" y2="146.52" style="fill:none;stroke:#677089;stroke-linecap:round;stroke-miterlimit:10;stroke-width:2px"/><path d="M287.55,146.52V48.77a6.62,6.62,0,0,0-6.62-6.62H132a6.62,6.62,0,0,0-6.62,6.62v97.75" style="fill:none;stroke:#677089;stroke-linecap:round;stroke-miterlimit:10;stroke-width:2px"/><path d="M274.42,138.13V59a5.55,5.55,0,0,0-5.55-5.55H144A5.55,5.55,0,0,0,138.5,59v79.09" style="fill:none;stroke:#677089;stroke-linecap:round;stroke-miterlimit:10;stroke-width:2px"/><rect x="66.29" y="103.37" width="40.67" height="27.68" transform="translate(-42.8 50.2) rotate(-26.16)" style="fill:#fff"/><rect x="66.29" y="103.37" width="40.67" height="27.68" transform="translate(-42.8 50.2) rotate(-26.16)" style="fill:none;stroke:#677089;stroke-linecap:round;stroke-linejoin:round;stroke-width:2px"/><polygon points="72.28 87.99 62.27 113.75 87.09 116.39 98.78 95.82 72.28 87.99" style="fill:#fff"/><polyline points="97.8 118.79 62.27 113.75 72.28 87.99 98.78 95.82 87.09 116.39" style="fill:none;stroke:#677089;stroke-linecap:round;stroke-linejoin:round;stroke-width:2px"/><rect x="73.83" y="34.63" width="25.6" height="17.42" transform="translate(26.32 -32.46) rotate(24.91)" style="fill:#fff"/><rect x="73.83" y="34.63" width="25.6" height="17.42" transform="translate(26.32 -32.46) rotate(24.91)" style="fill:none;stroke:#677089;stroke-linecap:round;stroke-linejoin:round;stroke-width:2px"/><polygon points="95.26 24.76 78.69 30.05 87.21 43.25 101.91 40.84 95.26 24.76" style="fill:#fff"/><polyline points="90.27 49.44 78.69 30.05 95.26 24.76 101.91 40.84 87.21 43.25" style="fill:none;stroke:#677089;stroke-linecap:round;stroke-linejoin:round;stroke-width:2px"/><path d="M125.37,72.52s-11.44,16.6-26.59,5.85S75.62,67.29,64,74.62s-14,25.67,0,33" style="fill:none;stroke:#677089;stroke-linecap:round;stroke-linejoin:round;stroke-width:2px;stroke-dasharray:3,6"/><path d="M125.37,124.73S106.52,111,111,95.82s9-33.18-13.64-45.15" style="fill:none;stroke:#677089;stroke-linecap:round;stroke-linejoin:round;stroke-width:2px;stroke-dasharray:3,6"/><path d="M232.45,10.07H162.58A5.55,5.55,0,0,0,157,15.62V129.41a5.55,5.55,0,0,0,5.55,5.55h87.75a5.55,5.55,0,0,0,5.55-5.55V33.21Z" style="fill:#fff"/><path d="M157,110.86v18.56a5.55,5.55,0,0,0,5.55,5.55h87.75a5.55,5.55,0,0,0,5.55-5.55V33.21L233.06,10.07H162.58A5.55,5.55,0,0,0,157,15.62V104.4" style="fill:none;stroke:#677089;stroke-linecap:round;stroke-linejoin:round;stroke-width:2px"/><line x1="245.69" y1="33.21" x2="255.89" y2="33.21" style="fill:none;stroke:#677089;stroke-linecap:round;stroke-linejoin:round;stroke-width:2px"/><polyline points="233.06 10.07 233.06 33.21 239.76 33.21" style="fill:none;stroke:#677089;stroke-linecap:round;stroke-linejoin:round;stroke-width:2px"/><rect x="172.37" y="104.4" width="70.5" height="5.35" style="fill:#c5cae9"/><rect x="211.26" y="48.69" width="31.61" height="17.55" style="fill:#b2ebf2"/><line x1="170.45" y1="33.04" x2="199.63" y2="33.04" style="fill:none;stroke:#677089;stroke-linecap:round;stroke-linejoin:round;stroke-width:2px"/><line x1="196.05" y1="45.43" x2="245.29" y2="45.43" style="fill:none;stroke:#677089;stroke-linecap:round;stroke-linejoin:round;stroke-width:2px"/><line x1="170.45" y1="45.43" x2="187.75" y2="45.43" style="fill:none;stroke:#677089;stroke-linecap:round;stroke-linejoin:round;stroke-width:2px"/><line x1="170.45" y1="57.82" x2="245.29" y2="57.82" style="fill:none;stroke:#677089;stroke-linecap:round;stroke-linejoin:round;stroke-width:2px"/><line x1="170.45" y1="70.2" x2="245.29" y2="70.2" style="fill:none;stroke:#677089;stroke-linecap:round;stroke-linejoin:round;stroke-width:2px"/><line x1="170.45" y1="82.59" x2="233.01" y2="82.59" style="fill:none;stroke:#677089;stroke-linecap:round;stroke-linejoin:round;stroke-width:2px"/><circle cx="241.23" cy="82.59" r="3.75" style="fill:none;stroke:#677089;stroke-linecap:round;stroke-linejoin:round;stroke-width:2px"/><line x1="170.45" y1="121.73" x2="245.29" y2="121.73" style="fill:none;stroke:#677089;stroke-linecap:round;stroke-linejoin:round;stroke-width:2px;stroke-dasharray:3,6"/><line x1="232.33" y1="108.61" x2="240.06" y2="116.34" style="fill:none;stroke:#677089;stroke-linecap:round;stroke-linejoin:round;stroke-width:2px"/><line x1="232.33" y1="116.34" x2="240.37" y2="108.3" style="fill:none;stroke:#677089;stroke-linecap:round;stroke-linejoin:round;stroke-width:2px"/><rect x="307.01" y="21.71" width="49.1" height="33.42" transform="translate(90.92 -192.88) rotate(37.26)" style="fill:#fff"/><polyline points="313.39 21.75 322.13 10.26 361.21 39.98 340.98 66.58 301.9 36.86 307.65 29.31" style="fill:none;stroke:#677089;stroke-linecap:round;stroke-linejoin:round;stroke-width:2px"/><polyline points="322.13 10.26 327.72 43.47 361.21 39.98" style="fill:none;stroke:#677089;stroke-linecap:round;stroke-linejoin:round;stroke-width:2px"/><circle cx="342.05" cy="65.32" r="8.72" transform="translate(82.99 298.02) rotate(-52.74)" style="fill:#fff"/><path d="M349,70.59a8.72,8.72,0,1,1-1.66-12.22" style="fill:none;stroke:#677089;stroke-linecap:round;stroke-linejoin:round;stroke-width:2px"/><polyline points="339.56 60.74 340.41 67 353.96 65.15" style="fill:none;stroke:#677089;stroke-linecap:round;stroke-linejoin:round;stroke-width:2px"/><rect x="307.56" y="120.11" width="32.83" height="22.35" transform="translate(-25.1 149.87) rotate(-25.11)" style="fill:#fff"/><polyline points="308.46 136.88 304.37 128.13 334.09 114.2 343.57 134.44 313.85 148.37 311.16 142.62" style="fill:none;stroke:#677089;stroke-linecap:round;stroke-linejoin:round;stroke-width:2px"/><polyline points="304.37 128.13 325.77 135.12 334.09 114.2" style="fill:none;stroke:#677089;stroke-linecap:round;stroke-linejoin:round;stroke-width:2px"/><circle cx="343.16" cy="133.41" r="5.83" transform="translate(-24.19 158.22) rotate(-25.11)" style="fill:#fff"/><path d="M348.43,130.94a5.83,5.83,0,1,1-7.75-2.8" style="fill:none;stroke:#677089;stroke-linecap:round;stroke-linejoin:round;stroke-width:2px"/><polyline points="339.67 133.47 343.64 134.9 346.76 126.3" style="fill:none;stroke:#677089;stroke-linecap:round;stroke-linejoin:round;stroke-width:2px"/><path d="M318.45,49.44s5.18,18.62-3.16,24.59-21.67-8.72-27.74,34.58" style="fill:none;stroke:#677089;stroke-linecap:round;stroke-linejoin:round;stroke-width:2px;stroke-dasharray:3,6"/><path d="M287.55,117.21s21.24-11.76,31.68,4.52" style="fill:none;stroke:#677089;stroke-linecap:round;stroke-linejoin:round;stroke-width:2px;stroke-dasharray:3,6"/></g></g></svg>