<svg xmlns="http://www.w3.org/2000/svg" viewBox="0 0 419 193.45"><title>billing</title><g id="Layer_2" data-name="Layer 2"><g id="Layer_2-2" data-name="Layer 2"><path d="M81.88,67.92H98.07a10,10,0,0,1,10,10h0a10,10,0,0,1-10,10H45.88a10,10,0,0,0-10,10h0a10,10,0,0,0,10,10h25a10,10,0,0,1,10,10h0a10,10,0,0,1-10,10h-25a10,10,0,0,0-10,10h0a10,10,0,0,0,10,10H87a10,10,0,0,1,10,10h0a10,10,0,0,1-10,10H75.31a10,10,0,0,0-10,10h0a10,10,0,0,0,10,10H363.06a10,10,0,0,0,10-10h0a10,10,0,0,0-10-10H340.71a10,10,0,0,1-10-10h0a10,10,0,0,1,10-10h22.35a10,10,0,0,0,10-10h0a10,10,0,0,0-10-10H323.42a10,10,0,0,1-10-10h0a10,10,0,0,1,10-10h11.74a10,10,0,0,0,10-10h0a10,10,0,0,0-10-10H317.39a10,10,0,0,1-10-10h0a10,10,0,0,1,10-10h45.67a10,10,0,0,0,10-10h0a10,10,0,0,0-10-10H81.88a10,10,0,0,0-10,10h0A10,10,0,0,0,81.88,67.92Z" style="fill:#b2ebf2"/><rect x="1.09" y="87.9" width="20.36" height="20.36" rx="9.99" ry="9.99" style="fill:#b2ebf2"/><rect x="398.64" y="127.7" width="20.36" height="20.36" rx="9.99" ry="9.99" style="fill:#b2ebf2"/><rect x="332.65" y="117.89" width="19.99" height="19.99" style="fill:#e0f7fa"/><rect x="107.42" y="29.89" width="27.21" height="26.81" style="fill:#e0f7fa"/><rect x="55.78" y="154.62" width="27.21" height="26.81" style="fill:#e0f7fa"/><path d="M288.64,176.41V78.66A6.62,6.62,0,0,0,282,72H133.08a6.62,6.62,0,0,0-6.62,6.62v97.75H108.52a10.37,10.37,0,0,0,10.37,10.37H296.2a10.37,10.37,0,0,0,10.37-10.37Z" style="fill:#fff"/><path d="M296.2,187.79H118.9a11.39,11.39,0,0,1-11.37-11.37v-1h119.9a1,1,0,0,1,0,2H109.58a9.39,9.39,0,0,0,9.32,8.37H296.2a9.39,9.39,0,0,0,9.32-8.37h-48a1,1,0,0,1,0-2h50v1A11.39,11.39,0,0,1,296.2,187.79Z" style="fill:#677089"/><path d="M251.57,177.41h-7a1,1,0,0,1,0-2h7a1,1,0,1,1,0,2Z" style="fill:#677089"/><path d="M288.64,177.41a1,1,0,0,1-1-1V78.66A5.63,5.63,0,0,0,282,73H133.07a5.63,5.63,0,0,0-5.62,5.62v97.75a1,1,0,1,1-2,0V78.66A7.63,7.63,0,0,1,133.07,71H282a7.63,7.63,0,0,1,7.62,7.62v97.75A1,1,0,0,1,288.64,177.41Z" style="fill:#677089"/><path d="M275.51,169a1,1,0,0,1-1-1V88.94A4.55,4.55,0,0,0,270,84.39H145.13a4.55,4.55,0,0,0-4.55,4.55V168a1,1,0,0,1-2,0V88.94a6.56,6.56,0,0,1,6.55-6.55H270a6.56,6.56,0,0,1,6.55,6.55V168A1,1,0,0,1,275.51,169Z" style="fill:#677089"/><path d="M233.54,40H163.67a5.55,5.55,0,0,0-5.55,5.55V159.31a5.55,5.55,0,0,0,5.55,5.55h87.75a5.55,5.55,0,0,0,5.55-5.55V63.11Z" style="fill:#fff"/><path d="M251.42,165.86H163.67a6.56,6.56,0,0,1-6.55-6.55V140.75a1,1,0,1,1,2,0v18.56a4.56,4.56,0,0,0,4.55,4.55h87.75a4.56,4.56,0,0,0,4.55-4.55V63.52L233.73,41H163.67a4.56,4.56,0,0,0-4.55,4.55V134.3a1,1,0,1,1-2,0V45.52A6.56,6.56,0,0,1,163.67,39h70.47a1,1,0,0,1,.71.3l22.83,23.14a1,1,0,0,1,.29.7v96.2A6.56,6.56,0,0,1,251.42,165.86Z" style="fill:#677089"/><path d="M257,64.11h-10.2a1,1,0,0,1,0-2H257a1,1,0,0,1,0,2Z" style="fill:#677089"/><path d="M240.85,64.11h-6.71a1,1,0,0,1-1-1V40a1,1,0,1,1,2,0V62.11h5.71a1,1,0,0,1,0,2Z" style="fill:#677089"/><path d="M80.79,68.62H97a10,10,0,0,1,10,10h0a10,10,0,0,1-10,10H44.79a10,10,0,0,0-10,10h0a10,10,0,0,0,10,10h25a10,10,0,0,1,10,10h0a10,10,0,0,1-10,10h-25a10,10,0,0,0-10,10h0a10,10,0,0,0,10,10H85.88a10,10,0,0,1,10,10h0a10,10,0,0,1-10,10H74.22a10,10,0,0,0-10,10h0a10,10,0,0,0,10,10H362a10,10,0,0,0,10-10h0a10,10,0,0,0-10-10H339.62a10,10,0,0,1-10-10h0a10,10,0,0,1,10-10H362a10,10,0,0,0,10-10h0a10,10,0,0,0-10-10H322.34a10,10,0,0,1-10-10h0a10,10,0,0,1,10-10h11.74a10,10,0,0,0,10-10h0a10,10,0,0,0-10-10H316.3a10,10,0,0,1-10-10h0a10,10,0,0,1,10-10H362a10,10,0,0,0,10-10h0a10,10,0,0,0-10-10H80.79a10,10,0,0,0-10,10h0A10,10,0,0,0,80.79,68.62Z" style="fill:#b2ebf2"/><rect y="88.6" width="20.36" height="20.36" rx="9.99" ry="9.99" style="fill:#b2ebf2"/><rect x="397.55" y="128.4" width="20.36" height="20.36" rx="9.99" ry="9.99" style="fill:#b2ebf2"/><rect x="335.95" y="157.76" width="19.99" height="19.99" style="fill:#e0f7fa"/><rect x="82.22" y="81.34" width="19.99" height="19.99" style="fill:#e0f7fa"/><rect x="299.66" y="35.79" width="27.21" height="26.81" style="fill:#e0f7fa"/><rect x="44.4" y="117.53" width="27.21" height="26.81" style="fill:#e0f7fa"/><circle cx="286.83" cy="161.71" r="19.88" transform="translate(101.98 434.2) rotate(-85.26)" style="fill:#fff"/><path d="M286.84,182.59q-.86,0-1.74-.07a20.88,20.88,0,1,1,19.17-32.28,1,1,0,0,1-1.67,1.1,18.88,18.88,0,1,0,3,11.93,1,1,0,1,1,2,.17A20.91,20.91,0,0,1,286.84,182.59Z" style="fill:#677089"/><path d="M284.72,173.95l.27-3.21a9.29,9.29,0,0,1-4.75-1.8l.94-2.07a8.5,8.5,0,0,0,4.46,1.75c2.26.19,3.89-1,4-2.8s-1-2.93-3.28-4.08c-3.14-1.54-5-3.17-4.79-5.93s2.26-4.48,5.22-4.72l.27-3.21,2,.16-.26,3.08a8.51,8.51,0,0,1,4,1.45l-1,2A7.71,7.71,0,0,0,288,153.2c-2.45-.2-3.49,1.18-3.6,2.45-.14,1.65,1,2.58,3.64,3.95,3.16,1.61,4.68,3.4,4.44,6.22-.21,2.51-2.15,4.72-5.47,5l-.27,3.31Z" style="fill:#677089"/><circle cx="329.52" cy="125.55" r="16.42" transform="translate(26.7 306.23) rotate(-51.68)" style="fill:#fff"/><path d="M329.51,143a17.41,17.41,0,1,1,13.68-6.61A17.34,17.34,0,0,1,329.51,143Zm0-32.83a15.71,15.71,0,0,0-1.82.11,15.36,15.36,0,1,0,1.82-.11Z" style="fill:#677089"/><path d="M337,132.59l-2.09-1.65a7.67,7.67,0,0,1-3.41,2.44l-1-1.59a7,7,0,0,0,3.24-2.27c1.16-1.47,1.1-3.13-.08-4.06s-2.48-.65-4.31.39c-2.49,1.45-4.47,2-6.27.58a4.32,4.32,0,0,1-.86-5.75L320.13,119l1-1.28,2,1.58a7,7,0,0,1,2.85-2.12l1,1.59a6.37,6.37,0,0,0-2.76,2c-1.26,1.59-.78,2.94,0,3.6,1.07.85,2.22.51,4.38-.7,2.55-1.44,4.47-1.67,6.31-.21a4.58,4.58,0,0,1,.93,6l2.15,1.7Z" style="fill:#677089"/><circle cx="287.25" cy="74.43" r="15.04" transform="translate(70.21 276.78) rotate(-57.52)" style="fill:#fff"/><path d="M287.23,90.46a16,16,0,1,1,15.78-19,1,1,0,0,1-2,.38,14,14,0,0,0-25.64-4.91A14,14,0,1,0,299.1,82,1,1,0,0,1,300.79,83,16,16,0,0,1,287.23,90.46Z" style="fill:#677089"/><path d="M281.53,81.88l1.31-2.06a7,7,0,0,1-2.54-2.88l1.36-1.05A6.44,6.44,0,0,0,284,78.64c1.45.92,3,.71,3.69-.45s.36-2.32-.76-3.89c-1.56-2.14-2.24-3.89-1.12-5.66A4,4,0,0,1,291,67.32l1.31-2.06,1.26.8-1.26,2a6.44,6.44,0,0,1,2.19,2.4l-1.36,1A5.83,5.83,0,0,0,291,69.13c-1.57-1-2.75-.44-3.27.38-.67,1.06-.26,2.07,1,3.93,1.55,2.19,1.94,3.92.78,5.73a4.2,4.2,0,0,1-5.42,1.41l-1.35,2.12Z" style="fill:#677089"/><path d="M136.51,39.27H280.72a5.54,5.54,0,0,1,5.54,5.54V186.91a5.54,5.54,0,0,1-5.54,5.54H131a0,0,0,0,1,0,0V44.8A5.54,5.54,0,0,1,136.51,39.27Z" style="fill:#fff"/><path d="M280.72,193.45H255.47a1,1,0,1,1,0-2h25.24a4.54,4.54,0,0,0,4.54-4.54V44.8a4.54,4.54,0,0,0-4.54-4.54H136.51A4.54,4.54,0,0,0,132,44.8V191.45H247.22a1,1,0,1,1,0,2H131a1,1,0,0,1-1-1V44.8a6.55,6.55,0,0,1,6.54-6.54H280.72a6.55,6.55,0,0,1,6.54,6.54V186.91A6.55,6.55,0,0,1,280.72,193.45Z" style="fill:#677089"/><circle cx="256.44" cy="69.33" r="9.28" style="fill:#b2ebf2"/><rect x="181.5" y="63.27" width="29" height="18.62" style="fill:#c5cae9"/><path d="M213.4,60.07H144.77a1.8,1.8,0,0,1,0-3.61H213.4a1.8,1.8,0,0,1,0,3.61Z" style="fill:#677089"/><path d="M213.4,76.67H179.09a1.8,1.8,0,0,1,0-3.61H213.4a1.8,1.8,0,0,1,0,3.61Z" style="fill:#677089"/><path d="M168,76.67H144.77a1.8,1.8,0,0,1,0-3.61H168a1.8,1.8,0,0,1,0,3.61Z" style="fill:#677089"/><path d="M213.4,93.27H144.77a1.8,1.8,0,0,1,0-3.61H213.4a1.8,1.8,0,0,1,0,3.61Z" style="fill:#677089"/><path d="M213.4,109.86H144.77a1.8,1.8,0,0,1,0-3.61H213.4a1.8,1.8,0,0,1,0,3.61Z" style="fill:#677089"/><path d="M196.94,126.46H144.77a1.8,1.8,0,0,1,0-3.61h52.17a1.8,1.8,0,0,1,0,3.61Z" style="fill:#677089"/><path d="M208,164.49a6.83,6.83,0,1,1,6.83-6.82A6.83,6.83,0,0,1,208,164.49Zm0-10a3.22,3.22,0,1,0,3.22,3.22A3.22,3.22,0,0,0,208,154.44Z" style="fill:#677089"/><path d="M212.4,179.41h-3.7a1.8,1.8,0,1,1,0-3.61h3.7a1.8,1.8,0,0,1,0,3.61Zm-13.52,0h-5.41a1.8,1.8,0,0,1,0-3.61h5.41a1.8,1.8,0,0,1,0,3.61Zm-16.23,0h-5.41a1.8,1.8,0,0,1,0-3.61h5.41a1.8,1.8,0,1,1,0,3.61Zm-16.23,0H161a1.8,1.8,0,0,1,0-3.61h5.41a1.8,1.8,0,0,1,0,3.61Zm-16.23,0h-5.41a1.8,1.8,0,0,1,0-3.61h5.41a1.8,1.8,0,0,1,0,3.61Z" style="fill:#677089"/><path d="M271.39,167.7a1.8,1.8,0,0,1-1.28-.53l-10.36-10.36a1.8,1.8,0,0,1,2.55-2.55l10.36,10.36a1.8,1.8,0,0,1-1.28,3.08Z" style="fill:#677089"/><path d="M261,167.7a1.8,1.8,0,0,1-1.28-3.08l10.78-10.78a1.8,1.8,0,1,1,2.55,2.55l-10.78,10.78A1.8,1.8,0,0,1,261,167.7Z" style="fill:#677089"/><path d="M270.52,88.47H258.66a1,1,0,0,1,0-2h11.86a1,1,0,0,1,0,2Z" style="fill:#677089"/><path d="M251.11,88.47H232.47a1,1,0,1,1,0-2h18.64a1,1,0,0,1,0,2Z" style="fill:#677089"/><path d="M261.39,97.67H232.47a1,1,0,0,1,0-2h28.92a1,1,0,0,1,0,2Z" style="fill:#677089"/><path d="M267.5,100.45a3.78,3.78,0,1,1,3.78-3.78A3.79,3.79,0,0,1,267.5,100.45Zm0-5.57a1.78,1.78,0,1,0,1.78,1.78A1.79,1.79,0,0,0,267.5,94.89Z" style="fill:#677089"/><path d="M270.52,126.75h-2a1,1,0,0,1,0-2h2a1,1,0,0,1,0,2Zm-8,0h-3a1,1,0,0,1,0-2h3a1,1,0,0,1,0,2Zm-9,0h-3a1,1,0,0,1,0-2h3a1,1,0,0,1,0,2Zm-9,0h-3a1,1,0,0,1,0-2h3a1,1,0,0,1,0,2Zm-9,0h-3a1,1,0,1,1,0-2h3a1,1,0,0,1,0,2Z" style="fill:#677089"/><path d="M266.63,122.75a1,1,0,0,1-.71-.29l-5.74-5.74a1,1,0,0,1,1.41-1.41l5.74,5.74a1,1,0,0,1-.71,1.71Z" style="fill:#677089"/><path d="M260.89,122.75a1,1,0,0,1-.71-1.71l6-6a1,1,0,0,1,1.41,1.41l-6,6A1,1,0,0,1,260.89,122.75Z" style="fill:#677089"/><path d="M249.07,76.91V74.43a7.14,7.14,0,0,1-3.75-1.08l.59-1.64a6.54,6.54,0,0,0,3.53,1.05c1.74,0,2.92-1,2.92-2.4s-1-2.18-2.77-2.92c-2.5-1-4-2.11-4-4.24a4,4,0,0,1,3.7-3.95V56.78h1.52v2.38A6.54,6.54,0,0,1,254,60l-.61,1.62a5.92,5.92,0,0,0-3.09-.83c-1.89,0-2.6,1.13-2.6,2.11,0,1.27.91,1.91,3,2.79,2.52,1,3.8,2.3,3.8,4.49a4.26,4.26,0,0,1-3.87,4.17v2.55Z" style="fill:#677089"/><rect x="234.48" y="118.76" width="12.45" height="5.47" style="fill:#c5cae9"/><rect x="248.86" y="134.75" width="12.03" height="7.27" style="fill:#c5cae9"/><path d="M108.52,139a4.36,4.36,0,1,1,4.36-4.36A4.37,4.37,0,0,1,108.52,139Zm0-6.72a2.36,2.36,0,1,0,2.36,2.36A2.36,2.36,0,0,0,108.52,132.25Z" style="fill:#677089"/><path d="M133.76,32.89a3.09,3.09,0,1,1,3.09-3.09A3.09,3.09,0,0,1,133.76,32.89Zm0-4.18a1.09,1.09,0,1,0,1.09,1.09A1.09,1.09,0,0,0,133.76,28.71Z" style="fill:#677089"/><path d="M320.38,14.76a3.09,3.09,0,1,1,3.09-3.09A3.09,3.09,0,0,1,320.38,14.76Zm0-4.18a1.09,1.09,0,1,0,1.09,1.09A1.09,1.09,0,0,0,320.38,10.58Z" style="fill:#677089"/><path d="M339.7,83.8A4.75,4.75,0,1,1,344.45,79,4.76,4.76,0,0,1,339.7,83.8Zm0-7.5A2.75,2.75,0,1,0,342.45,79,2.75,2.75,0,0,0,339.7,76.3Z" style="fill:#677089"/><path d="M244,12.67a4.25,4.25,0,1,1,4.25-4.25A4.25,4.25,0,0,1,244,12.67Zm0-6.5a2.25,2.25,0,1,0,2.25,2.25A2.25,2.25,0,0,0,244,6.17Z" style="fill:#677089"/><path d="M356,139.86a4.61,4.61,0,1,1,4.61-4.61A4.62,4.62,0,0,1,356,139.86Zm0-7.23a2.61,2.61,0,1,0,2.61,2.61A2.62,2.62,0,0,0,356,132.63Z" style="fill:#677089"/><path d="M81.12,183.67a3.22,3.22,0,1,1,3.22-3.22A3.22,3.22,0,0,1,81.12,183.67Zm0-4.44a1.22,1.22,0,1,0,1.22,1.22A1.22,1.22,0,0,0,81.12,179.23Z" style="fill:#677089"/><circle cx="98.79" cy="97" r="2.67" style="fill:#677089"/><circle cx="196.12" cy="2.33" r="2.33" style="fill:#677089"/><circle cx="318.05" cy="178.23" r="2.33" style="fill:#677089"/><path d="M273.4,179.41h-3.7a1.8,1.8,0,1,1,0-3.61h3.7a1.8,1.8,0,0,1,0,3.61Zm-14.52,0h-5.41a1.8,1.8,0,0,1,0-3.61h5.41a1.8,1.8,0,0,1,0,3.61Zm-16.23,0h-5.41a1.8,1.8,0,0,1,0-3.61h5.41a1.8,1.8,0,1,1,0,3.61Zm-16.23,0H221a1.8,1.8,0,0,1,0-3.61h5.41a1.8,1.8,0,0,1,0,3.61Z" style="fill:#677089"/><path d="M213.4,142.86H144.77a1.8,1.8,0,0,1,0-3.61H213.4a1.8,1.8,0,0,1,0,3.61Z" style="fill:#677089"/><path d="M196.94,159.46H144.77a1.8,1.8,0,0,1,0-3.61h52.17a1.8,1.8,0,0,1,0,3.61Z" style="fill:#677089"/><circle cx="88.29" cy="126.05" r="19.88" transform="translate(-43.9 47.24) rotate(-24.19)" style="fill:#fff"/><path d="M98.4,144.32q-.76.42-1.56.78A20.88,20.88,0,1,1,98,107.57a1,1,0,0,1-.93,1.77,18.88,18.88,0,1,0,8.43,9,1,1,0,1,1,1.82-.82A20.91,20.91,0,0,1,98.4,144.32Z" style="fill:#677089"/><path d="M92.37,137.78,91,134.84a9.29,9.29,0,0,1-5,.72l-.18-2.26a8.5,8.5,0,0,0,4.75-.63c2.07-.93,2.93-2.75,2.18-4.41s-2.3-2.08-4.84-2c-3.49.17-5.92-.35-7.06-2.88s-.19-5,2.29-6.66l-1.32-2.94,1.8-.81,1.27,2.82a8.51,8.51,0,0,1,4.24-.68l.14,2.25a7.71,7.71,0,0,0-4.11.66c-2.24,1-2.48,2.72-2,3.89.68,1.51,2.1,1.79,5.1,1.7,3.54-.12,5.74.71,6.9,3.3,1,2.3.4,5.17-2.38,7l1.36,3Z" style="fill:#677089"/><circle cx="156.19" cy="16.19" r="15.04" transform="translate(-0.76 21.13) rotate(-7.72)" style="fill:#fff"/><path d="M166.52,28.45a16,16,0,0,1-23.1-22A15.94,15.94,0,0,1,154,.29a16.11,16.11,0,0,1,12.25,3.43A1,1,0,0,1,165,5.27a14,14,0,0,0-22.75,12.8A14,14,0,1,0,170.1,14.3a1,1,0,0,1,2-.27A16,16,0,0,1,166.52,28.45Z" style="fill:#677089"/><path d="M156.63,25.57l-.33-2.42a7,7,0,0,1-3.8-.56l.36-1.68a6.44,6.44,0,0,0,3.58.56c1.7-.23,2.71-1.37,2.53-2.73s-1.22-2-3.09-2.48c-2.57-.63-4.22-1.52-4.51-3.6a4,4,0,0,1,3.09-4.34l-.33-2.42,1.48-.2L155.93,8a6.44,6.44,0,0,1,3.22.42l-.38,1.66a5.83,5.83,0,0,0-3.12-.4c-1.84.25-2.39,1.44-2.26,2.4.17,1.24,1.14,1.75,3.34,2.32,2.6.67,4,1.75,4.3,3.87a4.2,4.2,0,0,1-3.23,4.58l.34,2.49Z" style="fill:#677089"/></g></g></svg>