<?xml version="1.0" encoding="utf-8"?>
<!-- Generator: Adobe Illustrator 21.0.2, SVG Export Plug-In . SVG Version: 6.00 Build 0)  -->
<svg version="1.1" id="Layer_1" xmlns="http://www.w3.org/2000/svg" xmlns:xlink="http://www.w3.org/1999/xlink" x="0px" y="0px"
	 viewBox="0 0 512 512" style="enable-background:new 0 0 512 512;" xml:space="preserve">
<style type="text/css">
	.st0{fill:#FFFFFF;}
	.st1{fill:#5F5AAF;}
</style>
<title>tracking</title>
<circle class="st0" cx="256" cy="256" r="252.5"/>
<g>
	<path class="st1" d="M335.5,139h-38.6c-1.7-5-6.4-8.3-11.6-8.3h-12.8c-6.7-9.1-19.5-11.1-28.6-4.4c-1.7,1.3-3.2,2.7-4.4,4.4h-12.8
		c-5.2,0-9.9,3.4-11.6,8.3h-38.6c-9.1,0-16.4,7.4-16.4,16.4v217.7c0,9.1,7.4,16.4,16.4,16.5h159.1c9.1,0,16.5-7.4,16.5-16.5V155.5
		C352,146.4,344.6,139,335.5,139z M222.2,142.9L222.2,142.9c0-2.4,2-4.5,4.4-4.5l0,0h14.9c1.4,0,2.7-0.8,3.4-2
		c3.5-6.1,11.2-8.3,17.3-4.8c2,1.1,3.6,2.8,4.8,4.8c0.7,1.2,2,2,3.4,2h14.9c2.4,0,4.5,2,4.5,4.5v12.8h-67.5L222.2,142.9z
		 M344.2,373.2c0,4.8-3.9,8.6-8.6,8.7H176.4c-4.8,0-8.7-3.9-8.7-8.7V155.5c0-4.8,3.8-8.6,8.7-8.6h37.9v12.8c0,2.2,1.8,3.9,3.9,3.9
		l0,0h75.4c2.2,0,3.9-1.8,3.9-3.9l0,0l0,0v-12.8h37.9c4.8,0,8.7,3.8,8.7,8.7L344.2,373.2L344.2,373.2z"/>
	<path class="st0" d="M256,139L256,139c-2.2,0-4,1.8-4,4c0,2.2,1.8,3.9,4,3.9c2.2,0,3.9-1.8,3.9-4C259.9,140.8,258.1,139,256,139z"
		/>
	<path class="st1" d="M331.4,155.8h-20.9c-2.2,0.1-3.9,1.9-3.8,4.1c0.1,2,1.8,3.6,3.8,3.8h17v193.1H184.5V163.6h17
		c2.2-0.1,3.9-1.9,3.8-4.1c-0.1-2-1.8-3.6-3.8-3.8h-20.9c-2.2,0-3.9,1.8-3.9,3.9l0,0v201c0,2.2,1.8,3.9,3.9,3.9l0,0h150.7
		c2.2,0,3.9-1.8,3.9-3.9l0,0v-201C335.3,157.5,333.5,155.8,331.4,155.8L331.4,155.8z"/>
	<path class="st1" d="M214.1,239.5c-6.8,0-12.3,5.5-12.3,12.3s5.5,12.3,12.3,12.3s12.3-5.5,12.3-12.3l0,0
		C226.4,245,220.9,239.5,214.1,239.5L214.1,239.5L214.1,239.5z M214.1,256.3c-2.4,0-4.5-2-4.5-4.5c0-2.5,2-4.5,4.5-4.5
		s4.5,2,4.5,4.5l0,0C218.6,254.2,216.6,256.3,214.1,256.3L214.1,256.3z"/>
	<path class="st1" d="M214.1,277.2c-6.8,0-12.3,5.5-12.3,12.3s5.5,12.3,12.3,12.3s12.3-5.5,12.3-12.3l0,0l0,0
		C226.4,282.7,220.9,277.2,214.1,277.2z M214.1,293.9c-2.4,0-4.5-2-4.5-4.5c0-2.4,2-4.5,4.5-4.5s4.5,2,4.5,4.5l0,0l0,0
		C218.5,292,216.6,293.9,214.1,293.9z"/>
	<path class="st1" d="M214.1,314.9c-6.8,0-12.3,5.5-12.3,12.3s5.5,12.3,12.3,12.3s12.3-5.5,12.3-12.3l0,0l0,0
		C226.4,320.4,220.9,314.9,214.1,314.9z M214.1,331.6c-2.4,0-4.5-2-4.5-4.5c0-2.5,2-4.5,4.5-4.5s4.5,2,4.5,4.5l0,0l0,0
		C218.5,329.6,216.6,331.6,214.1,331.6L214.1,331.6z"/>
	<path class="st1" d="M276.9,239.5h-37.7c-2.2-0.1-4,1.6-4.1,3.8s1.6,4,3.8,4.1c0.1,0,0.2,0,0.4,0H277c2.2-0.1,3.9-1.9,3.8-4.1
		C280.5,241.2,278.9,239.6,276.9,239.5z"/>
	<path class="st1" d="M306.2,256.3h-67c-2.2-0.1-4,1.6-4.1,3.8c-0.1,2.2,1.6,4,3.8,4.1c0.1,0,0.2,0,0.4,0h67c2.2,0.1,4-1.6,4.1-3.8
		c0.1-2.2-1.6-4-3.8-4.1C306.4,256.3,306.3,256.3,306.2,256.3L306.2,256.3z"/>
	<path class="st1" d="M276.9,277.2h-37.7c-2.2-0.1-4,1.6-4.1,3.8c-0.1,2.2,1.6,4,3.8,4.1c0.1,0,0.2,0,0.4,0H277
		c2.2-0.1,3.9-1.9,3.8-4.1C280.5,278.9,278.9,277.3,276.9,277.2z"/>
	<path class="st1" d="M306.2,293.9h-67c-2.2-0.1-4,1.6-4.1,3.8c-0.1,2.2,1.6,4,3.8,4.1c0.1,0,0.2,0,0.4,0h67c2.2,0.1,4-1.6,4.1-3.8
		c0.1-2.2-1.6-4-3.8-4.1C306.4,293.9,306.3,293.9,306.2,293.9L306.2,293.9z"/>
	<path class="st1" d="M276.9,314.9h-37.7c-2.2-0.1-4,1.6-4.1,3.8c-0.1,2.2,1.6,4,3.8,4.1c0.1,0,0.2,0,0.4,0H277
		c2.2-0.1,3.9-1.9,3.8-4.1C280.5,316.6,278.9,314.9,276.9,314.9z"/>
	<path class="st1" d="M306.2,331.6h-67c-2.2-0.1-4,1.6-4.1,3.8s1.6,4,3.8,4.1c0.1,0,0.2,0,0.4,0h67c2.2,0.1,4-1.6,4.1-3.8
		c0.1-2.2-1.6-4-3.8-4.1C306.4,331.6,306.3,331.6,306.2,331.6L306.2,331.6z"/>
	<path class="st1" d="M306.2,176.7h-67c-2.2-0.1-4,1.6-4.1,3.8c-0.1,2.2,1.6,4,3.8,4.1c0.1,0,0.2,0,0.4,0h67c2.2,0.1,4-1.6,4.1-3.8
		c0.1-2.2-1.6-4-3.8-4.1C306.4,176.7,306.3,176.7,306.2,176.7L306.2,176.7z"/>
	<path class="st1" d="M306.2,214.4H205.7c-2.2-0.1-4,1.6-4.1,3.8s1.6,4,3.8,4.1c0.1,0,0.2,0,0.4,0h100.4c2.2,0.1,4-1.6,4.1-3.8
		c0.1-2.2-1.6-4-3.8-4.1C306.4,214.4,306.3,214.4,306.2,214.4z"/>
	<path class="st1" d="M251.8,193.5h-12.5c-2.2-0.1-4,1.6-4.1,3.8c-0.1,2.2,1.6,4,3.8,4.1c0.1,0,0.2,0,0.3,0h12.5
		c2.2-0.1,3.8-1.9,3.8-4.1C255.4,195.2,253.8,193.6,251.8,193.5z"/>
	<path class="st1" d="M281.1,193.5h-12.6c-2.2-0.1-4,1.6-4.1,3.8c-0.1,2.2,1.6,4,3.8,4.1c0.1,0,0.2,0,0.4,0h12.5
		c2.2,0.1,4-1.6,4.1-3.8c0.1-2.2-1.6-4-3.8-4.1C281.2,193.5,281.2,193.5,281.1,193.5L281.1,193.5z"/>
	<path class="st1" d="M222.4,176.7h-16.7c-2.2,0-3.9,1.8-3.9,3.9l0,0l0,0v16.7c0,2.2,1.8,3.9,3.9,3.9l0,0h16.7
		c2.2,0,3.9-1.8,3.9-3.9l0,0l0,0v-16.7C226.4,178.4,224.6,176.7,222.4,176.7L222.4,176.7z M218.5,193.5h-8.9v-8.9h8.9V193.5z"/>
</g>
</svg>
