<svg id="Layer_1" data-name="Layer 1" xmlns="http://www.w3.org/2000/svg" viewBox="0 0 512 512"><title>tracking</title><path d="M408.31,32.06h-73.9a23.57,23.57,0,0,0-22.3-16H287.64a39.24,39.24,0,0,0-63.28,0H199.89a23.57,23.57,0,0,0-22.3,16h-73.9A31.58,31.58,0,0,0,72.14,63.61V480.45A31.58,31.58,0,0,0,103.69,512H408.31a31.58,31.58,0,0,0,31.55-31.55V63.61A31.58,31.58,0,0,0,408.31,32.06Zm-217,7.53h0A8.54,8.54,0,0,1,199.8,31h28.58a7.5,7.5,0,0,0,6.48-3.73,24.31,24.31,0,0,1,42.27,0A7.5,7.5,0,0,0,283.62,31h28.49a8.54,8.54,0,0,1,8.53,8.53v24.6H191.35Zm233.5,440.86A16.57,16.57,0,0,1,408.31,497H103.69a16.57,16.57,0,0,1-16.55-16.55V63.61a16.57,16.57,0,0,1,16.55-16.55h72.66V71.63a7.5,7.5,0,0,0,7.5,7.5h144.3a7.5,7.5,0,0,0,7.5-7.5h0V47.06h72.66a16.57,16.57,0,0,1,16.55,16.55Z" style="fill:#281ec1"/><path d="M256.08,32.06H256a7.54,7.54,0,1,0,.08,0Z" style="fill:#fff"/><path d="M400.29,64.13H360.21a7.5,7.5,0,0,0,0,15h32.58V448.9H119.21V79.13h32.58a7.5,7.5,0,0,0,0-15H111.71a7.5,7.5,0,0,0-7.5,7.5V456.4a7.5,7.5,0,0,0,7.5,7.5H400.29a7.5,7.5,0,0,0,7.5-7.5V71.63A7.5,7.5,0,0,0,400.29,64.13Z" style="fill:#281ec1"/><path d="M175.84,224.45A23.53,23.53,0,1,0,199.37,248,23.53,23.53,0,0,0,175.84,224.45Zm0,32.06a8.53,8.53,0,1,1,8.53-8.53h0a8.54,8.54,0,0,1-8.53,8.54Z" style="fill:#281ec1"/><path d="M175.84,296.6a23.53,23.53,0,1,0,23.53,23.53h0A23.56,23.56,0,0,0,175.84,296.6Zm0,32.06a8.53,8.53,0,1,1,8.53-8.53h0A8.54,8.54,0,0,1,175.84,328.66Z" style="fill:#281ec1"/><path d="M175.84,368.74a23.53,23.53,0,1,0,23.53,23.53h0A23.56,23.56,0,0,0,175.84,368.74Zm0,32.07a8.53,8.53,0,1,1,8.53-8.53h0A8.54,8.54,0,0,1,175.84,400.81Z" style="fill:#281ec1"/><path d="M296.08,224.45H223.94a7.5,7.5,0,0,0,0,15h72.14a7.5,7.5,0,0,0,0-15Z" style="fill:#281ec1"/><path d="M352.19,256.52H223.94a7.5,7.5,0,0,0,0,15H352.19a7.5,7.5,0,0,0,0-15Z" style="fill:#281ec1"/><path d="M296.08,296.6H223.94a7.5,7.5,0,0,0,0,15h72.14a7.5,7.5,0,1,0,0-15Z" style="fill:#281ec1"/><path d="M352.19,328.66H223.94a7.5,7.5,0,1,0,0,15H352.19a7.5,7.5,0,0,0,0-15Z" style="fill:#281ec1"/><path d="M296.08,368.74H223.94a7.5,7.5,0,1,0,0,15h72.14a7.5,7.5,0,0,0,0-15Z" style="fill:#281ec1"/><path d="M352.19,400.81H223.94a7.5,7.5,0,0,0,0,15H352.19a7.5,7.5,0,0,0,0-15Z" style="fill:#281ec1"/><path d="M352.19,104.21H223.94a7.5,7.5,0,0,0,0,15H352.19a7.5,7.5,0,0,0,0-15Z" style="fill:#281ec1"/><path d="M352.19,176.35H159.81a7.5,7.5,0,0,0,0,15H352.19a7.5,7.5,0,0,0,0-15Z" style="fill:#281ec1"/><path d="M248,136.27H224a7.5,7.5,0,0,0,0,15h24a7.5,7.5,0,0,0,0-15Z" style="fill:#281ec1"/><path d="M304.1,136.27H280a7.5,7.5,0,0,0,0,15h24a7.5,7.5,0,0,0,0-15Z" style="fill:#281ec1"/><path d="M191.87,104.21H159.81a7.5,7.5,0,0,0-7.5,7.5h0v32.07a7.5,7.5,0,0,0,7.5,7.5h32.06a7.5,7.5,0,0,0,7.5-7.5h0V111.71a7.5,7.5,0,0,0-7.5-7.5Zm-7.5,32.07H167.31V119.21h17.06Z" style="fill:#281ec1"/></svg>